<?xml version="1.0" encoding="UTF-8" standalone="no"?>
<svg
   xmlns:dc="http://purl.org/dc/elements/1.1/"
   xmlns:cc="http://creativecommons.org/ns#"
   xmlns:rdf="http://www.w3.org/1999/02/22-rdf-syntax-ns#"
   xmlns:svg="http://www.w3.org/2000/svg"
   xmlns="http://www.w3.org/2000/svg"
   xmlns:sodipodi="http://sodipodi.sourceforge.net/DTD/sodipodi-0.dtd"
   xmlns:inkscape="http://www.inkscape.org/namespaces/inkscape"
   width="200mm"
   height="200mm"
   viewBox="0 0 200 200"
   version="1.1"
   id="svg8"
   inkscape:version="1.0.1 (3bc2e813f5, 2020-09-07)"
   sodipodi:docname="silhouette.svg">
  <defs
     id="defs2" />
  <sodipodi:namedview
     id="base"
     pagecolor="#ffffff"
     bordercolor="#666666"
     borderopacity="1.0"
     inkscape:pageopacity="0.0"
     inkscape:pageshadow="2"
     inkscape:zoom="1.0377457"
     inkscape:cx="215.51186"
     inkscape:cy="366.84772"
     inkscape:document-units="mm"
     inkscape:current-layer="layer1"
     inkscape:document-rotation="0"
     showgrid="false"
     inkscape:window-width="1920"
     inkscape:window-height="1004"
     inkscape:window-x="0"
     inkscape:window-y="0"
     inkscape:window-maximized="1" />
  <metadata
     id="metadata5">
    <rdf:RDF>
      <cc:Work
         rdf:about="">
        <dc:format>image/svg+xml</dc:format>
        <dc:type
           rdf:resource="http://purl.org/dc/dcmitype/StillImage" />
        <dc:title></dc:title>
      </cc:Work>
    </rdf:RDF>
  </metadata>
  <g
     inkscape:label="Ebene 1"
     inkscape:groupmode="layer"
     id="layer1">
    <path
       id="path20"
       style="color:#000000;font-style:normal;font-variant:normal;font-weight:normal;font-stretch:normal;font-size:medium;line-height:normal;font-family:'Bitstream Vera Sans';-inkscape-font-specification:'Bitstream Vera Sans';text-indent:0;text-align:start;text-decoration:none;text-decoration-line:none;letter-spacing:normal;word-spacing:normal;text-transform:none;writing-mode:lr-tb;direction:ltr;text-anchor:start;display:inline;overflow:visible;visibility:visible;fill:#000000;fill-opacity:1;stroke:#000000;stroke-width:0.754424;stroke-miterlimit:4;stroke-dasharray:none;stroke-opacity:1;marker:none;enable-background:accumulate"
       d="M 377.68945 0.37695312 C 169.81369 0.37695312 0.37695313 169.72646 0.37695312 377.49023 C 0.37695312 585.25303 169.81383 754.59375 377.68945 754.59375 C 585.56807 754.59375 755.01172 585.253 755.01172 377.49023 C 755.01172 169.72652 585.56826 0.37695313 377.68945 0.37695312 z M 379.77344 15.367188 L 390.57617 16.121094 L 389.05078 37.935547 L 409.04102 39.333984 L 410.56836 17.519531 L 421.37109 18.273438 L 417.49609 73.65625 L 406.69141 72.902344 L 408.42188 48.148438 L 388.43555 46.75 L 386.70117 71.503906 L 375.89648 70.75 L 379.77344 15.367188 z M 347.40625 15.796875 C 348.2163 15.805379 349.02477 15.852139 349.82812 15.9375 C 350.63153 16.022898 351.43012 16.147424 352.2207 16.306641 C 353.01131 16.465857 353.79279 16.660665 354.56445 16.890625 C 355.33609 17.120587 356.09721 17.385965 356.84375 17.683594 L 358.42578 30.548828 C 357.99477 30.137788 357.54265 29.752829 357.07227 29.394531 C 356.60187 29.036233 356.11302 28.705765 355.60938 28.402344 C 355.10568 28.098915 354.58752 27.82259 354.05664 27.576172 C 353.52576 27.329755 352.98167 27.113061 352.42969 26.925781 C 351.8777 26.738502 351.31699 26.581085 350.75 26.455078 C 350.183 26.329071 349.61107 26.232529 349.03516 26.169922 C 348.45925 26.107322 347.8795 26.077144 347.30078 26.080078 C 346.72205 26.083095 346.14381 26.12079 345.56836 26.191406 C 344.92383 26.270493 344.30022 26.384499 343.69922 26.53125 C 343.09819 26.67799 342.52023 26.856743 341.96289 27.066406 C 341.40555 27.276072 340.86894 27.515351 340.35547 27.783203 C 339.842 28.051062 339.35031 28.34665 338.88086 28.667969 C 338.41143 28.989289 337.9643 29.336983 337.53906 29.707031 C 337.11384 30.077081 336.71091 30.470716 336.33008 30.884766 C 335.94924 31.298815 335.59213 31.734186 335.25586 32.1875 C 334.91959 32.640822 334.60403 33.111752 334.3125 33.599609 C 334.02099 34.087452 333.75247 34.591711 333.50586 35.109375 C 333.25925 35.627039 333.03548 36.158423 332.83398 36.701172 C 332.6325 37.243914 332.45306 37.798231 332.29688 38.361328 C 332.14067 38.924421 332.00723 39.495516 331.89648 40.074219 C 331.78571 40.652929 331.69793 41.238526 331.63281 41.828125 C 331.56769 42.41772 331.52521 43.011666 331.50586 43.607422 C 331.48658 44.203166 331.49074 44.801257 331.51758 45.398438 C 331.54403 45.995598 331.59318 46.591673 331.66602 47.185547 C 331.73749 47.765614 331.83257 48.344037 331.95117 48.916016 C 332.06974 49.487979 332.21097 50.053779 332.375 50.613281 C 332.53903 51.172776 332.72576 51.724974 332.93359 52.267578 C 333.14143 52.81019 333.37111 53.343901 333.62109 53.865234 C 333.87107 54.386571 334.14118 54.894966 334.43164 55.390625 C 334.7221 55.88628 335.03204 56.368396 335.36133 56.833984 C 335.69064 57.299569 336.03981 57.748568 336.40625 58.179688 C 336.77271 58.610809 337.15665 59.023765 337.55859 59.416016 C 337.96054 59.808278 338.38062 60.180307 338.81641 60.529297 C 339.25219 60.878298 339.70391 61.204518 340.17188 61.505859 C 340.6398 61.807201 341.12456 62.084694 341.62305 62.333984 C 342.12153 62.583282 342.63476 62.805212 343.16211 62.998047 C 343.68946 63.190878 344.23062 63.354336 344.78516 63.486328 C 345.33971 63.618309 345.90627 63.71841 346.48633 63.785156 C 347.06642 63.851903 347.65973 63.883732 348.26367 63.880859 C 348.86764 63.877843 349.48319 63.840623 350.10938 63.763672 C 350.68518 63.69307 351.25656 63.584272 351.82031 63.441406 C 352.38409 63.29854 352.94027 63.12103 353.48633 62.912109 C 354.03241 62.703177 354.56709 62.462148 355.08984 62.193359 C 355.61261 61.924559 356.12337 61.629114 356.61719 61.306641 C 357.11104 60.984171 357.58951 60.635595 358.04883 60.265625 C 358.50814 59.895647 358.94802 59.503078 359.36719 59.091797 C 359.78637 58.68052 360.18322 58.251079 360.55664 57.804688 C 360.93006 57.358287 361.27949 56.895258 361.60156 56.419922 L 363.17383 69.210938 C 362.22657 69.808944 361.27613 70.374944 360.3125 70.896484 C 359.34886 71.418021 358.37198 71.893373 357.375 72.3125 C 356.87652 72.522037 356.37329 72.717388 355.86328 72.896484 C 355.35326 73.075596 354.83809 73.239386 354.31445 73.384766 C 353.79079 73.530164 353.25815 73.657209 352.71875 73.765625 C 352.17934 73.87406 351.6315 73.962992 351.07422 74.03125 C 350.10505 74.150192 349.14563 74.215363 348.19727 74.228516 C 347.2489 74.241744 346.31192 74.20449 345.38867 74.117188 C 344.46543 74.029805 343.5559 73.891751 342.66211 73.708984 C 341.76833 73.526206 340.89125 73.298333 340.03125 73.025391 C 339.17126 72.752433 338.32969 72.436061 337.50781 72.078125 C 336.68594 71.720204 335.88294 71.320546 335.10352 70.882812 C 334.32408 70.445095 333.56663 69.967408 332.83398 69.455078 C 332.10133 68.942744 331.39442 68.396194 330.71289 67.814453 C 330.03136 67.232712 329.37608 66.616658 328.75 65.970703 C 328.12391 65.324763 327.52725 64.64834 326.96094 63.943359 C 326.39465 63.238368 325.85766 62.504913 325.35547 61.746094 C 324.8533 60.987286 324.3849 60.201978 323.95117 59.394531 C 323.51743 58.587073 323.11877 57.75715 322.75781 56.90625 C 322.39687 56.05535 322.07486 55.184075 321.79102 54.294922 C 321.50717 53.405769 321.26294 52.49838 321.06055 51.576172 C 320.85812 50.65396 320.69673 49.717664 320.58008 48.767578 C 320.45989 47.790083 320.38283 46.814442 320.34961 45.84375 C 320.31635 44.873054 320.3275 43.906909 320.37891 42.949219 C 320.43046 41.991532 320.52403 41.041995 320.6582 40.103516 C 320.79234 39.165036 320.96705 38.237277 321.18164 37.324219 C 321.3962 36.411157 321.65054 35.512297 321.94336 34.630859 C 322.2362 33.749422 322.56665 32.886582 322.93555 32.042969 C 323.30443 31.199355 323.71151 30.375746 324.1543 29.576172 C 324.59709 28.776589 325.07533 27.999336 325.58984 27.25 C 326.10437 26.500656 326.65421 25.778831 327.23828 25.085938 C 327.82236 24.393039 328.44036 23.729863 329.0918 23.099609 C 329.74324 22.469356 330.42788 21.871948 331.14453 21.310547 C 331.86117 20.749153 332.61101 20.224623 333.39062 19.738281 C 334.1703 19.25194 334.97981 18.803507 335.82031 18.398438 C 336.66084 17.993355 337.53246 17.630116 338.43164 17.3125 C 339.33085 16.994891 340.25918 16.723934 341.21484 16.5 C 342.17054 16.276059 343.15404 16.100624 344.16406 15.976562 C 344.7036 15.910724 345.24441 15.861701 345.78516 15.832031 C 346.3259 15.8024 346.86622 15.791149 347.40625 15.796875 z M 440.18359 21.517578 L 450.8457 23.398438 L 441.19922 78.074219 L 430.53711 76.193359 L 440.18359 21.517578 z M 289.63867 26.246094 C 290.55409 26.254522 291.48057 26.311043 292.39844 26.416016 C 293.31631 26.520996 294.22557 26.675342 295.10352 26.880859 C 295.98145 27.086367 296.82941 27.342278 297.625 27.652344 C 298.02281 27.807365 298.40807 27.976278 298.77734 28.158203 C 299.1466 28.340127 299.49855 28.534821 299.83398 28.744141 L 297.07227 37.357422 C 296.72784 37.092338 296.37925 36.844918 296.02539 36.617188 C 295.67151 36.389452 295.31109 36.181292 294.94727 35.994141 C 294.58345 35.806982 294.21605 35.641385 293.8418 35.498047 C 293.46755 35.354708 293.08829 35.232998 292.70312 35.136719 C 292.318 35.040428 291.92587 34.967876 291.5293 34.921875 C 291.13275 34.875867 290.73072 34.85769 290.32227 34.865234 C 289.91381 34.872793 289.49894 34.906436 289.07812 34.970703 C 288.65734 35.034963 288.23051 35.129643 287.79688 35.253906 C 287.38087 35.373426 286.9778 35.531665 286.59375 35.724609 C 286.20969 35.917562 285.8439 36.143761 285.50195 36.400391 C 285.16002 36.657013 284.84239 36.943358 284.55273 37.253906 C 284.26307 37.564462 284.00259 37.899182 283.77539 38.253906 C 283.54817 38.608615 283.3538 38.983892 283.19922 39.373047 C 283.04464 39.762191 282.9292 40.166261 282.85742 40.580078 C 282.7858 40.993902 282.75813 41.416961 282.7793 41.845703 C 282.80046 42.274453 282.86983 42.708662 282.99414 43.142578 C 283.07457 43.423435 283.17327 43.686062 283.28711 43.931641 C 283.40095 44.177234 283.53068 44.406006 283.67578 44.619141 C 283.82088 44.832268 283.98185 45.029349 284.15625 45.212891 C 284.33064 45.396424 284.51902 45.56587 284.7207 45.722656 C 285.12405 46.036206 285.57944 46.299931 286.08008 46.523438 C 286.5807 46.746916 287.12694 46.931717 287.70898 47.087891 C 288.29102 47.244061 288.90906 47.370858 289.55664 47.482422 C 290.20423 47.593994 290.88093 47.689684 291.57812 47.779297 C 292.97261 47.95856 294.44931 48.115894 295.94727 48.34375 C 296.69606 48.457665 297.45014 48.589877 298.20117 48.75 C 298.95221 48.910139 299.70224 49.099108 300.43945 49.328125 C 301.17667 49.557164 301.90185 49.825837 302.60938 50.146484 C 303.31688 50.467139 304.00598 50.838474 304.66797 51.273438 C 304.99898 51.490907 305.32402 51.724291 305.64062 51.974609 C 305.95724 52.224927 306.26612 52.4933 306.56641 52.779297 C 306.86669 53.065294 307.15752 53.368849 307.43945 53.693359 C 307.72144 54.01787 307.99422 54.362654 308.25586 54.728516 C 308.51752 55.094374 308.76847 55.482526 309.00781 55.892578 C 309.24713 56.30263 309.47439 56.734329 309.68945 57.191406 C 309.90451 57.648491 310.10612 58.129786 310.29492 58.636719 C 310.48371 59.143671 310.65977 59.676678 310.82031 60.236328 C 311.01409 60.911662 311.17848 61.582579 311.3125 62.246094 C 311.44648 62.909616 311.55028 63.565434 311.625 64.214844 C 311.69972 64.864246 311.74389 65.50568 311.75977 66.138672 C 311.77564 66.771641 311.76273 67.397447 311.7207 68.011719 C 311.6783 68.625983 311.60609 69.229023 311.50586 69.822266 C 311.40563 70.415519 311.27672 70.998444 311.11914 71.568359 C 310.96157 72.138282 310.77691 72.695937 310.5625 73.240234 C 310.34809 73.78452 310.10472 74.315672 309.83398 74.832031 C 309.56953 75.336167 309.27785 75.825087 308.95898 76.298828 C 308.64011 76.772573 308.29421 77.230948 307.92188 77.671875 C 307.54952 78.112806 307.14957 78.535708 306.72461 78.941406 C 306.29964 79.347116 305.84968 79.735458 305.37305 80.103516 C 304.89643 80.471566 304.39453 80.820446 303.86719 81.148438 C 303.33981 81.47642 302.78617 81.782843 302.20898 82.068359 C 301.63179 82.353865 301.03036 82.618766 300.4043 82.859375 C 299.77821 83.09998 299.12717 83.316477 298.45312 83.509766 C 297.99281 83.641709 297.53624 83.754894 297.08203 83.849609 C 296.62782 83.944324 296.17642 84.021382 295.72852 84.080078 C 295.28063 84.138774 294.83593 84.179238 294.39453 84.203125 C 293.95314 84.226936 293.51478 84.234058 293.08008 84.224609 C 292.21066 84.205334 291.35527 84.119264 290.51367 83.972656 C 289.67207 83.826048 288.84362 83.61761 288.03125 83.353516 C 287.21886 83.089402 286.42217 82.77038 285.64062 82.398438 C 284.85896 82.026494 284.09337 81.602929 283.34375 81.132812 C 282.59414 80.662697 281.86065 80.144554 281.14453 79.585938 C 280.42844 79.027312 279.72997 78.428478 279.04883 77.791016 L 280.75781 74.832031 L 283.91602 69.308594 C 284.24011 69.770913 284.59864 70.216763 284.98633 70.638672 C 285.37401 71.060573 285.79095 71.459254 286.23242 71.830078 C 286.6739 72.200888 287.13956 72.542497 287.625 72.851562 C 288.11044 73.160652 288.6152 73.437181 289.13477 73.673828 C 289.65433 73.910464 290.18854 74.108168 290.73242 74.261719 C 291.27629 74.415281 291.83033 74.524192 292.38867 74.583984 C 292.94701 74.643777 293.50928 74.654049 294.07227 74.609375 C 294.63526 74.564739 295.19804 74.466401 295.75586 74.306641 C 296.28699 74.154363 296.77847 73.952352 297.22656 73.708984 C 297.67463 73.465621 298.08079 73.18071 298.44531 72.859375 C 298.80981 72.53804 299.13162 72.18105 299.41211 71.794922 C 299.69259 71.408794 299.93105 70.992454 300.12695 70.554688 C 300.32288 70.116912 300.47703 69.655948 300.58789 69.179688 C 300.69878 68.703422 300.76565 68.212517 300.79102 67.710938 C 300.81634 67.209338 300.7989 66.697379 300.73828 66.183594 C 300.67754 65.669812 300.57498 65.153439 300.42773 64.640625 C 300.32867 64.295479 300.21275 63.972119 300.08398 63.667969 C 299.95522 63.36383 299.81239 63.080411 299.65625 62.814453 C 299.50008 62.548488 299.33156 62.298937 299.15039 62.068359 C 298.96924 61.83777 298.77606 61.625767 298.57227 61.427734 C 298.36847 61.229725 298.15373 61.047193 297.92969 60.878906 C 297.70564 60.710604 297.4724 60.555398 297.23047 60.414062 C 296.74658 60.131359 296.22869 59.900905 295.6875 59.708984 C 295.1463 59.51706 294.5815 59.363889 294.00195 59.240234 C 293.42241 59.116568 292.82729 59.021293 292.22852 58.943359 C 291.03063 58.787529 289.81393 58.701844 288.65234 58.59375 C 287.69216 58.486071 286.75913 58.359343 285.85547 58.205078 C 284.95183 58.050798 284.07787 57.867126 283.23828 57.646484 C 282.39872 57.425836 281.59219 57.168173 280.82422 56.861328 C 280.44023 56.707917 280.06583 56.541966 279.70117 56.363281 C 279.33649 56.184585 278.98116 55.993547 278.63672 55.787109 C 278.29229 55.580672 277.95798 55.359702 277.63477 55.123047 C 277.31154 54.886411 277.00033 54.632633 276.69922 54.363281 C 276.39814 54.093952 276.10809 53.808427 275.83008 53.503906 C 275.55206 53.19939 275.28526 52.877328 275.03125 52.535156 C 274.77727 52.192996 274.53569 51.831514 274.30664 51.449219 C 274.0776 51.066912 273.86136 50.663183 273.6582 50.238281 C 273.45505 49.813379 273.26615 49.366472 273.08984 48.896484 C 272.91353 48.426515 272.75011 47.933569 272.60156 47.416016 C 272.4429 46.862972 272.3111 46.30863 272.20703 45.755859 C 272.10294 45.203092 272.02732 44.652779 271.97656 44.103516 C 271.92577 43.554256 271.90106 43.007372 271.90234 42.464844 C 271.90461 41.922319 271.93045 41.384121 271.98242 40.851562 C 272.0345 40.319009 272.11133 39.790848 272.21289 39.271484 C 272.3143 38.752109 272.44006 38.24123 272.58984 37.738281 C 272.73963 37.23534 272.91264 36.741107 273.10938 36.257812 C 273.30609 35.774523 273.5271 35.302216 273.76953 34.841797 C 274.01195 34.381385 274.27762 33.932355 274.56445 33.498047 C 274.85128 33.063739 275.15829 32.64325 275.48828 32.238281 C 275.81827 31.833312 276.17112 31.444667 276.54297 31.072266 C 276.91484 30.699865 277.30631 30.344419 277.71875 30.007812 C 278.13119 29.671209 278.56389 29.352259 279.01562 29.054688 C 279.46738 28.757095 279.93792 28.479942 280.42773 28.224609 C 280.91757 27.969276 281.42657 27.737197 281.95312 27.527344 C 282.47972 27.317497 283.02382 27.129888 283.58594 26.96875 C 284.03075 26.840949 284.49548 26.730111 284.97461 26.636719 C 285.45374 26.54333 285.94905 26.467946 286.45703 26.408203 C 286.965 26.348468 287.48435 26.306132 288.01562 26.279297 C 288.54697 26.252462 289.08944 26.240802 289.63867 26.246094 z M 482.63477 30.818359 C 483.07247 30.819868 483.51415 30.839026 483.95703 30.876953 C 484.39995 30.914892 484.84446 30.971069 485.29102 31.046875 C 485.7376 31.122681 486.1861 31.21736 486.63477 31.332031 C 487.08347 31.44671 487.53315 31.581758 487.98242 31.736328 C 488.42013 31.886651 488.86253 32.061625 489.30859 32.259766 C 489.75469 32.457915 490.20389 32.679651 490.6543 32.921875 C 491.10474 33.164097 491.55714 33.426417 492.00781 33.708984 C 492.45848 33.991546 492.90854 34.294112 493.35547 34.613281 C 494.10041 35.144989 494.82788 35.721787 495.51953 36.333984 C 496.21115 36.946182 496.86559 37.593965 497.4668 38.265625 C 498.06804 38.937285 498.61608 39.633645 499.08984 40.34375 C 499.32682 40.698799 499.5441 41.057251 499.74219 41.417969 C 499.94023 41.778687 500.11874 42.140153 500.27344 42.503906 L 493.06641 47.974609 C 492.93639 47.560037 492.794 47.15894 492.63477 46.769531 C 492.47565 46.380123 492.30008 46.0025 492.10938 45.640625 C 491.91889 45.278773 491.7126 44.931577 491.48828 44.599609 C 491.26416 44.267653 491.02198 43.952 490.76172 43.652344 C 490.50131 43.352665 490.22226 43.069707 489.92383 42.804688 C 489.62525 42.539667 489.30766 42.292446 488.96875 42.064453 C 488.62973 41.836472 488.27025 41.628055 487.88867 41.439453 C 487.50705 41.250855 487.10215 41.082355 486.67578 40.935547 C 486.26638 40.794986 485.84717 40.692957 485.42188 40.630859 C 484.99653 40.5688 484.56606 40.546374 484.13867 40.560547 C 483.71132 40.574909 483.28658 40.626478 482.87109 40.714844 C 482.45565 40.803209 482.04983 40.927563 481.66016 41.087891 C 481.27049 41.248218 480.89673 41.445612 480.54688 41.675781 C 480.19689 41.905954 479.87053 42.168955 479.57422 42.466797 C 479.2779 42.764624 479.0119 43.095639 478.7832 43.458984 C 478.55454 43.822348 478.36206 44.217841 478.21484 44.644531 C 478.1196 44.920815 478.04958 45.192558 478.00195 45.458984 C 477.95433 45.725403 477.92918 45.986366 477.92578 46.244141 C 477.9228 46.501904 477.94185 46.755549 477.97852 47.005859 C 478.01631 47.256177 478.07322 47.504018 478.14844 47.748047 C 478.29886 48.236105 478.52101 48.711577 478.80273 49.181641 C 479.08469 49.651708 479.42536 50.116543 479.8125 50.578125 C 480.19964 51.039704 480.63318 51.498338 481.09961 51.960938 C 481.56608 52.423532 482.06625 52.890164 482.58594 53.363281 C 483.62538 54.309512 484.74551 55.286705 485.8418 56.332031 C 486.38994 56.854695 486.93176 57.393384 487.45508 57.955078 C 487.97839 58.516773 488.4826 59.100718 488.95508 59.710938 C 489.42752 60.321156 489.86811 60.958695 490.26367 61.626953 C 490.65928 62.295204 491.01009 62.994678 491.30273 63.730469 C 491.449 64.098368 491.58154 64.474769 491.69727 64.861328 C 491.81292 65.247883 491.9125 65.644365 491.99414 66.050781 C 492.07578 66.45719 492.139 66.873328 492.18359 67.300781 C 492.22819 67.728238 492.25366 68.167511 492.25781 68.617188 C 492.26159 69.066871 492.24709 69.526901 492.20703 70 C 492.16772 70.473106 492.1057 70.959324 492.01953 71.457031 C 491.93336 71.954731 491.82356 72.464786 491.6875 72.988281 C 491.55106 73.511784 491.38888 74.047187 491.19922 74.597656 C 490.97056 75.261957 490.72025 75.905034 490.44922 76.525391 C 490.17823 77.145751 489.88573 77.743554 489.57422 78.318359 C 489.26279 78.893169 488.93228 79.445008 488.58203 79.972656 C 488.23167 80.500316 487.8619 81.003533 487.47461 81.482422 C 487.08732 81.961322 486.68235 82.415235 486.25977 82.84375 C 485.83718 83.272273 485.39756 83.676191 484.94141 84.052734 C 484.48526 84.429289 484.01145 84.780559 483.52344 85.103516 C 483.03542 85.426476 482.53181 85.720517 482.01367 85.988281 C 481.50771 86.249636 480.98814 86.484202 480.45508 86.689453 C 479.92198 86.894719 479.37644 87.071042 478.81836 87.21875 C 478.26027 87.366454 477.69028 87.485551 477.10938 87.574219 C 476.52846 87.662924 475.93565 87.721767 475.33398 87.75 C 474.73236 87.778346 474.12217 87.77582 473.50195 87.742188 C 472.88173 87.70855 472.25186 87.643895 471.61523 87.546875 C 470.97857 87.449855 470.3345 87.320031 469.68359 87.158203 C 469.03265 86.996402 468.37402 86.802279 467.71094 86.574219 C 467.25811 86.418389 466.81902 86.249196 466.39258 86.066406 C 465.96613 85.883628 465.55294 85.687191 465.15234 85.478516 C 464.75179 85.269848 464.36359 85.047915 463.98828 84.814453 C 463.61297 84.580992 463.2509 84.335284 462.90039 84.078125 C 462.19936 83.563811 461.5467 83.002938 460.94141 82.400391 C 460.33615 81.797839 459.77757 81.154702 459.26367 80.472656 C 458.74977 79.79061 458.28041 79.069209 457.85352 78.316406 C 457.42662 77.5636 457.04346 76.779668 456.69922 75.964844 C 456.3549 75.150019 456.05116 74.305612 455.78516 73.4375 C 455.51908 72.569399 455.28985 71.676326 455.09766 70.763672 L 458.19727 69.320312 L 463.95312 66.607422 C 463.95328 67.171906 463.99119 67.740739 464.06641 68.308594 C 464.142 68.87643 464.25576 69.443155 464.4043 70 C 464.55321 70.556845 464.73661 71.10526 464.95703 71.636719 C 465.17738 72.168169 465.43288 72.682134 465.72266 73.173828 C 466.01255 73.665526 466.33792 74.134698 466.69531 74.572266 C 467.05286 75.009825 467.44215 75.416104 467.86523 75.785156 C 468.28828 76.154189 468.74367 76.485333 469.23047 76.771484 C 469.71712 77.057632 470.23656 77.299373 470.78516 77.488281 C 471.30764 77.668036 471.82339 77.784272 472.33008 77.841797 C 472.8368 77.899359 473.33342 77.898069 473.81641 77.84375 C 474.29943 77.789514 474.76939 77.68088 475.2207 77.525391 C 475.67205 77.369901 476.10587 77.166185 476.51758 76.919922 C 476.92932 76.673648 477.31947 76.38516 477.68359 76.058594 C 478.04794 75.732043 478.38476 75.369012 478.69336 74.972656 C 479.00177 74.576293 479.2822 74.147074 479.52734 73.691406 C 479.77264 73.235739 479.98254 72.752534 480.15625 72.248047 C 480.27304 71.908532 480.36638 71.57689 480.43555 71.253906 C 480.50471 70.930946 480.54965 70.61599 480.57422 70.308594 C 480.60068 70.001205 480.60106 69.7029 480.58594 69.410156 C 480.57082 69.117394 480.53376 68.831788 480.48047 68.552734 C 480.42718 68.273692 480.35646 68.000681 480.26953 67.734375 C 480.1826 67.468069 480.08006 67.207619 479.96289 66.953125 C 479.72894 66.444125 479.43863 65.957698 479.10547 65.490234 C 478.77249 65.022756 478.39595 64.574163 477.99219 64.140625 C 477.58842 63.707079 477.15685 63.288039 476.71094 62.880859 C 475.8192 62.066496 474.87186 61.297389 473.98242 60.542969 C 473.25766 59.904312 472.56378 59.267426 471.91211 58.623047 C 471.26041 57.978664 470.65091 57.328038 470.08984 56.666016 C 469.5287 56.003994 469.01743 55.330261 468.56445 54.638672 C 468.33806 54.292883 468.12588 53.941355 467.92969 53.585938 C 467.73353 53.230511 467.55233 52.870449 467.38867 52.503906 C 467.22502 52.137368 467.07803 51.765862 466.94922 51.386719 C 466.82034 51.007579 466.70941 50.621749 466.61719 50.228516 C 466.52497 49.835282 466.45135 49.434215 466.39844 49.025391 C 466.34552 48.616567 466.3125 48.199332 466.30078 47.773438 C 466.28944 47.347549 466.29953 46.913219 466.33203 46.46875 C 466.36227 46.024289 466.41704 45.56998 466.49414 45.105469 C 466.57162 44.640946 466.67335 44.165752 466.79883 43.679688 C 466.92393 43.193629 467.07279 42.696602 467.24805 42.1875 C 467.39734 41.754015 467.56218 41.329613 467.74023 40.916016 C 467.91787 40.502426 468.10968 40.099758 468.31445 39.707031 C 468.72412 38.921566 469.18636 38.178608 469.69531 37.482422 C 470.20426 36.786235 470.75898 36.136274 471.35547 35.537109 C 471.95199 34.937945 472.58942 34.38892 473.26172 33.894531 C 473.93406 33.40015 474.64243 32.959977 475.37891 32.578125 C 476.11535 32.196273 476.88106 31.872898 477.66992 31.611328 C 478.06435 31.480538 478.46382 31.364887 478.86914 31.265625 C 479.27446 31.166363 479.685 31.08434 480.09961 31.017578 C 480.51437 30.950832 480.93468 30.900488 481.35742 30.867188 C 481.78016 30.833852 482.20549 30.817226 482.63477 30.818359 z M 514.58984 42.904297 L 544.94336 56.410156 L 541.10742 65.019531 L 530.87695 60.46875 L 512.11719 102.57812 L 502.22461 98.171875 L 520.98438 56.066406 L 510.75391 51.511719 L 514.58984 42.904297 z M 234.51758 44.724609 L 276.96289 88.222656 L 266.39258 92.925781 L 257.72656 83.966797 L 250.1875 87.322266 L 246.62305 79.236328 L 251.36914 77.123047 L 240.58594 65.539062 L 231.92188 45.878906 L 234.51758 44.724609 z M 229.16406 47.107422 L 237.32031 65.611328 L 239.32227 82.486328 L 243.86523 80.462891 L 247.42969 88.548828 L 240.0918 91.814453 L 240.68359 104.36523 L 230.25195 109.00977 L 226.84375 48.138672 L 229.16406 47.107422 z M 199.79297 62.365234 L 204.92969 70.273438 L 190.90234 79.375 L 197.5625 89.628906 L 210.72461 81.085938 L 215.85938 88.990234 L 202.69922 97.529297 L 216.01953 118.0332 L 206.9375 123.92773 L 176.68164 77.367188 L 199.79297 62.365234 z M 557.82812 64.291016 L 567.20703 69.703125 L 539.43164 117.7832 L 530.05078 112.37109 L 557.82812 64.291016 z M 377.68945 86.105469 C 493.95379 86.105469 593.8908 153.4361 640.77148 251.37109 L 629.53906 251.37109 L 620.79297 246.22852 C 587.24448 215.98689 572.76997 196.91973 537.24805 183.11328 C 482.60742 161.87503 437.26245 203.49464 390.55664 215.98828 C 318.79284 235.18159 252.73382 230.16392 192.21484 190.06055 C 185.71228 185.74979 183.48024 181.5171 178.40234 175.59375 C 166.3603 188.926 155.08975 203.33667 144.96875 218.73438 L 132.92773 218.73438 C 184.79893 138.79278 274.85232 86.105469 377.68945 86.105469 z M 588.49219 86.222656 L 588.49414 86.222656 C 588.92149 86.222314 589.34985 86.239804 589.77734 86.275391 C 590.20553 86.310918 590.63406 86.363811 591.06055 86.435547 C 591.48707 86.507282 591.91098 86.59687 592.33398 86.705078 C 592.75699 86.813286 593.17803 86.940951 593.5957 87.085938 C 594.01342 87.230953 594.42736 87.394078 594.83789 87.576172 C 595.24839 87.75827 595.6551 87.958219 596.05664 88.177734 C 596.45814 88.397249 596.8554 88.635332 597.24609 88.892578 C 597.63678 89.149813 598.02045 89.427381 598.39844 89.722656 C 598.87364 90.093466 599.34848 90.509924 599.81445 90.966797 C 600.28047 91.423662 600.73968 91.92108 601.18555 92.447266 C 601.63138 92.973459 602.06383 93.528667 602.47852 94.107422 C 602.89321 94.686185 603.28952 95.287762 603.66211 95.902344 C 604.05284 96.549274 604.41775 97.213196 604.74805 97.884766 C 605.07838 98.556331 605.37429 99.236498 605.62695 99.916016 C 605.87943 100.59553 606.08826 101.27453 606.24609 101.94531 C 606.40408 102.61609 606.51091 103.27847 606.55664 103.92383 L 597.87305 106.75 C 597.88439 106.31568 597.8801 105.887 597.85742 105.4668 C 597.83474 105.0466 597.79283 104.635 597.73047 104.23047 C 597.66811 103.82595 597.58441 103.43026 597.48047 103.04297 C 597.37653 102.65567 597.25201 102.27671 597.10352 101.9082 C 596.95498 101.5397 596.78367 101.18018 596.58789 100.83203 C 596.39173 100.4839 596.17006 100.14654 595.92383 99.820312 C 595.6774 99.494106 595.40691 99.179697 595.10742 98.876953 C 594.80808 98.574213 594.48062 98.283564 594.125 98.005859 C 593.78371 97.739592 593.41936 97.506618 593.03906 97.308594 C 592.65877 97.110547 592.26124 96.947392 591.85547 96.820312 C 591.44966 96.693212 591.03509 96.602233 590.61719 96.548828 C 590.19929 96.495423 589.77994 96.479011 589.36328 96.501953 C 588.94663 96.525008 588.53289 96.587444 588.13086 96.689453 C 587.72883 96.791425 587.33691 96.933442 586.96289 97.117188 C 586.5891 97.300943 586.23299 97.526693 585.90039 97.794922 C 585.56779 98.063155 585.25834 98.373096 584.98047 98.728516 C 584.80056 98.958802 584.64558 99.193278 584.51367 99.429688 C 584.38177 99.666092 584.27285 99.90582 584.18555 100.14844 C 584.09824 100.39105 584.03244 100.63589 583.98633 100.88477 C 583.94022 101.13365 583.91494 101.38548 583.90625 101.64062 C 583.89113 102.15105 583.94363 102.6748 584.05664 103.21094 C 584.16965 103.74708 584.34128 104.297 584.55664 104.85938 C 584.77207 105.42169 585.03046 105.99682 585.32031 106.58594 C 585.6102 107.17506 585.93086 107.77619 586.26758 108.39258 C 586.94105 109.62535 587.6801 110.91481 588.375 112.25977 C 588.72234 112.93224 589.0579 113.61902 589.36914 114.32031 C 589.68057 115.02161 589.96747 115.73616 590.21484 116.4668 C 590.4624 117.19744 590.67034 117.94268 590.82617 118.70312 C 590.98189 119.46362 591.08639 120.24038 591.12305 121.03125 C 591.14194 121.42668 591.14087 121.82539 591.125 122.22852 C 591.10988 122.63164 591.07276 123.03834 591.01758 123.44922 C 590.9624 123.8601 590.88815 124.27466 590.79102 124.69336 C 590.69388 125.11206 590.57413 125.53631 590.43164 125.96289 C 590.28915 126.38947 590.12319 126.81938 589.93164 127.25391 C 589.7404 127.68844 589.52492 128.12777 589.28125 128.57031 C 589.03747 129.01286 588.76621 129.45758 588.4668 129.9082 C 588.16746 130.35882 587.83915 130.81466 587.48047 131.27344 C 587.05244 131.82096 586.61028 132.34198 586.15625 132.83594 C 585.70225 133.32989 585.23735 133.797 584.75977 134.23633 C 584.28215 134.67565 583.79183 135.08707 583.29297 135.4707 C 582.79415 135.85434 582.28526 136.21022 581.76758 136.53711 C 581.2499 136.864 580.72361 137.16255 580.18945 137.43164 C 579.65529 137.70074 579.11271 137.94015 578.56445 138.15039 C 578.01616 138.36061 577.46239 138.54109 576.90234 138.69141 C 576.34233 138.84172 575.77642 138.96143 575.20703 139.05078 C 574.63765 139.14009 574.06466 139.19924 573.48828 139.22656 C 572.9119 139.25378 572.33298 139.2488 571.75195 139.21289 C 571.171 139.17699 570.58908 139.10966 570.00586 139.00977 C 569.4226 138.90987 568.83896 138.77841 568.25586 138.61328 C 567.67275 138.44819 567.08839 138.25088 566.50781 138.01953 C 565.92716 137.78815 565.34917 137.52329 564.77344 137.22461 C 564.1977 136.92595 563.62516 136.59362 563.05664 136.22656 C 562.48816 135.85953 561.92408 135.45796 561.36523 135.02148 C 560.98804 134.72683 560.6268 134.42299 560.2832 134.11133 C 559.93964 133.79967 559.61349 133.47818 559.30273 133.15039 C 558.99206 132.82259 558.69675 132.48759 558.41797 132.14453 C 558.13904 131.80146 557.87654 131.45119 557.62891 131.09375 C 557.13352 130.37884 556.70032 129.63648 556.32422 128.86914 C 555.94816 128.1018 555.62905 127.30895 555.36523 126.49609 C 555.10142 125.68325 554.89272 124.84951 554.73438 123.99805 C 554.57601 123.14659 554.4683 122.27768 554.4082 121.39453 C 554.34811 120.51138 554.33544 119.61497 554.36719 118.70703 C 554.39742 117.79908 554.47381 116.8809 554.58984 115.95508 L 564.32422 114.90234 C 564.14016 115.43605 563.99128 115.98805 563.87695 116.55078 C 563.76281 117.11352 563.68415 117.68653 563.64258 118.26367 C 563.601 118.84081 563.59609 119.42109 563.63086 119.99805 C 563.66488 120.575 563.73698 121.14877 563.84961 121.71094 C 563.96224 122.2731 564.11647 122.82465 564.31055 123.35742 C 564.50481 123.89019 564.74068 124.4038 565.01953 124.89258 C 565.29846 125.38137 565.61987 125.8452 565.98633 126.27539 C 566.35294 126.70558 566.76368 127.10199 567.2207 127.45898 C 567.65607 127.79903 568.10549 128.07741 568.56641 128.29492 C 569.02728 128.51243 569.49926 128.67062 569.97461 128.77344 C 570.44992 128.87628 570.92956 128.92201 571.4082 128.91797 C 571.88688 128.9142 572.36505 128.85893 572.83594 128.75586 C 573.30683 128.65279 573.77062 128.50286 574.22266 128.30859 C 574.67465 128.11433 575.11505 127.8753 575.53711 127.59766 C 575.95917 127.32001 576.3632 127.00358 576.74414 126.65039 C 577.12512 126.29719 577.48177 125.90723 577.81055 125.48633 C 578.03165 125.20351 578.22622 124.92153 578.39648 124.63867 C 578.56694 124.35581 578.7128 124.07364 578.83594 123.79102 C 578.95915 123.50838 579.06055 123.22547 579.14062 122.94336 C 579.22037 122.66126 579.27987 122.37899 579.32031 122.09766 C 579.36038 121.81631 579.38099 121.53613 579.38477 121.25586 C 579.38855 120.97557 579.37789 120.69496 579.34766 120.41602 C 579.29134 119.85813 579.17342 119.30289 579.00977 118.75195 C 578.84611 118.20103 578.6357 117.65509 578.39453 117.11328 C 578.1534 116.57146 577.88135 116.03442 577.5918 115.50391 C 577.01277 114.44289 576.36668 113.40704 575.77148 112.4043 C 575.36617 111.6911 574.98156 110.98605 574.625 110.28711 C 574.26859 109.58816 573.93945 108.89535 573.64453 108.20703 C 573.34973 107.51872 573.08952 106.83365 572.86914 106.15234 C 572.64879 105.47105 572.46894 104.79315 572.33594 104.11523 C 572.2029 103.43732 572.11687 102.76018 572.08398 102.08203 C 572.04997 101.40389 572.0726 100.72497 572.15234 100.04297 C 572.23285 99.360967 572.37189 98.675808 572.57812 97.986328 C 572.78449 97.296855 573.05701 96.602921 573.40234 95.902344 C 573.64877 95.405313 573.94194 94.90444 574.27344 94.400391 C 574.6049 93.896341 574.97598 93.388191 575.37695 92.876953 C 575.77573 92.36705 576.19574 91.884726 576.63477 91.429688 C 577.0738 90.974647 577.53138 90.547029 578.00586 90.148438 C 578.48034 89.749849 578.97143 89.379613 579.47656 89.039062 C 579.9817 88.698532 580.50034 88.388339 581.03125 88.107422 C 581.56216 87.82649 582.10436 87.575165 582.65625 87.355469 C 583.20814 87.135765 583.7699 86.9479 584.33789 86.791016 C 584.90573 86.634127 585.48126 86.508501 586.06055 86.416016 C 586.63984 86.323531 587.22284 86.264738 587.80859 86.238281 C 588.03585 86.228106 588.26478 86.222686 588.49219 86.222656 z M 161.98633 87.689453 L 196.1875 131.44141 L 187.65234 138.10352 L 153.45312 94.353516 L 161.98633 87.689453 z M 141.55078 103.62891 L 148.10156 110.41211 L 140.04688 118.18359 L 172.08398 151.3418 L 164.29297 158.86133 L 132.25586 125.70508 L 124.20117 133.47656 L 117.64844 126.69922 L 141.55078 103.62891 z M 624.36133 122.93555 C 625.24132 122.93328 626.11806 122.97244 626.99219 123.05469 C 627.86628 123.13685 628.73712 123.2615 629.59961 123.42969 C 630.4621 123.59791 631.31697 123.81042 632.16211 124.06641 C 633.00721 124.32239 633.84205 124.6213 634.66406 124.9668 C 635.48611 125.31228 636.29468 125.70395 637.08789 126.14062 C 637.88106 126.57735 638.65934 127.06017 639.41797 127.58984 C 640.17663 128.11951 640.91635 128.69598 641.63477 129.32031 C 642.35314 129.94465 643.05032 130.61717 643.72266 131.33789 C 644.09343 131.73512 644.44908 132.14291 644.79102 132.5625 C 645.13306 132.9821 645.46049 133.4136 645.77344 133.85352 C 646.08638 134.29343 646.38439 134.74296 646.66797 135.20117 C 646.95143 135.65938 647.22074 136.12516 647.47461 136.59961 C 647.98239 137.54854 648.42938 138.52952 648.81641 139.53125 C 649.20343 140.53298 649.53126 141.5555 649.79492 142.59375 L 640.30859 151.43359 C 640.38796 150.84386 640.43366 150.25084 640.44727 149.66016 C 640.46238 149.06947 640.44474 148.48193 640.39258 147.89648 C 640.34231 147.31103 640.25911 146.72832 640.14648 146.1543 C 640.03385 145.58027 639.89144 145.01344 639.71875 144.45703 C 639.54603 143.90064 639.34245 143.35487 639.11133 142.82227 C 638.88002 142.28966 638.6218 141.77019 638.33398 141.26758 C 638.04636 140.76497 637.72926 140.27893 637.38672 139.8125 C 637.04429 139.34607 636.67475 138.90062 636.2793 138.47656 C 635.83645 138.00202 635.37828 137.5637 634.90625 137.16406 C 634.43422 136.76443 633.94844 136.40157 633.45117 136.07422 C 632.9539 135.74687 632.44437 135.45497 631.92578 135.19727 C 631.40715 134.93958 630.87976 134.71608 630.34375 134.52539 C 629.80778 134.33471 629.26431 134.17707 628.71484 134.05078 C 628.16541 133.92447 627.60977 133.83018 627.05078 133.76562 C 626.49179 133.70112 625.92982 133.66755 625.36523 133.66211 C 624.80069 133.65682 624.23422 133.67922 623.66797 133.73047 C 623.10172 133.78153 622.53468 133.85996 621.9707 133.96484 C 621.40676 134.06973 620.84485 134.20133 620.28711 134.35742 C 619.72933 134.51352 619.17652 134.69376 618.62891 134.89844 C 618.08129 135.1031 617.53942 135.3314 617.00586 135.58203 C 616.47234 135.83265 615.94717 136.10645 615.43164 136.40039 C 614.91611 136.69432 614.40962 137.00913 613.91602 137.34375 C 613.42245 137.67835 612.94233 138.03358 612.47461 138.40625 C 612.00689 138.77891 611.55313 139.16809 611.11523 139.57617 C 610.68758 139.97478 610.27619 140.39223 609.88281 140.82422 C 609.48944 141.2562 609.11238 141.70265 608.75586 142.16406 C 608.39945 142.62549 608.0632 143.10096 607.74609 143.58789 C 607.42899 144.07481 607.1325 144.57352 606.85742 145.08203 C 606.58227 145.59054 606.32817 146.10859 606.09766 146.63477 C 605.86711 147.16093 605.65972 147.69644 605.47656 148.23633 C 605.29326 148.77623 605.13376 149.3214 605 149.87109 C 604.86658 150.42079 604.75862 150.97373 604.67773 151.5293 C 604.59647 152.08486 604.5417 152.64368 604.51562 153.20117 C 604.48922 153.75868 604.4932 154.31557 604.52344 154.87109 C 604.55367 155.42662 604.61361 155.97967 604.70508 156.5293 C 604.79616 157.07891 604.91844 157.62429 605.07227 158.16406 C 605.22609 158.70384 605.41184 159.23967 605.63086 159.76562 C 605.85007 160.29163 606.10381 160.8081 606.39062 161.31641 C 606.67749 161.82472 606.99823 162.32386 607.35547 162.81055 C 607.71263 163.29723 608.10493 163.77129 608.53516 164.23242 C 608.93061 164.65648 609.35577 165.05591 609.80273 165.42773 C 610.24966 165.79956 610.71889 166.1442 611.20898 166.46289 C 611.69908 166.78158 612.20947 167.07322 612.73438 167.33789 C 613.25923 167.60257 613.79825 167.84104 614.34961 168.05078 C 614.901 168.26055 615.4637 168.44178 616.0332 168.5957 C 616.6027 168.74961 617.18048 168.87545 617.75977 168.97266 C 618.33905 169.06987 618.92119 169.13816 619.50195 169.17773 C 620.08272 169.21734 620.66049 169.22815 621.23438 169.20898 L 611.80664 177.99609 C 610.76546 177.5819 609.74826 177.14405 608.75977 176.67188 C 607.77127 176.19967 606.81187 175.69234 605.88672 175.13281 C 605.42414 174.85305 604.97013 174.561 604.52539 174.25391 C 604.08065 173.94682 603.64432 173.62519 603.21875 173.28711 C 602.79318 172.94903 602.37771 172.59343 601.97266 172.2207 C 601.56757 171.84797 601.17426 171.45787 600.79102 171.04688 C 600.12518 170.33328 599.50748 169.59487 598.93945 168.83594 C 598.37143 168.077 597.85273 167.29578 597.38086 166.49805 C 596.90902 165.70032 596.48477 164.88662 596.10742 164.05664 C 595.72985 163.22667 595.39972 162.38106 595.11523 161.52539 C 594.83064 160.66972 594.59176 159.80254 594.39844 158.92773 C 594.20493 158.05294 594.0568 157.1706 593.95312 156.2832 C 593.84924 155.3958 593.78931 154.50477 593.77344 153.61133 C 593.75832 152.71789 593.78441 151.82261 593.85547 150.92969 C 593.92577 150.03676 594.04035 149.14564 594.19531 148.25977 C 594.35027 147.3739 594.54547 146.49335 594.7832 145.62109 C 595.02094 144.74884 595.30011 143.8853 595.61914 143.0332 C 595.93813 142.1811 596.29669 141.33906 596.69531 140.51367 C 597.0939 139.68829 597.53324 138.87806 598.00977 138.08594 C 598.48633 137.29381 599.00189 136.52185 599.55469 135.76953 C 600.10752 135.01722 600.69678 134.28603 601.32422 133.58008 C 601.95162 132.87412 602.61602 132.19211 603.31641 131.53906 C 604.05961 130.84649 604.82951 130.19364 605.62109 129.58008 C 606.41268 128.96652 607.22551 128.3918 608.05859 127.85938 C 608.89168 127.3269 609.7437 126.83603 610.61133 126.38672 C 611.47896 125.93741 612.36252 125.53009 613.25781 125.16602 C 614.15311 124.80193 615.06056 124.48182 615.97656 124.20508 C 616.89261 123.92834 617.81821 123.69515 618.74805 123.50781 C 619.67792 123.32046 620.61203 123.1779 621.54883 123.08203 C 622.48562 122.98618 623.4245 122.93785 624.36133 122.93555 z M 105.98633 138.97461 L 150.63086 173.83594 L 145.82227 179.98633 L 97.220703 179.13086 L 97.128906 179.24805 L 126.85352 202.45703 L 120.18555 211.19922 L 75.25 175.90039 L 80.058594 169.75 L 128.66211 170.60352 L 128.75195 170.48828 L 99.316406 147.50391 L 105.98633 138.97461 z M 666.40039 158.7793 L 672.13672 167.96094 L 653.58008 179.54883 L 664.19922 196.53516 L 682.75781 184.94336 L 688.49805 194.125 L 641.38477 223.54492 L 635.64844 214.36523 L 656.61133 201.07422 L 646.08398 184.23047 L 625.02734 197.38086 L 619.28906 188.20117 L 666.40039 158.7793 z M 55.669922 211.54688 L 116.04492 218.6543 L 110.79297 228.95703 L 98.416016 227.44531 L 94.478516 235.16992 L 86.673828 231.01562 L 89.166016 226.125 L 73.257812 223.87109 L 54.484375 213.875 L 55.669922 211.54688 z M 698.99219 212.32617 L 710.67969 238.56055 L 702.0625 242.39258 L 694.7832 226.04883 L 683.61133 231.01758 L 690.62109 246.75977 L 682.00781 250.59375 L 674.99414 234.85352 L 661.26562 240.96289 L 668.54688 257.30859 L 659.92969 261.14062 L 648.24414 234.90625 L 698.99219 212.32617 z M 53.113281 216.56445 L 71.164062 226.17578 L 83.181641 237.86914 L 85.304688 233.70508 L 93.107422 237.85938 L 89.654297 244.63477 L 98.017578 254.01758 L 92.833984 264.18945 L 51.857422 219.02734 L 53.113281 216.56445 z M 127.06445 228.16602 L 139 228.16602 C 116.3475 265.26508 100.45439 307.70567 96.236328 354.31445 C 96.050035 356.37201 96.556937 357.53365 96.892578 359.57227 C 111.36532 371.40636 215.5889 469.18027 360.96484 417.24219 C 375.08208 412.19884 388.06815 409.73478 400.35742 409.33008 L 400.35742 419.62695 C 375.3063 420.97707 352.64121 433.75533 322.15625 438.93945 C 230.49101 454.52948 163.31861 426.70796 96.892578 371.74414 C 96.887521 378.14084 97.209957 381.77593 98.208984 388.09375 C 99.141224 393.98686 100.31406 398.63758 101.80859 402.99219 L 87.265625 402.99219 C 86.543042 394.58862 86.152344 386.0873 86.152344 377.49023 C 86.152344 322.82773 101.07526 271.7863 127.06445 228.16602 z M 629.08008 260.80273 L 645.06445 260.80273 C 660.6067 296.49825 669.23633 335.94659 669.23633 377.49023 C 669.23633 501.56927 592.41835 607.03246 483.5293 649.20117 L 483.5293 640.58594 L 493.8457 634.85742 L 629.08008 260.80273 z M 409.78906 409.42383 C 444.52394 411.26201 474.29734 429.4146 509.63281 451.42969 C 517.87388 456.56504 517.36937 456.48439 522.13086 459.97656 L 459.63672 649.32227 L 474.09766 645.27734 L 474.09766 652.6582 C 443.94268 663.1489 411.5113 668.86523 377.68945 668.86523 C 371.03576 668.86523 364.43825 668.63337 357.89844 668.19922 L 357.89844 659.9043 C 360.65597 660.07563 362.80992 660.04081 366.0332 659.9082 L 448.45508 432.36133 C 442.7842 429.10462 439.40873 427.53432 433.32422 425.13281 C 425.00748 421.85213 417.24835 420.20615 409.78906 419.69336 L 409.78906 409.42383 z M 88.226562 412.42383 L 105.65234 412.42383 C 107.42003 416.28955 109.46197 420.41952 111.89453 425.50391 C 145.67227 496.08938 235.98234 528.35244 305.05273 515.86133 C 337.47655 509.99728 348.46666 517.83366 372.80469 527.03711 L 379.38477 531.63867 L 337.39453 655.78906 C 341.68085 657.27836 344.8945 658.18804 348.4668 658.82227 L 348.4668 667.41992 C 212.30075 653.99433 104.26166 547.71463 88.226562 412.42383 z M 529.78125 646.10742 L 555.50195 696.56055 L 548.54297 700.10352 L 504.85547 678.79883 L 504.72461 678.86523 L 521.84766 712.45703 L 512.19922 717.37109 L 486.31055 666.58984 L 493.26953 663.04883 L 536.95703 684.35156 L 537.08984 684.28516 L 520.13086 651.01953 L 529.78125 646.10742 z M 246.33008 650.96875 L 248.75977 651.99805 L 240.71289 670.33789 L 229.70898 683.51172 L 234.11133 685.37891 L 230.55859 693.47266 L 223.40625 690.4375 L 214.625 699.42969 L 204.11328 694.9707 L 246.33008 650.96875 z M 251.53906 653.17773 L 254.0625 654.24805 L 251.17773 714.9375 L 240.53125 710.42188 L 241.17383 697.97656 L 233.33789 694.65039 L 236.88867 686.55859 L 241.84766 688.66211 L 242.98438 672.66992 L 251.53906 653.17773 z M 287.27148 669.01758 L 297.82422 671.45312 L 292.55469 694.26758 L 292.69727 694.30273 L 314.69336 675.3457 L 327.6875 678.34375 L 301.39062 698.57422 L 316.3418 732.70703 L 302.77344 729.57422 L 291.08984 701.26172 L 290.94727 701.22852 L 285.32812 725.54883 L 274.77539 723.11328 L 287.27148 669.01758 z M 453.37305 676.45703 C 453.60322 676.45703 453.83369 676.46119 454.0625 676.46875 C 454.97775 676.49521 455.88076 676.56844 456.77148 676.6875 C 457.66221 676.80656 458.54016 676.97054 459.40234 677.17773 C 460.26457 677.38485 461.11161 677.63495 461.94141 677.92578 C 462.7712 678.2168 463.58359 678.54788 464.37695 678.91797 C 465.17035 679.28798 465.94419 679.69761 466.69727 680.14258 C 467.4503 680.5875 468.1819 681.06861 468.89062 681.58398 C 469.5994 682.09932 470.28476 682.64914 470.94531 683.23047 C 471.60586 683.8118 472.24122 684.42546 472.84961 685.06836 C 473.45796 685.71126 474.03953 686.38398 474.5918 687.08398 C 475.14402 687.78399 475.66795 688.51094 476.16016 689.26367 C 476.65233 690.01636 477.11287 690.79475 477.54102 691.5957 C 477.96916 692.3967 478.36438 693.21965 478.72461 694.06445 C 479.0848 694.90929 479.41095 695.7759 479.69922 696.66016 C 479.9876 697.54438 480.23876 698.44602 480.45117 699.36523 C 480.66774 700.30335 480.84199 701.24185 480.97461 702.17773 C 481.10727 703.11366 481.19778 704.0482 481.24805 704.97656 C 481.29831 705.90489 481.30916 706.82667 481.2793 707.74219 C 481.24906 708.65766 481.17759 709.56556 481.06836 710.46289 C 480.95913 711.36019 480.81141 712.24723 480.625 713.12109 C 480.43867 713.99496 480.21321 714.85611 479.95117 715.70117 C 479.68925 716.54624 479.39065 717.37457 479.05469 718.18555 C 478.71869 718.99652 478.34569 719.79087 477.9375 720.5625 C 477.52927 721.33405 477.08621 722.08367 476.60742 722.81055 C 476.12867 723.53743 475.6141 724.24109 475.06641 724.91797 C 474.51871 725.59484 473.93719 726.24561 473.32227 726.86719 C 472.70734 727.48873 472.05937 728.08162 471.37891 728.64258 C 470.6984 729.2035 469.98457 729.73156 469.24023 730.22656 C 468.49586 730.72157 467.72065 731.18171 466.91406 731.60547 C 466.10747 732.02923 465.26948 732.41645 464.40234 732.76367 C 463.53521 733.11101 462.63891 733.41823 461.71289 733.68359 L 459.2793 723.26172 C 459.78069 723.07803 460.26541 722.86203 460.73438 722.61719 C 461.20333 722.37227 461.65598 722.09919 462.0918 721.79883 C 462.52761 721.49836 462.94582 721.17056 463.34766 720.82031 C 463.7495 720.46995 464.13489 720.09763 464.50195 719.70312 C 464.86895 719.30871 465.21932 718.89204 465.55078 718.45898 C 465.88225 718.02596 466.19505 717.57527 466.49023 717.10938 C 466.78542 716.64343 467.06228 716.16307 467.32031 715.66992 C 467.57845 715.17673 467.81699 714.67098 468.03711 714.15625 C 468.25708 713.64148 468.4593 713.11662 468.64062 712.58594 C 468.82204 712.05529 468.98304 711.51944 469.125 710.97852 C 469.26673 710.43759 469.39052 709.89316 469.49219 709.34766 C 469.59386 708.80216 469.6739 708.25534 469.73438 707.71094 C 469.7948 707.1665 469.83462 706.62361 469.85352 706.08594 C 469.87241 705.54822 469.86838 705.01548 469.8457 704.49023 C 469.82303 703.96492 469.77626 703.4467 469.70898 702.93945 C 469.64171 702.43224 469.55328 701.9366 469.44141 701.45312 C 469.32122 700.93315 469.1773 700.41812 469.01172 699.91016 C 468.84618 699.40219 468.65777 698.90075 468.44922 698.4082 C 468.24059 697.91562 468.01083 697.43091 467.76172 696.95703 C 467.51265 696.48319 467.24405 696.02016 466.95703 695.56836 C 466.67017 695.11655 466.3654 694.67641 466.04297 694.25 C 465.72058 693.82356 465.38067 693.41135 465.02539 693.01367 C 464.67012 692.61595 464.29973 692.23286 463.91406 691.86719 C 463.5284 691.50171 463.12836 691.15256 462.71484 690.82227 C 462.30136 690.49193 461.87439 690.18026 461.43555 689.88867 C 460.99671 689.59727 460.54565 689.3257 460.08398 689.07617 C 459.62232 688.82672 459.14993 688.5987 458.66797 688.39453 C 458.18604 688.19044 457.69504 688.00897 457.19531 687.85352 C 456.69558 687.69818 456.18682 687.56848 455.67188 687.46484 C 455.15688 687.36128 454.63516 687.28433 454.10742 687.23633 C 453.57969 687.18833 453.04579 687.1691 452.50781 687.17969 C 451.96987 687.19103 451.42651 687.23212 450.88086 687.30469 L 448.45117 676.89648 C 449.40369 676.72452 450.34931 676.60388 451.28516 676.5332 C 451.98705 676.48029 452.68245 676.45514 453.37305 676.45703 z M 445.51367 677.58984 L 447.94336 687.99609 C 447.43101 688.17638 446.93575 688.38415 446.45703 688.61523 C 445.97832 688.84616 445.51647 689.10092 445.07227 689.37891 C 444.62794 689.6567 444.20011 689.95845 443.79102 690.2793 C 443.38192 690.60018 442.9903 690.94105 442.61719 691.30078 C 442.24415 691.66059 441.88911 692.03897 441.55273 692.43359 C 441.21636 692.82825 440.89846 693.23853 440.59961 693.66406 C 440.30065 694.08964 440.02228 694.52994 439.76172 694.98242 C 439.50131 695.43491 439.25863 695.89957 439.03711 696.375 C 438.81563 696.85043 438.61332 697.33572 438.43164 697.83008 C 438.24985 698.32448 438.09035 698.82856 437.94922 699.33789 C 437.80824 699.84722 437.68729 700.36256 437.58789 700.88281 C 437.48811 701.4031 437.40901 701.92787 437.35156 702.45508 C 437.29411 702.98232 437.25888 703.51278 437.24414 704.04297 C 437.22902 704.57316 437.23544 705.10364 437.26562 705.63281 C 437.29586 706.16198 437.34622 706.68875 437.41992 707.21289 C 437.49362 707.73707 437.59031 708.25829 437.70898 708.77344 C 437.82048 709.25563 437.95798 709.74045 438.11914 710.22461 C 438.28053 710.70877 438.46584 711.19243 438.67383 711.67383 C 438.8817 712.15526 439.11164 712.63343 439.36328 713.10742 C 439.615 713.58137 439.88772 714.05185 440.17969 714.51367 C 440.47147 714.97549 440.78408 715.42812 441.11328 715.87305 C 441.44248 716.31801 441.78909 716.75435 442.15234 717.17773 C 442.51556 717.60112 442.89493 718.01308 443.28906 718.41016 C 443.68319 718.80727 444.0918 719.1886 444.51367 719.55469 C 444.93547 719.92092 445.37001 720.27119 445.81641 720.60156 C 446.26277 720.93189 446.72166 721.2432 447.18945 721.5332 C 447.65725 721.82309 448.13508 722.0911 448.62109 722.33594 C 449.1071 722.58085 449.60051 722.80302 450.10156 722.99805 C 450.60265 723.19307 451.11009 723.36158 451.62305 723.50195 C 452.13604 723.64255 452.65406 723.75468 453.17578 723.83594 C 453.69751 723.9172 454.22272 723.96699 454.75 723.98438 C 455.27728 724.00322 455.80819 723.9877 456.33789 723.93555 L 458.77148 734.36133 C 457.82324 734.52763 456.88237 734.64366 455.95117 734.71094 C 455.01997 734.77821 454.09784 734.7975 453.1875 734.76953 C 452.27716 734.74307 451.37984 734.66626 450.49414 734.54688 C 449.60848 734.42782 448.73607 734.26503 447.87891 734.05859 C 447.02175 733.85223 446.18031 733.60393 445.35547 733.31445 C 444.53066 733.02494 443.72227 732.6928 442.93359 732.32422 C 442.14496 731.95571 441.37564 731.54911 440.62695 731.10547 C 439.8783 730.66183 439.15016 730.18263 438.44531 729.66797 C 437.74043 729.15331 437.05761 728.60315 436.40039 728.02148 C 435.74317 727.43982 435.1116 726.82628 434.50586 726.18164 C 433.90008 725.537 433.32002 724.86176 432.76953 724.1582 C 432.21908 723.45464 431.69841 722.72332 431.20703 721.96484 C 430.71565 721.20637 430.25458 720.42068 429.82617 719.61133 C 429.39772 718.80198 429.00229 717.96754 428.64062 717.11133 C 428.27897 716.25515 427.95122 715.37751 427.66016 714.47852 C 427.36913 713.57952 427.11313 712.66043 426.89648 711.72266 C 426.68559 710.80941 426.51706 709.89354 426.38867 708.97852 C 426.26017 708.06349 426.17224 707.14949 426.125 706.23828 C 426.07738 705.32704 426.07139 704.4175 426.10352 703.51562 C 426.13375 702.61388 426.20522 701.71886 426.31445 700.83203 C 426.42406 699.9452 426.5722 699.06736 426.75781 698.20117 C 426.94339 697.33494 427.16751 696.48063 427.42773 695.64062 C 427.68777 694.80064 427.98516 693.97423 428.31836 693.16602 C 428.65171 692.3578 429.01919 691.56762 429.42383 690.79688 C 429.82843 690.02604 430.26966 689.27465 430.74414 688.54688 C 431.21866 687.81905 431.72675 687.11473 432.26953 686.43555 C 432.81223 685.75629 433.38856 685.10354 433.99805 684.47852 C 434.60753 683.85353 435.25117 683.2566 435.92578 682.69141 C 436.60039 682.12622 437.30674 681.59156 438.04492 681.0918 C 438.7831 680.59199 439.55335 680.12605 440.35352 679.69727 C 441.15364 679.26848 441.98323 678.87757 442.84375 678.52539 C 443.70431 678.17314 444.5943 677.85982 445.51367 677.58984 z M 342.4668 680.97461 L 375.51172 684.44727 L 374.52539 693.82031 L 363.38867 692.65039 L 358.56836 738.49219 L 347.79688 737.36133 L 352.61914 691.51953 L 341.48047 690.34961 L 342.4668 680.97461 z M 405.18164 684.17773 L 406.15234 739.6875 L 395.32422 739.87891 L 394.35547 684.36523 L 405.18164 684.17773 z "
       transform="scale(0.26458333)" />
  </g>
</svg>
