<?xml version="1.0" encoding="UTF-8" standalone="no"?>
<svg
   xmlns:dc="http://purl.org/dc/elements/1.1/"
   xmlns:cc="http://creativecommons.org/ns#"
   xmlns:rdf="http://www.w3.org/1999/02/22-rdf-syntax-ns#"
   xmlns:svg="http://www.w3.org/2000/svg"
   xmlns="http://www.w3.org/2000/svg"
   xmlns:sodipodi="http://sodipodi.sourceforge.net/DTD/sodipodi-0.dtd"
   xmlns:inkscape="http://www.inkscape.org/namespaces/inkscape"
   width="100mm"
   height="100mm"
   viewBox="0 0 100 100"
   version="1.1"
   id="svg8"
   inkscape:version="1.0.1 (3bc2e813f5, 2020-09-07, custom)"
   sodipodi:docname="logo.svg"
   inkscape:export-filename="/home/olel/Dokumente/Projekte/antifalampe/mini/software/AntifaLampeMini/data/static/image/logo320x320.png"
   inkscape:export-xdpi="81.279999"
   inkscape:export-ydpi="81.279999">
  <defs
     id="defs2">
    <filter
       inkscape:collect="always"
       style="color-interpolation-filters:sRGB"
       id="filter1390"
       x="-0.03745142"
       width="1.0749028"
       y="-0.03747226"
       height="1.0749445">
      <feGaussianBlur
         inkscape:collect="always"
         stdDeviation="1.4030256"
         id="feGaussianBlur1392" />
    </filter>
  </defs>
  <sodipodi:namedview
     id="base"
     pagecolor="#ffffff"
     bordercolor="#666666"
     borderopacity="1.0"
     inkscape:pageopacity="0.0"
     inkscape:pageshadow="2"
     inkscape:zoom="2.5943218"
     inkscape:cx="148.7646"
     inkscape:cy="212.61084"
     inkscape:document-units="mm"
     inkscape:current-layer="layer1"
     inkscape:document-rotation="0"
     showgrid="false"
     inkscape:window-width="1920"
     inkscape:window-height="1004"
     inkscape:window-x="0"
     inkscape:window-y="0"
     inkscape:window-maximized="1" />
  <metadata
     id="metadata5">
    <rdf:RDF>
      <cc:Work
         rdf:about="">
        <dc:format>image/svg+xml</dc:format>
        <dc:type
           rdf:resource="http://purl.org/dc/dcmitype/StillImage" />
        <dc:title></dc:title>
      </cc:Work>
    </rdf:RDF>
  </metadata>
  <g
     inkscape:label="Ebene 1"
     inkscape:groupmode="layer"
     id="layer1">
    <rect
       style="fill:#291e36;stroke-width:0.343958;stroke-linecap:round;stroke-linejoin:round;paint-order:stroke fill markers;fill-opacity:1"
       id="rect833"
       width="100"
       height="100"
       x="0.30729815"
       y="-0.17463174" />
    <path
       id="path20"
       style="color:#000000;font-style:normal;font-variant:normal;font-weight:normal;font-stretch:normal;font-size:medium;line-height:normal;font-family:'Bitstream Vera Sans';-inkscape-font-specification:'Bitstream Vera Sans';text-indent:0;text-align:start;text-decoration:none;text-decoration-line:none;letter-spacing:normal;word-spacing:normal;text-transform:none;writing-mode:lr-tb;direction:ltr;text-anchor:start;display:inline;overflow:visible;visibility:visible;fill:#ff08e7;fill-opacity:1;stroke:#000000;stroke-width:0.0898848;stroke-miterlimit:4;stroke-dasharray:none;stroke-opacity:1;marker:none;enable-background:accumulate;font-variation-settings:normal;opacity:1;vector-effect:none;stroke-linecap:butt;stroke-linejoin:miter;stroke-dashoffset:0;stop-color:#000000;stop-opacity:1;filter:url(#filter1390)"
       d="m 49.999416,5.0449424 c -24.767124,0 -44.9544736,20.1769116 -44.9544736,44.9306376 0,24.753611 20.1873656,44.929476 44.9544736,44.929476 24.767466,0 44.955642,-20.175869 44.955642,-44.929476 0,-24.753719 -20.188154,-44.9306376 -44.955642,-44.9306376 z m 0.248293,1.785991 1.287079,0.08982 -0.18174,2.599051 2.381718,0.166616 0.181968,-2.599054 1.287084,0.08982 -0.461684,6.5985086 -1.287312,-0.08982 0.206175,-2.949271 -2.38125,-0.166614 -0.206641,2.949269 -1.287311,-0.08982 z m -3.856352,0.0512 c 0.09652,9.91e-4 0.192838,0.0066 0.288552,0.01675 0.09572,0.01016 0.190868,0.02501 0.285061,0.04398 0.09419,0.01898 0.187305,0.04218 0.279244,0.06958 0.09194,0.0274 0.182619,0.05901 0.271565,0.09447 l 0.188488,1.532812 c -0.05135,-0.04897 -0.105223,-0.09483 -0.161262,-0.137528 -0.05604,-0.04269 -0.114287,-0.08207 -0.174294,-0.118208 -0.06002,-0.03615 -0.121744,-0.06907 -0.185,-0.09843 -0.06325,-0.02937 -0.12807,-0.05518 -0.193841,-0.07749 -0.06576,-0.02231 -0.132571,-0.04107 -0.200125,-0.05608 -0.06755,-0.01502 -0.135696,-0.02651 -0.204313,-0.03397 -0.06862,-0.0075 -0.137689,-0.01106 -0.20664,-0.01067 -0.06895,3.59e-4 -0.137847,0.0049 -0.206407,0.01327 -0.0768,0.0094 -0.151091,0.023 -0.222698,0.04049 -0.07161,0.01749 -0.140469,0.03878 -0.206872,0.06376 -0.06641,0.02498 -0.130337,0.05349 -0.191514,0.0854 -0.06117,0.03191 -0.119764,0.06713 -0.175692,0.105414 -0.05593,0.03829 -0.109195,0.07972 -0.159867,0.123802 -0.05066,0.04409 -0.09866,0.09099 -0.144042,0.14032 -0.04537,0.04933 -0.08792,0.101199 -0.12798,0.155213 -0.04006,0.05401 -0.07766,0.11012 -0.112397,0.168244 -0.03473,0.05813 -0.06673,0.118208 -0.09611,0.179879 -0.02938,0.06168 -0.05604,0.124984 -0.08005,0.189652 -0.024,0.06466 -0.04538,0.130707 -0.06399,0.197797 -0.01862,0.06709 -0.03451,0.135131 -0.0477,0.204079 -0.0132,0.06895 -0.02366,0.138721 -0.03141,0.208968 -0.0077,0.07025 -0.01286,0.1410106 -0.01512,0.2119906 -0.0023,0.07099 -0.0018,0.142238 0.0014,0.213388 0.0032,0.07115 0.009,0.142167 0.01768,0.212923 0.0085,0.06911 0.01985,0.138026 0.03398,0.206174 0.01413,0.06814 0.03095,0.135558 0.05049,0.202218 0.01954,0.06667 0.04178,0.132451 0.06655,0.197099 0.02476,0.06465 0.05212,0.128238 0.08191,0.190352 0.02979,0.06211 0.06196,0.122683 0.09657,0.18174 0.03461,0.05905 0.07154,0.116498 0.110764,0.171966 0.03924,0.05548 0.08083,0.108965 0.124496,0.160333 0.04366,0.05136 0.08941,0.100567 0.137294,0.147299 0.04789,0.04674 0.09793,0.09106 0.149861,0.132641 0.05192,0.04158 0.105737,0.08045 0.161496,0.116357 0.05575,0.03591 0.113503,0.06897 0.172898,0.09867 0.05939,0.0297 0.120536,0.05615 0.18337,0.07912 0.06283,0.02297 0.127311,0.04245 0.193375,0.05818 0.06607,0.01572 0.133574,0.02766 0.202685,0.0356 0.06911,0.008 0.139804,0.0117 0.211759,0.01144 0.07196,-3.58e-4 0.145298,-0.0048 0.219904,-0.01396 0.06861,-0.0084 0.136681,-0.02138 0.203848,-0.03839 0.06717,-0.01702 0.133436,-0.03817 0.198496,-0.06306 0.06506,-0.02489 0.128766,-0.05361 0.191048,-0.08563 0.06228,-0.03203 0.123146,-0.06723 0.181975,-0.105647 0.05883,-0.03842 0.115843,-0.07995 0.170571,-0.124033 0.05472,-0.04407 0.107138,-0.09085 0.157074,-0.139853 0.04994,-0.049 0.09723,-0.100169 0.141717,-0.15335 0.04449,-0.05319 0.08612,-0.10836 0.124495,-0.164987 l 0.187326,1.523968 c -0.11286,0.07126 -0.226099,0.138683 -0.340909,0.200822 -0.114815,0.06214 -0.231201,0.118774 -0.349986,0.16871 -0.05939,0.02497 -0.119353,0.04824 -0.180112,0.06958 -0.06076,0.02134 -0.122143,0.04086 -0.184533,0.05818 -0.0624,0.01732 -0.125859,0.03245 -0.190119,0.04537 -0.06427,0.01292 -0.129538,0.02352 -0.195935,0.03164 -0.11547,0.01417 -0.22978,0.02193 -0.342771,0.0235 -0.112989,0.0015 -0.224628,-0.0028 -0.334628,-0.01326 -0.109993,-0.01042 -0.218363,-0.02686 -0.324853,-0.04864 -0.106482,-0.02178 -0.210987,-0.04892 -0.31345,-0.08145 -0.102459,-0.03252 -0.20273,-0.07021 -0.300653,-0.11286 -0.09792,-0.04265 -0.193594,-0.09026 -0.286456,-0.142415 -0.09287,-0.05215 -0.183111,-0.109066 -0.270402,-0.170105 -0.08729,-0.06105 -0.171514,-0.126154 -0.252715,-0.19547 -0.08121,-0.06931 -0.159273,-0.14271 -0.233866,-0.219671 -0.0746,-0.07696 -0.145683,-0.157551 -0.213156,-0.241546 -0.06748,-0.084 -0.131449,-0.171381 -0.191281,-0.261789 -0.05984,-0.09041 -0.115637,-0.183972 -0.167314,-0.280174 -0.05167,-0.0962 -0.09918,-0.195083 -0.142182,-0.296463 -0.04301,-0.101379 -0.08137,-0.205185 -0.115187,-0.311123 -0.03381,-0.10593 -0.06292,-0.214047 -0.08703,-0.323921 -0.02412,-0.109876 -0.04334,-0.22143 -0.05724,-0.334627 -0.01432,-0.11646 -0.0235,-0.232703 -0.02746,-0.348354 -0.004,-0.11565 -0.0026,-0.230764 0.0035,-0.344865 0.0062,-0.114107 0.01729,-0.2272346 0.03328,-0.3390476 0.01598,-0.111818 0.0368,-0.222351 0.06237,-0.331135 0.02556,-0.108784 0.05586,-0.215879 0.09076,-0.320896 0.0349,-0.105018 0.07426,-0.207821 0.118209,-0.308332 0.04395,-0.100517 0.09246,-0.198639 0.145207,-0.293902 0.05275,-0.09527 0.109736,-0.187871 0.171036,-0.277149 0.0613,-0.08928 0.12681,-0.17528 0.196401,-0.257835 0.06958,-0.08256 0.143221,-0.161567 0.220835,-0.236658 0.07762,-0.07509 0.159187,-0.146268 0.24457,-0.213156 0.08538,-0.06688 0.174722,-0.12938 0.267609,-0.187325 0.09289,-0.05795 0.189342,-0.111368 0.289482,-0.159633 0.100144,-0.04827 0.203993,-0.09154 0.311124,-0.129384 0.107138,-0.03784 0.21774,-0.07012 0.331601,-0.0968 0.113863,-0.02668 0.231044,-0.04758 0.351382,-0.06237 0.06428,-0.0078 0.128716,-0.01368 0.193145,-0.01722 0.06443,-0.0035 0.1288,-0.0049 0.193142,-0.0042 z m 11.053854,0.681585 1.270327,0.224093 -1.149319,6.5142686 -1.27033,-0.224091 z m -17.936506,0.563373 c 0.109067,9.9e-4 0.219451,0.0077 0.32881,0.02025 0.109363,0.01247 0.217691,0.0309 0.322292,0.05539 0.104606,0.02448 0.20563,0.05498 0.30042,0.09192 0.04739,0.01848 0.09331,0.0386 0.137294,0.06028 0.044,0.02168 0.08592,0.04487 0.125897,0.06981 l -0.329041,1.026218 c -0.04104,-0.03159 -0.08257,-0.06106 -0.124727,-0.0882 -0.04216,-0.02713 -0.0851,-0.05193 -0.128456,-0.07424 -0.04334,-0.02229 -0.08712,-0.04203 -0.13171,-0.0591 -0.04459,-0.01707 -0.08978,-0.03158 -0.135667,-0.04304 -0.04589,-0.01144 -0.09261,-0.02012 -0.139852,-0.0256 -0.04725,-0.0055 -0.09514,-0.0076 -0.143811,-0.0068 -0.04866,9e-4 -0.0981,0.0049 -0.148233,0.0126 -0.05013,0.0077 -0.100993,0.01894 -0.152651,0.03374 -0.04957,0.01425 -0.09759,0.03309 -0.143346,0.05608 -0.04576,0.02299 -0.08934,0.04994 -0.130082,0.08051 -0.04074,0.03057 -0.07858,0.0647 -0.113092,0.101687 -0.03451,0.037 -0.06555,0.07689 -0.09261,0.119147 -0.02708,0.04226 -0.05023,0.08698 -0.06864,0.133339 -0.01841,0.04636 -0.03217,0.0945 -0.04072,0.14381 -0.0085,0.04931 -0.01183,0.09971 -0.0093,0.150791 0.0026,0.05108 0.0108,0.1028186 0.0256,0.1545146 0.0095,0.03347 0.02134,0.06475 0.03491,0.09401 0.01356,0.02926 0.02902,0.05652 0.04631,0.08191 0.01729,0.02539 0.03646,0.04887 0.05724,0.07074 0.02078,0.02187 0.04322,0.04206 0.06725,0.06074 0.04806,0.03735 0.102317,0.06877 0.161962,0.09541 0.05964,0.02663 0.124727,0.04864 0.194073,0.06726 0.06935,0.0186 0.142982,0.03371 0.220138,0.04701 0.07715,0.01329 0.15778,0.0247 0.240846,0.03537 0.166145,0.02135 0.342085,0.0401 0.520557,0.06725 0.08922,0.01358 0.179059,0.02933 0.26854,0.04841 0.08949,0.01908 0.178843,0.04159 0.266676,0.06887 0.08784,0.02728 0.174236,0.0593 0.258534,0.09751 0.08429,0.0382 0.166397,0.08244 0.245268,0.13427 0.03943,0.02591 0.07817,0.05372 0.115882,0.08355 0.03772,0.02983 0.07452,0.0618 0.110301,0.09588 0.03578,0.03407 0.07043,0.07024 0.104014,0.1089 0.0336,0.03866 0.0661,0.07974 0.09727,0.123339 0.03118,0.04359 0.06107,0.08983 0.08959,0.13869 0.02852,0.04886 0.0556,0.100286 0.08122,0.154747 0.02562,0.05446 0.04964,0.111806 0.07214,0.172201 0.02249,0.0604 0.04347,0.123903 0.0626,0.190583 0.02309,0.08046 0.04267,0.160397 0.05864,0.23945 0.01597,0.07906 0.02832,0.157191 0.03723,0.234564 0.0089,0.07737 0.01417,0.153795 0.01606,0.229212 0.0019,0.07542 3.57e-4,0.149975 -0.0046,0.223161 -0.005,0.07318 -0.01365,0.145035 -0.0256,0.215716 -0.01196,0.07068 -0.0273,0.140133 -0.04608,0.208035 -0.01877,0.0679 -0.04077,0.134345 -0.06632,0.199194 -0.02555,0.06485 -0.05454,0.128133 -0.0868,0.189652 -0.03151,0.06007 -0.06627,0.118311 -0.104246,0.174759 -0.03799,0.05644 -0.0792,0.11106 -0.123557,0.163591 -0.04437,0.05253 -0.09202,0.10292 -0.142647,0.151255 -0.05063,0.04834 -0.104246,0.0946 -0.161031,0.138459 -0.05679,0.04386 -0.116588,0.08542 -0.179413,0.124495 -0.06283,0.03907 -0.128798,0.07559 -0.197566,0.109607 -0.06877,0.03402 -0.140426,0.06558 -0.215018,0.09424 -0.0746,0.02867 -0.152161,0.05446 -0.23247,0.07749 -0.05485,0.01572 -0.109234,0.02921 -0.163357,0.04049 -0.05412,0.01131 -0.107897,0.02047 -0.161262,0.02746 -0.05337,0.0069 -0.106342,0.01183 -0.158938,0.01466 -0.05259,0.0028 -0.104811,0.0037 -0.156607,0.0026 -0.10359,-0.0023 -0.205501,-0.0126 -0.305773,-0.03002 -0.100273,-0.01747 -0.198976,-0.0423 -0.295764,-0.07376 -0.09679,-0.03146 -0.191713,-0.06948 -0.28483,-0.113786 -0.09314,-0.04432 -0.184345,-0.09478 -0.273658,-0.15079 -0.08931,-0.05602 -0.176702,-0.117745 -0.262024,-0.1843 -0.08532,-0.06656 -0.168536,-0.137905 -0.24969,-0.213854 l 0.203615,-0.352545 0.376281,-0.658081 c 0.03861,0.05508 0.08133,0.108206 0.127517,0.158469 0.0462,0.05027 0.09586,0.09777 0.148463,0.141949 0.0526,0.04418 0.108077,0.08488 0.165917,0.121706 0.05783,0.03682 0.117977,0.06978 0.179881,0.09797 0.06191,0.0282 0.12555,0.05175 0.19035,0.07005 0.0648,0.0183 0.13081,0.03127 0.197331,0.0384 0.06652,0.0071 0.133514,0.0084 0.200591,0.003 0.06708,-0.0053 0.134129,-0.01703 0.200589,-0.03606 0.06328,-0.01814 0.121835,-0.04221 0.175225,-0.0712 0.05338,-0.02899 0.101777,-0.06294 0.145207,-0.101224 0.04343,-0.03829 0.08177,-0.08082 0.115188,-0.126823 0.03341,-0.046 0.06183,-0.09561 0.08517,-0.147766 0.02335,-0.05216 0.04171,-0.107073 0.05491,-0.163822 0.01322,-0.05674 0.02118,-0.115226 0.02421,-0.174993 0.003,-0.05976 9.45e-4,-0.120755 -0.0063,-0.181972 -0.0072,-0.06121 -0.01945,-0.122734 -0.037,-0.183835 -0.01183,-0.04112 -0.02561,-0.07965 -0.04095,-0.115881 -0.01534,-0.03623 -0.03236,-0.07001 -0.05097,-0.101687 -0.0186,-0.03169 -0.03869,-0.06142 -0.06027,-0.08889 -0.02159,-0.02748 -0.0446,-0.05273 -0.06887,-0.07632 -0.02428,-0.02359 -0.04986,-0.04533 -0.07657,-0.06539 -0.02669,-0.02006 -0.05449,-0.03855 -0.08331,-0.05539 -0.05765,-0.03368 -0.119353,-0.06114 -0.183835,-0.08401 -0.06448,-0.02287 -0.131773,-0.04112 -0.200824,-0.05585 -0.06904,-0.01473 -0.139952,-0.02609 -0.211293,-0.03537 -0.14272,-0.01856 -0.287683,-0.02877 -0.426079,-0.04166 -0.114403,-0.01286 -0.225564,-0.02793 -0.33323,-0.04631 -0.107666,-0.01839 -0.211789,-0.04027 -0.311822,-0.06655 -0.100028,-0.02629 -0.196121,-0.05698 -0.287621,-0.09355 -0.04574,-0.01828 -0.09036,-0.03806 -0.133804,-0.05934 -0.04346,-0.02129 -0.08578,-0.04405 -0.126823,-0.06864 -0.04104,-0.0246 -0.08087,-0.05093 -0.119378,-0.07912 -0.03851,-0.0282 -0.07559,-0.05844 -0.111472,-0.09053 -0.03587,-0.03209 -0.07043,-0.06611 -0.103551,-0.102395 -0.03312,-0.03628 -0.06492,-0.07465 -0.09517,-0.115418 -0.03026,-0.04077 -0.05904,-0.08383 -0.08633,-0.129383 -0.0273,-0.04555 -0.05305,-0.09365 -0.07726,-0.144274 -0.0242,-0.05062 -0.04671,-0.103873 -0.06772,-0.159867 -0.02101,-0.05599 -0.04047,-0.114724 -0.05818,-0.176389 -0.0189,-0.06589 -0.03461,-0.131937 -0.04701,-0.197797 -0.01234,-0.06585 -0.02141,-0.131425 -0.02746,-0.196867 -0.006,-0.06544 -0.009,-0.130597 -0.0089,-0.195236 2.38e-4,-0.06463 0.0033,-0.1287616 0.0095,-0.1922126 0.0062,-0.06345 0.01536,-0.126372 0.02746,-0.188256 0.01209,-0.06188 0.02706,-0.122747 0.04491,-0.182672 0.01785,-0.05993 0.03846,-0.1188 0.06189,-0.176388 0.02344,-0.05757 0.04977,-0.113849 0.07865,-0.168708 0.02888,-0.05486 0.06053,-0.10836 0.09471,-0.1601 0.03417,-0.05175 0.07075,-0.101841 0.11007,-0.150093 0.03932,-0.04825 0.08136,-0.09455 0.125666,-0.138923 0.04431,-0.04437 0.09095,-0.08672 0.140087,-0.126822 0.04914,-0.0401 0.100698,-0.07811 0.154514,-0.113555 0.05382,-0.03546 0.10989,-0.06848 0.168244,-0.0989 0.05836,-0.03042 0.119006,-0.05808 0.181741,-0.08307 0.06274,-0.02501 0.127569,-0.04735 0.19454,-0.06655 0.053,-0.01522 0.108373,-0.02843 0.165453,-0.03956 0.05709,-0.01119 0.1161,-0.02011 0.176621,-0.02723 0.06052,-0.0071 0.1224,-0.01222 0.185695,-0.01536 0.06331,-0.0032 0.127942,-0.0046 0.193377,-0.004 z m 22.994303,0.544756 c 0.05215,1.79e-4 0.104773,0.0024 0.15754,0.0069 0.05277,0.0045 0.105737,0.01119 0.158936,0.02025 0.0532,0.009 0.10665,0.02031 0.160102,0.03398 0.05346,0.01367 0.107036,0.02975 0.160562,0.04816 0.05215,0.01791 0.104862,0.03876 0.158009,0.06237 0.05315,0.02361 0.106663,0.05003 0.160331,0.07889 0.05367,0.02886 0.107563,0.06011 0.161259,0.09378 0.05369,0.03366 0.107319,0.06971 0.160567,0.107743 0.08875,0.06335 0.17543,0.132071 0.257837,0.20501 0.0824,0.07294 0.160372,0.15012 0.232003,0.230142 0.07164,0.08002 0.13693,0.162992 0.193375,0.247596 0.02824,0.0423 0.05412,0.08501 0.07772,0.12798 0.02359,0.04298 0.04485,0.08604 0.0633,0.1293826 l -0.858674,0.651798 c -0.01549,-0.0494 -0.03246,-0.09719 -0.05143,-0.143576 -0.01896,-0.0464 -0.0399,-0.09139 -0.0626,-0.134502 -0.02269,-0.04311 -0.04727,-0.08449 -0.074,-0.124033 -0.02671,-0.03955 -0.05556,-0.07716 -0.08657,-0.112859 -0.03102,-0.0357 -0.06427,-0.06942 -0.09983,-0.100993 -0.03558,-0.03158 -0.07342,-0.06103 -0.113799,-0.0882 -0.0404,-0.02717 -0.08322,-0.05199 -0.128684,-0.07447 -0.04546,-0.02247 -0.0937,-0.04254 -0.144508,-0.06004 -0.04878,-0.01674 -0.09873,-0.0289 -0.149394,-0.0363 -0.05068,-0.0075 -0.10197,-0.01003 -0.152889,-0.0084 -0.05091,0.0017 -0.10152,0.0078 -0.151024,0.01838 -0.0495,0.01054 -0.09784,0.02534 -0.144274,0.04445 -0.04643,0.0191 -0.09096,0.04262 -0.132643,0.07005 -0.0417,0.02743 -0.08058,0.05876 -0.115882,0.09424 -0.03531,0.03549 -0.067,0.07492 -0.09424,0.118209 -0.02724,0.04329 -0.05017,0.09041 -0.06772,0.141249 -0.01131,0.03291 -0.01968,0.0653 -0.02535,0.09703 -0.0057,0.03175 -0.0087,0.06283 -0.0091,0.09355 -3.61e-4,0.03072 0.0018,0.06093 0.0063,0.09076 0.0045,0.02983 0.01131,0.05935 0.02026,0.08843 0.01792,0.05815 0.0444,0.114801 0.07795,0.170805 0.0336,0.056 0.07418,0.111381 0.120304,0.166381 0.04612,0.05499 0.09778,0.109632 0.153352,0.164753 0.05558,0.05512 0.115175,0.110713 0.177088,0.167081 0.12384,0.112732 0.257297,0.229163 0.387913,0.353707 0.0653,0.06227 0.129865,0.12645 0.192214,0.193377 0.06235,0.06692 0.122426,0.136494 0.178713,0.209199 0.05629,0.07271 0.108785,0.148662 0.155915,0.228281 0.04713,0.07962 0.08893,0.162955 0.123789,0.25062 0.01742,0.04383 0.03324,0.08868 0.047,0.134736 0.01378,0.04605 0.02566,0.09329 0.0354,0.141715 0.0098,0.04842 0.01724,0.098 0.02256,0.148928 0.0053,0.05093 0.0084,0.103269 0.0089,0.156843 4.5e-4,0.05358 -0.0014,0.108386 -0.006,0.164753 -0.0046,0.05637 -0.01209,0.114299 -0.02233,0.173596 -0.01029,0.0593 -0.02337,0.120073 -0.03959,0.182439 -0.01625,0.06237 -0.03558,0.126167 -0.05818,0.191745 -0.02724,0.07915 -0.05707,0.155767 -0.08936,0.229678 -0.03228,0.07392 -0.06714,0.145138 -0.104246,0.21362 -0.0371,0.06849 -0.07649,0.134234 -0.118208,0.1971 -0.04175,0.06287 -0.0858,0.122825 -0.131941,0.179879 -0.04614,0.05706 -0.0944,0.111137 -0.144742,0.162194 -0.05035,0.05106 -0.102729,0.09918 -0.157076,0.144042 -0.05435,0.04486 -0.110803,0.08672 -0.168943,0.12519 -0.05814,0.03848 -0.118144,0.07352 -0.179879,0.105415 -0.06029,0.03114 -0.122181,0.05909 -0.185693,0.08355 -0.06351,0.02445 -0.12852,0.04546 -0.195006,0.06306 -0.0665,0.0176 -0.134403,0.03178 -0.203616,0.04235 -0.06921,0.01054 -0.139843,0.01758 -0.211528,0.02094 -0.07168,0.0033 -0.144382,0.0031 -0.218277,-9.46e-4 -0.07389,-0.004 -0.14894,-0.0117 -0.224789,-0.02327 -0.07586,-0.01157 -0.152591,-0.02703 -0.230143,-0.04631 -0.07755,-0.01927 -0.156028,-0.0424 -0.235029,-0.06958 -0.05395,-0.01856 -0.106264,-0.03872 -0.157077,-0.0605 -0.05081,-0.02178 -0.100041,-0.04518 -0.147763,-0.07005 -0.04773,-0.02487 -0.09397,-0.0513 -0.138691,-0.07912 -0.04472,-0.02781 -0.08785,-0.05709 -0.129616,-0.08772 -0.08352,-0.06128 -0.161287,-0.128109 -0.233403,-0.199893 -0.07212,-0.07179 -0.138664,-0.148414 -0.199893,-0.229676 -0.06123,-0.08126 -0.117141,-0.167212 -0.168009,-0.256904 -0.05086,-0.08969 -0.09652,-0.183092 -0.137528,-0.280173 -0.04103,-0.09708 -0.07721,-0.197687 -0.1089,-0.301117 -0.03171,-0.103423 -0.05901,-0.209832 -0.08191,-0.31857 l 0.369297,-0.171966 0.685775,-0.323225 c 1.8e-5,0.06726 0.0045,0.135028 0.01351,0.202684 0.009,0.06765 0.02256,0.135176 0.04026,0.201522 0.01774,0.06634 0.03959,0.131683 0.06585,0.195003 0.02625,0.06332 0.05669,0.12456 0.09122,0.183137 0.03453,0.05858 0.07331,0.11448 0.115881,0.166615 0.0426,0.05213 0.08898,0.100543 0.139389,0.144508 0.0504,0.04397 0.104657,0.08342 0.16266,0.117514 0.05799,0.0341 0.119868,0.0629 0.185235,0.0854 0.06225,0.02142 0.123698,0.03527 0.184066,0.04212 0.06038,0.0068 0.119533,0.0067 0.177084,2.38e-4 0.05755,-0.0064 0.113542,-0.0194 0.167317,-0.03793 0.05377,-0.01853 0.105467,-0.0428 0.154513,-0.07214 0.04905,-0.02934 0.09554,-0.06371 0.138925,-0.102626 0.04341,-0.03891 0.08353,-0.08216 0.120305,-0.129383 0.03674,-0.04722 0.07016,-0.09836 0.09936,-0.152651 0.02922,-0.0543 0.05423,-0.111858 0.07493,-0.171967 0.01391,-0.04045 0.02503,-0.07997 0.03327,-0.11844 0.0082,-0.03848 0.0136,-0.076 0.01652,-0.112628 0.0032,-0.03663 0.0032,-0.07217 0.0014,-0.107048 -0.0018,-0.03488 -0.0062,-0.06892 -0.0126,-0.102163 -0.0063,-0.03325 -0.01477,-0.06578 -0.02512,-0.0975 -0.01041,-0.03173 -0.02256,-0.06276 -0.03651,-0.09309 -0.02787,-0.06065 -0.06246,-0.118593 -0.10215,-0.174294 -0.03968,-0.0557 -0.08454,-0.109144 -0.132643,-0.160798 -0.04811,-0.05165 -0.09953,-0.101584 -0.152655,-0.150093 -0.106238,-0.09702 -0.219115,-0.188659 -0.325086,-0.278544 -0.08635,-0.07609 -0.169023,-0.151974 -0.246664,-0.228747 -0.07764,-0.07677 -0.150263,-0.154292 -0.217111,-0.233168 -0.06686,-0.07888 -0.127774,-0.159147 -0.18174,-0.241543 -0.02697,-0.0412 -0.05225,-0.08308 -0.07563,-0.125422 -0.02338,-0.04235 -0.04494,-0.08524 -0.06445,-0.128917 -0.0195,-0.04368 -0.03702,-0.08793 -0.05235,-0.133105 -0.01535,-0.04517 -0.02854,-0.09114 -0.03954,-0.137992 -0.01093,-0.04685 -0.01978,-0.09464 -0.02608,-0.143346 -0.0063,-0.04872 -0.01028,-0.09842 -0.01157,-0.149162 -0.0013,-0.05075 -1.21e-4,-0.102483 0.0036,-0.155444 0.0036,-0.05296 0.01016,-0.107087 0.01932,-0.162427 0.0093,-0.05535 0.02134,-0.11196 0.0363,-0.169873 0.0149,-0.05791 0.03264,-0.117128 0.05352,-0.177784 0.01779,-0.05165 0.03743,-0.1022146 0.05864,-0.1514896 0.02116,-0.04928 0.04404,-0.09725 0.06841,-0.144042 0.04881,-0.09359 0.103885,-0.182103 0.16452,-0.265049 0.06063,-0.08294 0.126732,-0.160384 0.197798,-0.231771 0.07107,-0.07138 0.147016,-0.1368 0.227116,-0.195702 0.0801,-0.0589 0.164507,-0.111343 0.252253,-0.156842 0.08774,-0.0455 0.17897,-0.08402 0.272959,-0.115186 0.04699,-0.01558 0.09459,-0.02937 0.142879,-0.04119 0.04829,-0.01183 0.09721,-0.0216 0.146606,-0.02956 0.04941,-0.008 0.09949,-0.01395 0.149857,-0.01792 0.05036,-0.004 0.101045,-0.0059 0.152192,-0.0058 z m 3.807251,1.4399616 3.616437,1.609137 -0.45703,1.025753 -1.218897,-0.542198 -2.23511,5.017064 -1.17864,-0.524977 2.23511,-5.016598 -1.218897,-0.542662 z m -33.368895,0.216879 5.0571,5.182514 -1.259388,0.560348 -1.032505,-1.067406 -0.898232,0.399782 -0.424681,-0.963388 0.565467,-0.251783 -1.284753,-1.380158 -1.03227,-2.342381 z m -0.637839,0.283897 0.971767,2.204622 0.238522,2.010548 0.541265,-0.241078 0.424684,0.963387 -0.874265,0.389078 0.07051,1.495345 -1.242865,0.553366 -0.406068,-7.252402 z m -3.499385,1.81787 0.612009,0.942213 -1.671273,1.084392 0.793517,1.221688 1.568184,-1.017841 0.611778,0.941747 -1.567953,1.017375 1.587033,2.442908 -1.082068,0.702295 -3.6048,-5.54739 z m 42.657695,0.229445 1.117439,0.644818 -3.309265,5.728435 -1.117673,-0.64482 z m -21.462419,2.599053 c 13.852187,0 25.75907,8.022014 31.344614,19.690343 h -1.338275 l -1.042043,-0.612705 c -3.997097,-3.603097 -5.721643,-5.874827 -9.953864,-7.519777 -6.510097,-2.530403 -11.912672,2.428308 -17.477384,3.916846 -8.550219,2.28676 -16.420746,1.688936 -23.631212,-3.089123 -0.774741,-0.5136 -1.040674,-1.017898 -1.645674,-1.723628 -1.434737,1.588453 -2.777553,3.305392 -3.983408,5.139931 h -1.434614 c 6.180135,-9.524534 16.909445,-15.80189 29.16186,-15.80189 z m 25.115855,0.01396 h 2.39e-4 c 0.05091,-4.2e-5 0.101957,0.0021 0.152888,0.0063 0.05102,0.0042 0.102073,0.01054 0.152885,0.01908 0.05081,0.0085 0.101327,0.01922 0.151722,0.03212 0.0504,0.0129 0.100568,0.02811 0.150325,0.04537 0.04977,0.01728 0.09909,0.03671 0.147999,0.05841 0.04891,0.02169 0.09737,0.04551 0.145206,0.07168 0.04784,0.02615 0.09517,0.05453 0.141716,0.08517 0.04654,0.03065 0.09226,0.06372 0.137299,0.0989 0.05662,0.04418 0.113195,0.09379 0.168708,0.148233 0.05552,0.05444 0.110237,0.113695 0.163358,0.176388 0.05311,0.06269 0.104644,0.128842 0.15405,0.197796 0.04941,0.06895 0.09662,0.14063 0.141013,0.213854 0.04656,0.07708 0.09003,0.15618 0.129388,0.236192 0.03936,0.08001 0.07461,0.161052 0.104709,0.242012 0.03009,0.08096 0.05496,0.161857 0.07376,0.241776 0.01882,0.07992 0.03156,0.158838 0.03702,0.235729 l -1.034596,0.33672 c 0.0014,-0.05175 9.01e-4,-0.102818 -0.0018,-0.152885 -0.0027,-0.05007 -0.0077,-0.0991 -0.01513,-0.1473 -0.0075,-0.0482 -0.01738,-0.09534 -0.02976,-0.141484 -0.01234,-0.04614 -0.02721,-0.0913 -0.0449,-0.1352 -0.01769,-0.04391 -0.03809,-0.08674 -0.06143,-0.128225 -0.02337,-0.04148 -0.04978,-0.08167 -0.07912,-0.120534 -0.02937,-0.03887 -0.06159,-0.07632 -0.09728,-0.112397 -0.03567,-0.03608 -0.07467,-0.0707 -0.117052,-0.103783 -0.04067,-0.03172 -0.08407,-0.05948 -0.129382,-0.08307 -0.04531,-0.02359 -0.09267,-0.04303 -0.141019,-0.05818 -0.04834,-0.01515 -0.09774,-0.02598 -0.147534,-0.03235 -0.0498,-0.0063 -0.09975,-0.0084 -0.149394,-0.0055 -0.04964,0.0027 -0.09893,0.01016 -0.146836,0.02235 -0.04789,0.01208 -0.09459,0.02907 -0.139154,0.05096 -0.04454,0.0219 -0.08697,0.04879 -0.126592,0.08074 -0.03963,0.03196 -0.0765,0.06889 -0.109607,0.111227 -0.02143,0.02744 -0.0399,0.05538 -0.05562,0.08353 -0.01571,0.02817 -0.02868,0.05673 -0.03909,0.08564 -0.01041,0.0289 -0.01824,0.05808 -0.02374,0.08772 -0.0055,0.02965 -0.0085,0.05966 -0.0095,0.09005 -0.0018,0.06082 0.0045,0.12321 0.01792,0.187094 0.01346,0.06387 0.0339,0.129398 0.05957,0.196401 0.02566,0.067 0.05646,0.135519 0.09099,0.205709 0.03453,0.07019 0.07275,0.14181 0.11286,0.215249 0.08024,0.146876 0.168294,0.300508 0.251087,0.46075 0.04139,0.08013 0.08137,0.161948 0.118453,0.245501 0.03711,0.08356 0.07128,0.168691 0.100761,0.25574 0.02949,0.08706 0.05427,0.175842 0.07284,0.266444 0.01855,0.0906 0.03099,0.183154 0.0354,0.277382 0.0023,0.04711 0.0023,0.09462 2.38e-4,0.142647 -0.0018,0.04803 -0.0062,0.09648 -0.01273,0.145439 -0.0066,0.04896 -0.01544,0.09834 -0.02701,0.14823 -0.01157,0.04989 -0.02584,0.100427 -0.04283,0.151258 -0.01697,0.05082 -0.03675,0.102047 -0.05957,0.153816 -0.02278,0.05178 -0.04846,0.104117 -0.07749,0.156841 -0.02904,0.05273 -0.06137,0.105712 -0.09703,0.1594 -0.03567,0.05369 -0.07478,0.108 -0.117514,0.16266 -0.05099,0.06524 -0.10368,0.127312 -0.157774,0.186163 -0.05409,0.05885 -0.109479,0.114505 -0.16638,0.166847 -0.05691,0.05234 -0.115329,0.101365 -0.17476,0.147067 -0.05943,0.04571 -0.12006,0.08811 -0.181743,0.127054 -0.06168,0.03894 -0.12438,0.07452 -0.188022,0.106573 -0.06364,0.03207 -0.128288,0.06058 -0.19361,0.08563 -0.06533,0.02505 -0.131305,0.04656 -0.198031,0.06445 -0.06673,0.01791 -0.134148,0.03217 -0.201986,0.04281 -0.06783,0.01067 -0.136106,0.01769 -0.204777,0.02095 -0.06867,0.0032 -0.137651,0.0027 -0.206877,-0.0017 -0.06922,-0.0042 -0.138546,-0.01234 -0.208032,-0.0242 -0.06949,-0.01196 -0.139028,-0.02757 -0.208502,-0.04724 -0.06948,-0.01967 -0.1391,-0.04317 -0.208271,-0.07074 -0.06918,-0.02757 -0.138042,-0.05912 -0.206638,-0.09471 -0.06859,-0.03559 -0.136813,-0.07518 -0.204548,-0.118915 -0.06773,-0.04373 -0.134938,-0.09157 -0.201521,-0.143579 -0.04494,-0.0351 -0.08798,-0.0713 -0.128919,-0.108436 -0.04094,-0.03713 -0.07979,-0.07543 -0.116807,-0.114493 -0.03702,-0.03906 -0.07219,-0.07897 -0.105416,-0.119841 -0.03324,-0.04087 -0.0645,-0.08261 -0.09401,-0.12519 -0.05903,-0.08518 -0.110636,-0.173623 -0.155446,-0.265048 -0.04481,-0.09143 -0.08282,-0.185886 -0.114261,-0.282733 -0.03144,-0.09684 -0.0563,-0.196179 -0.07516,-0.297626 -0.01887,-0.101442 -0.03171,-0.20497 -0.03887,-0.310193 -0.0072,-0.105223 -0.0087,-0.212022 -0.0049,-0.320198 0.0036,-0.10818 0.01273,-0.217571 0.02652,-0.327878 l 1.159791,-0.12542 c -0.02193,0.06359 -0.03968,0.129354 -0.05329,0.196399 -0.0136,0.06705 -0.02296,0.135318 -0.02793,0.204082 -0.005,0.06876 -0.0055,0.137899 -0.0013,0.206639 0.0041,0.06873 0.0126,0.137101 0.02607,0.20408 0.01342,0.06697 0.0318,0.132692 0.05492,0.196168 0.02314,0.06348 0.05125,0.124674 0.08447,0.182904 0.03324,0.05823 0.07152,0.113503 0.115187,0.164753 0.04368,0.05125 0.09262,0.09849 0.14707,0.141016 0.05187,0.04051 0.105416,0.07369 0.160333,0.09961 0.05491,0.02592 0.11115,0.04475 0.167779,0.05701 0.05664,0.01221 0.113773,0.0177 0.170802,0.01722 0.05703,-4.95e-4 0.114004,-0.0071 0.170108,-0.01931 0.05611,-0.01234 0.111355,-0.03015 0.165218,-0.05329 0.05386,-0.02314 0.106328,-0.05162 0.156607,-0.0847 0.05028,-0.03308 0.09842,-0.07078 0.143811,-0.112859 0.04539,-0.04208 0.08789,-0.08855 0.127055,-0.13869 0.02634,-0.0337 0.04953,-0.06729 0.0698,-0.100993 0.02031,-0.0337 0.0377,-0.06732 0.05237,-0.100993 0.01468,-0.03367 0.02674,-0.06738 0.0363,-0.100992 0.0095,-0.03361 0.01657,-0.06724 0.02139,-0.100761 0.0048,-0.03352 0.0072,-0.06691 0.0077,-0.100299 4.5e-4,-0.03339 -9.02e-4,-0.06683 -0.0045,-0.100067 -0.0067,-0.06647 -0.02076,-0.132622 -0.04026,-0.198263 -0.01949,-0.06564 -0.04458,-0.130683 -0.0733,-0.195237 -0.02872,-0.06456 -0.06114,-0.128545 -0.09564,-0.191746 -0.06899,-0.126412 -0.145963,-0.249829 -0.216877,-0.3693 -0.04829,-0.08497 -0.09411,-0.168974 -0.136597,-0.252248 -0.04247,-0.08328 -0.08168,-0.16582 -0.11682,-0.247828 -0.03513,-0.082 -0.06612,-0.163631 -0.09238,-0.244804 -0.02626,-0.08117 -0.04768,-0.16194 -0.06353,-0.242709 -0.01585,-0.08077 -0.02611,-0.161445 -0.03003,-0.242242 -0.0041,-0.08079 -0.0014,-0.161686 0.0081,-0.242941 0.0096,-0.08126 0.02617,-0.162889 0.05074,-0.245037 0.02458,-0.08214 0.05705,-0.164822 0.0982,-0.248292 0.02935,-0.05922 0.06429,-0.11889 0.103783,-0.178949 0.0395,-0.06005 0.0837,-0.1206 0.131476,-0.181507 0.04751,-0.06075 0.09756,-0.118221 0.149863,-0.172433 0.0523,-0.05422 0.10683,-0.105159 0.163358,-0.152653 0.05653,-0.04749 0.115045,-0.09161 0.175223,-0.132174 0.06018,-0.04058 0.121976,-0.07753 0.185229,-0.110996 0.06326,-0.03347 0.127852,-0.06341 0.193611,-0.08959 0.06575,-0.02618 0.132683,-0.04856 0.200359,-0.06725 0.06765,-0.0187 0.136223,-0.03366 0.205241,-0.04468 0.06902,-0.01106 0.138483,-0.01803 0.208268,-0.02118 0.02706,-0.0012 0.05436,-0.0018 0.08145,-0.0018 z m -50.81556,0.174759 4.074859,5.212766 -1.016912,0.793749 -4.074627,-5.212534 z m -2.434772,1.899085 0.780485,0.808175 -0.959664,0.925923 3.817023,3.950588 -0.928251,0.895903 -3.817025,-3.950354 -0.959667,0.925922 -0.780718,-0.807477 z m 57.523922,2.300261 c 0.10485,-2.39e-4 0.209304,0.0044 0.31345,0.01419 0.104143,0.0098 0.207898,0.02465 0.310658,0.04468 0.102768,0.02004 0.204615,0.04536 0.305309,0.07586 0.100684,0.0305 0.200153,0.06611 0.29809,0.10728 0.09795,0.04117 0.19428,0.08783 0.288787,0.139854 0.0945,0.05203 0.187224,0.109555 0.277614,0.172665 0.09039,0.0631 0.17852,0.131789 0.264115,0.206174 0.08559,0.07439 0.168658,0.154514 0.248759,0.240382 0.04418,0.04733 0.08655,0.09591 0.127286,0.145905 0.04076,0.04999 0.07976,0.101404 0.117051,0.153817 0.03729,0.05242 0.07278,0.105968 0.106573,0.160562 0.03378,0.05459 0.06587,0.110083 0.09611,0.166616 0.06049,0.113066 0.113747,0.229937 0.159868,0.349287 0.04611,0.119352 0.08517,0.241176 0.116576,0.364877 l -1.130235,1.053211 c 0.0095,-0.07026 0.0149,-0.140918 0.01652,-0.211293 0.0018,-0.07038 -3.56e-4,-0.14038 -0.0066,-0.210132 -0.006,-0.06975 -0.01589,-0.139179 -0.02931,-0.207569 -0.01342,-0.06839 -0.03039,-0.135926 -0.05097,-0.20222 -0.02058,-0.06629 -0.04485,-0.131315 -0.07237,-0.194771 -0.02755,-0.06345 -0.05832,-0.125343 -0.09261,-0.185231 -0.03426,-0.05987 -0.07205,-0.117797 -0.11286,-0.173363 -0.0408,-0.05557 -0.08483,-0.108643 -0.131945,-0.159169 -0.05277,-0.05653 -0.107344,-0.108759 -0.163588,-0.156376 -0.05624,-0.04761 -0.11412,-0.09085 -0.173363,-0.129847 -0.05925,-0.03901 -0.119957,-0.07379 -0.181745,-0.10449 -0.06179,-0.0307 -0.124624,-0.05733 -0.188484,-0.08005 -0.06386,-0.02272 -0.128613,-0.0415 -0.194079,-0.05654 -0.06546,-0.01504 -0.131661,-0.02628 -0.198261,-0.03398 -0.0666,-0.0077 -0.133557,-0.0117 -0.200825,-0.01234 -0.06727,-5.85e-4 -0.134749,0.0021 -0.202214,0.0081 -0.06746,0.006 -0.135025,0.01543 -0.20222,0.02793 -0.06719,0.01247 -0.134137,0.02817 -0.200589,0.04677 -0.06646,0.01861 -0.132323,0.04008 -0.197568,0.06445 -0.06525,0.02439 -0.129806,0.05158 -0.193376,0.08145 -0.06356,0.02985 -0.126141,0.06249 -0.187557,0.09751 -0.06142,0.03502 -0.12177,0.07253 -0.180579,0.112397 -0.05881,0.03987 -0.11601,0.08218 -0.171732,0.126591 -0.05572,0.0444 -0.109788,0.09077 -0.161963,0.139387 -0.05095,0.04749 -0.09996,0.09723 -0.146836,0.148698 -0.04686,0.05147 -0.09179,0.104658 -0.134269,0.159635 -0.04247,0.05498 -0.08253,0.111624 -0.120304,0.16964 -0.03777,0.05801 -0.07311,0.117437 -0.105879,0.178017 -0.03279,0.06058 -0.06305,0.12231 -0.09053,0.184998 -0.02746,0.06269 -0.05217,0.126489 -0.07399,0.190815 -0.02184,0.06433 -0.04085,0.12928 -0.05678,0.194773 -0.01589,0.06549 -0.02877,0.131372 -0.03842,0.197565 -0.0096,0.06619 -0.01621,0.132772 -0.01932,0.199193 -0.0032,0.06642 -0.0027,0.132772 9e-4,0.198959 0.0036,0.06619 0.0108,0.13208 0.02166,0.197566 0.0108,0.06548 0.02539,0.130461 0.04373,0.19477 0.01832,0.06431 0.04044,0.128147 0.06655,0.190816 0.02611,0.06268 0.05635,0.1242 0.09053,0.184767 0.03417,0.06056 0.0724,0.120033 0.114956,0.178017 0.04256,0.05799 0.08929,0.114467 0.140549,0.169407 0.04712,0.05053 0.09776,0.09811 0.151024,0.142413 0.05325,0.04431 0.109157,0.08536 0.167546,0.123326 0.05838,0.03797 0.119199,0.07272 0.181744,0.104259 0.06254,0.03154 0.126758,0.05994 0.192444,0.08493 0.0657,0.02499 0.132737,0.04658 0.200589,0.06493 0.06785,0.01834 0.136691,0.03333 0.20571,0.04491 0.06902,0.01157 0.138375,0.01972 0.207569,0.02443 0.0692,0.0048 0.138033,0.006 0.206411,0.0037 l -1.12326,1.04693 c -0.124046,-0.04935 -0.245242,-0.10152 -0.363015,-0.157773 -0.117772,-0.05626 -0.232079,-0.116703 -0.342306,-0.18337 -0.05512,-0.03333 -0.109209,-0.06813 -0.162192,-0.104708 -0.053,-0.03659 -0.104978,-0.07491 -0.15568,-0.115188 -0.05071,-0.04028 -0.100209,-0.08264 -0.148462,-0.127053 -0.04827,-0.04441 -0.09513,-0.09089 -0.140788,-0.139853 -0.07933,-0.08503 -0.152926,-0.172998 -0.220602,-0.263419 -0.06768,-0.09042 -0.129476,-0.183501 -0.185698,-0.278546 -0.05621,-0.09504 -0.106766,-0.191991 -0.151722,-0.290878 -0.04499,-0.09888 -0.08432,-0.199635 -0.118221,-0.301582 -0.0339,-0.101943 -0.06237,-0.205266 -0.0854,-0.309495 -0.02305,-0.10422 -0.04071,-0.209351 -0.05306,-0.315079 -0.01234,-0.105724 -0.01949,-0.211888 -0.02139,-0.318335 -0.0018,-0.106444 0.0014,-0.213116 0.0098,-0.319501 0.0084,-0.106392 0.02202,-0.212559 0.04049,-0.318104 0.01846,-0.105545 0.0417,-0.210458 0.07005,-0.314382 0.02832,-0.103925 0.06159,-0.206809 0.09959,-0.308331 0.03801,-0.101519 0.08073,-0.201845 0.128225,-0.300185 0.04749,-0.09835 0.09983,-0.194873 0.156607,-0.289249 0.05678,-0.09437 0.118209,-0.186351 0.184068,-0.275986 0.06587,-0.08963 0.136074,-0.176749 0.210829,-0.260858 0.07475,-0.08411 0.153912,-0.165368 0.237357,-0.243176 0.08855,-0.08252 0.180277,-0.160297 0.274589,-0.233399 0.09431,-0.07311 0.191156,-0.141576 0.290413,-0.205011 0.09926,-0.06344 0.200774,-0.121923 0.304146,-0.175457 0.103372,-0.05354 0.208641,-0.10206 0.31531,-0.145439 0.106676,-0.04338 0.214788,-0.08151 0.323924,-0.114493 0.109145,-0.03297 0.219422,-0.06075 0.330206,-0.08307 0.11079,-0.02232 0.222079,-0.0393 0.333696,-0.05073 0.111613,-0.01144 0.223475,-0.01718 0.335092,-0.01746 z m -61.761208,1.910951 5.319122,4.153505 -0.572914,0.73278 -5.790578,-0.101918 -0.01093,0.01396 3.541505,2.765202 -0.794448,1.041576 -5.353795,-4.20563 0.572914,-0.73278 5.790813,0.101687 0.01067,-0.01373 -3.507065,-2.738441 z m 66.769903,2.359602 0.68345,1.093934 -2.210912,1.380624 1.265207,2.023812 2.211141,-1.38109 0.683917,1.093934 -5.613258,3.505195 -0.68345,-1.0937 2.497599,-1.583539 -1.254268,-2.006826 -2.508772,1.566786 -0.68368,-1.093702 z m -72.764795,6.28692 7.193312,0.846803 -0.625738,1.227506 -1.474639,-0.180112 -0.469129,0.920338 -0.92988,-0.494959 0.296928,-0.582686 -1.895364,-0.268539 -2.23674,-1.190969 z m 76.647909,0.09284 1.392498,3.125659 -1.02669,0.456562 -0.867284,-1.947254 -1.331059,0.591996 0.835172,1.875581 -1.02622,0.456794 -0.835636,-1.875347 -1.63567,0.727893 0.867518,1.947484 -1.026688,0.456563 -1.39226,-3.125658 z m -76.952517,0.504964 2.15064,1.145129 1.431822,1.393188 0.252947,-0.49612 0.929648,0.494958 -0.411419,0.807245 0.996434,1.117901 -0.617593,1.211914 -4.882106,-5.380777 z m 8.810829,1.382253 h 1.422048 c -2.698907,4.420117 -4.592474,9.476641 -5.09503,15.02978 -0.02219,0.245144 0.0382,0.383548 0.07818,0.626435 1.724339,1.409957 14.141941,13.059094 31.462592,6.871004 1.681983,-0.600885 3.229192,-0.894462 4.693386,-0.942676 v 1.226805 c -2.984688,0.16086 -5.685095,1.683306 -9.317191,2.300959 -10.921352,1.857451 -18.924531,-1.457304 -26.838787,-8.005892 -5.85e-4,0.762126 0.03781,1.195226 0.156842,1.947954 0.111073,0.702126 0.250807,1.25623 0.428872,1.775054 h -1.732706 c -0.08609,-1.001234 -0.132641,-2.014112 -0.132641,-3.038397 0,-6.512688 1.777975,-12.593949 4.874427,-17.791026 z m 59.812088,3.888456 h 1.904441 c 1.851764,4.252893 2.879933,8.95291 2.879933,13.90257 0,14.783226 -9.152393,27.348489 -22.125858,32.372622 v -1.02645 l 1.229138,-0.682517 z M 53.823886,53.780263 c 4.13845,0.219008 7.68577,2.381772 11.895776,5.004731 0.981873,0.611845 0.921762,0.602235 1.489064,1.018306 l -7.445795,22.55933 1.722936,-0.481927 v 0.879382 c -3.592784,1.249897 -7.456785,1.930964 -11.486451,1.930964 -0.792747,0 -1.578799,-0.02761 -2.357978,-0.07936 v -0.988284 c 0.328544,0.02041 0.585173,0.01625 0.969207,4.52e-4 L 58.43071,56.513101 c -0.675651,-0.388016 -1.077818,-0.575109 -1.80275,-0.861234 -0.990893,-0.39087 -1.915343,-0.58698 -2.804074,-0.648077 z m -38.3122,0.357432 h 2.076174 c 0.210609,0.460578 0.453895,0.952636 0.743719,1.558407 4.024411,8.409809 14.784303,12.253747 23.013616,10.765511 3.863099,-0.698664 5.172504,0.234989 8.072231,1.33152 l 0.783978,0.548248 -5.002881,14.791723 c 0.510688,0.177444 0.893575,0.285825 1.319193,0.361389 v 1.024354 C 30.294365,82.919277 17.422169,70.256729 15.511686,54.137695 Z m 52.608539,27.841905 3.064464,6.011168 -0.829119,0.422124 -5.2051,-2.538321 -0.01558,0.008 2.040106,4.002245 -1.149551,0.58548 -3.08448,-6.050258 0.82912,-0.421888 5.2051,2.538082 0.0158,-0.008 -2.020562,-3.963388 z m -33.771473,0.579197 0.289482,0.122632 -0.958736,2.185071 -1.311048,1.56958 0.524512,0.22246 -0.423287,0.964322 -0.852157,-0.361623 -1.046233,1.071366 -1.252407,-0.531262 z m 0.620618,0.263187 0.300651,0.127517 -0.343702,7.230755 -1.268463,-0.53801 0.07656,-1.482775 -0.933605,-0.396292 0.423054,-0.964085 0.590833,0.250619 0.135434,-1.905364 z m 4.257298,1.887216 1.257295,0.290177 -0.627832,2.7182 0.01698,0.0041 2.6207,-2.258606 1.548172,0.357196 -3.133112,2.410334 1.781342,4.066715 -1.616588,-0.37326 -1.39203,-3.373261 -0.01698,-0.0041 -0.669487,2.897611 -1.257294,-0.29018 z m 19.789987,0.886361 c 0.02742,0 0.05489,4.51e-4 0.08214,0.0014 0.109042,0.0032 0.216634,0.01183 0.322758,0.02607 0.106123,0.01418 0.210726,0.03373 0.313451,0.05841 0.102728,0.02467 0.203651,0.05448 0.302516,0.08913 0.09887,0.03468 0.195654,0.07412 0.290179,0.118209 0.09453,0.04409 0.186728,0.09289 0.276452,0.145904 0.08972,0.05301 0.176886,0.11034 0.261322,0.171733 0.08445,0.06141 0.166106,0.126913 0.244805,0.196172 0.0787,0.06926 0.154398,0.142373 0.226884,0.21897 0.07248,0.0766 0.141774,0.156748 0.207573,0.240149 0.06579,0.0834 0.128212,0.170013 0.18686,0.259696 0.05864,0.08968 0.113503,0.182419 0.16452,0.277849 0.051,0.09544 0.0981,0.193482 0.141018,0.294134 0.04292,0.100659 0.08177,0.20391 0.116126,0.309263 0.03435,0.105351 0.06429,0.212774 0.08959,0.322293 0.02581,0.111767 0.04657,0.223586 0.06237,0.335091 0.0158,0.11151 0.02656,0.222852 0.03261,0.333461 0.006,0.11061 0.0073,0.22043 0.0036,0.329511 -0.0036,0.10906 -0.01209,0.21724 -0.02512,0.32415 -0.01301,0.10691 -0.03063,0.21259 -0.05283,0.31671 -0.0222,0.10412 -0.04906,0.20671 -0.08028,0.3074 -0.0312,0.10068 -0.06678,0.19938 -0.106817,0.296 -0.04004,0.0966 -0.08447,0.19126 -0.133106,0.2832 -0.04864,0.0919 -0.10143,0.18124 -0.158468,0.26784 -0.05703,0.0866 -0.11835,0.17044 -0.183604,0.25109 -0.06525,0.0806 -0.134538,0.15818 -0.207804,0.23223 -0.07326,0.0741 -0.150465,0.14469 -0.231539,0.21153 -0.08108,0.0668 -0.166127,0.12974 -0.25481,0.18872 -0.08869,0.059 -0.181051,0.1138 -0.277151,0.16429 -0.09611,0.0505 -0.195938,0.0966 -0.299257,0.13799 -0.103307,0.0414 -0.2101,0.078 -0.320429,0.10961 l -0.28995,-1.2417 c 0.05974,-0.0219 0.117489,-0.0476 0.173365,-0.0768 0.05588,-0.0292 0.1098,-0.0617 0.161727,-0.0975 0.05193,-0.0358 0.101752,-0.0749 0.149629,-0.11659 0.04788,-0.0418 0.09379,-0.0861 0.137528,-0.13311 0.04373,-0.047 0.08547,-0.0966 0.124958,-0.14823 0.0395,-0.0516 0.07676,-0.10529 0.111935,-0.1608 0.03516,-0.0555 0.06815,-0.11274 0.0989,-0.1715 0.03075,-0.0588 0.05918,-0.11902 0.0854,-0.18034 0.0262,-0.0613 0.0503,-0.12387 0.07191,-0.18709 0.02161,-0.0632 0.0408,-0.12707 0.05772,-0.19152 0.01688,-0.0645 0.03165,-0.12931 0.04373,-0.19431 0.01209,-0.065 0.02166,-0.13014 0.02886,-0.195 0.0072,-0.0649 0.01196,-0.129552 0.01418,-0.193612 0.0023,-0.06407 0.0018,-0.127543 -9e-4,-0.190115 -0.0027,-0.06259 -0.0082,-0.124328 -0.0163,-0.184765 -0.008,-0.06043 -0.01855,-0.119482 -0.03189,-0.177088 -0.01432,-0.06196 -0.03147,-0.123313 -0.0512,-0.183833 -0.01972,-0.06052 -0.04215,-0.120266 -0.06702,-0.178952 -0.02485,-0.05869 -0.05223,-0.116434 -0.08191,-0.172895 -0.02968,-0.05646 -0.06168,-0.111625 -0.09588,-0.165451 -0.03417,-0.05383 -0.0705,-0.106278 -0.108913,-0.157076 -0.0384,-0.05081 -0.0789,-0.09993 -0.12123,-0.147301 -0.04233,-0.04739 -0.08645,-0.09303 -0.132408,-0.136595 -0.04595,-0.04355 -0.09361,-0.08514 -0.142883,-0.124496 -0.04927,-0.03936 -0.100131,-0.07649 -0.15242,-0.111227 -0.05229,-0.03472 -0.10602,-0.06708 -0.161029,-0.0968 -0.055,-0.02973 -0.111291,-0.05689 -0.168708,-0.08122 -0.05742,-0.02431 -0.11592,-0.04594 -0.175458,-0.06445 -0.05954,-0.01851 -0.12015,-0.03396 -0.18151,-0.04631 -0.06135,-0.01234 -0.123518,-0.02152 -0.186396,-0.02724 -0.06287,-0.0057 -0.126489,-0.008 -0.190583,-0.0068 -0.06409,0.0014 -0.128829,0.0063 -0.193839,0.0149 l -0.289485,-1.240072 c 0.11349,-0.02049 0.226153,-0.03486 0.337654,-0.04328 0.08362,-0.0063 0.166478,-0.0094 0.248759,-0.0091 z m -0.936397,0.13497 0.289485,1.239838 c -0.06105,0.02148 -0.120048,0.04623 -0.177088,0.07376 -0.05703,0.02751 -0.112063,0.05787 -0.164988,0.09099 -0.05293,0.03309 -0.103912,0.06904 -0.152651,0.10728 -0.04874,0.03824 -0.0954,0.07884 -0.139856,0.121693 -0.04445,0.04286 -0.08675,0.08795 -0.126823,0.134971 -0.04008,0.04702 -0.07795,0.0959 -0.113554,0.146602 -0.03561,0.05071 -0.06879,0.103165 -0.09982,0.15707 -0.03102,0.05391 -0.05994,0.109273 -0.08633,0.165921 -0.02638,0.05665 -0.05049,0.114467 -0.07214,0.173363 -0.02166,0.05891 -0.04067,0.118967 -0.05748,0.179646 -0.01679,0.06069 -0.0312,0.122078 -0.04305,0.184066 -0.01183,0.06198 -0.0213,0.124509 -0.02814,0.187323 -0.0068,0.06282 -0.01106,0.126026 -0.01273,0.189187 -0.0018,0.06317 -9.01e-4,0.126373 0.0027,0.189423 0.0036,0.06305 0.0096,0.125807 0.01837,0.188252 0.0087,0.0624 0.02031,0.12456 0.03444,0.18593 0.01328,0.0574 0.02967,0.11521 0.04887,0.1729 0.01924,0.0577 0.0413,0.1153 0.06609,0.17266 0.02476,0.0574 0.05216,0.11434 0.08214,0.17081 0.03,0.0565 0.06249,0.11253 0.09728,0.16755 0.03477,0.055 0.07201,0.10895 0.11124,0.16196 0.03923,0.053 0.08051,0.10499 0.123788,0.15544 0.04328,0.0504 0.08848,0.0995 0.135435,0.14684 0.04695,0.0473 0.09564,0.0928 0.145904,0.13636 0.05026,0.0436 0.102034,0.0854 0.155216,0.12473 0.05318,0.0394 0.107859,0.0764 0.163588,0.111 0.05574,0.0345 0.112667,0.0665 0.170572,0.0956 0.05791,0.0292 0.116692,0.0556 0.176386,0.0789 0.0597,0.0232 0.120163,0.0433 0.181279,0.06 0.06111,0.0168 0.122837,0.0301 0.184997,0.0398 0.06216,0.01 0.12474,0.0156 0.187557,0.0177 0.06282,0.002 0.126077,3.5e-4 0.189188,-0.006 l 0.289948,1.24217 c -0.112976,0.0198 -0.225078,0.0336 -0.336024,0.0417 -0.110945,0.008 -0.220813,0.0103 -0.329274,0.007 -0.108463,-0.003 -0.215369,-0.0124 -0.320898,-0.0265 -0.105519,-0.0142 -0.209461,-0.0336 -0.311586,-0.0582 -0.102125,-0.0246 -0.202377,-0.0542 -0.300652,-0.0887 -0.09827,-0.0345 -0.194588,-0.0741 -0.288553,-0.11798 -0.09396,-0.0439 -0.185621,-0.0923 -0.274822,-0.1452 -0.0892,-0.0529 -0.17595,-0.10996 -0.259929,-0.17127 -0.08398,-0.0613 -0.165339,-0.12686 -0.243643,-0.19617 -0.0783,-0.0693 -0.153551,-0.1424 -0.225722,-0.2192 -0.07218,-0.0768 -0.141284,-0.15726 -0.206871,-0.24108 -0.06558,-0.0838 -0.12762,-0.17097 -0.186161,-0.26133 -0.05855,-0.0904 -0.113477,-0.18398 -0.164525,-0.28041 -0.05104,-0.0964 -0.09815,-0.19585 -0.141248,-0.29786 -0.0431,-0.10201 -0.08214,-0.20657 -0.11682,-0.31368 -0.03467,-0.10711 -0.06517,-0.21661 -0.09099,-0.32834 -0.02512,-0.10881 -0.0452,-0.21793 -0.0605,-0.32695 -0.01531,-0.10902 -0.02581,-0.21792 -0.03144,-0.32648 -0.0057,-0.108566 -0.0064,-0.216936 -0.0027,-0.324387 0.0036,-0.107435 0.01209,-0.214077 0.02512,-0.319737 0.01306,-0.105659 0.03072,-0.210247 0.05282,-0.313448 0.02211,-0.103205 0.04882,-0.204995 0.07982,-0.305074 0.03099,-0.10008 0.06642,-0.198541 0.10611,-0.294835 0.03972,-0.0963 0.08351,-0.190439 0.13171,-0.282264 0.0482,-0.09184 0.100774,-0.181367 0.157306,-0.268072 0.05653,-0.08672 0.117077,-0.170635 0.181739,-0.251555 0.06466,-0.08092 0.133328,-0.158698 0.205945,-0.233165 0.07262,-0.07447 0.1493,-0.145584 0.229675,-0.212923 0.08038,-0.06735 0.164533,-0.13104 0.252482,-0.190583 0.08796,-0.05954 0.179722,-0.115059 0.275059,-0.166149 0.09534,-0.05109 0.194169,-0.09766 0.296694,-0.139623 0.102536,-0.04197 0.208569,-0.0793 0.318106,-0.111459 z m -12.277406,0.403272 3.9371,0.413747 -0.117514,1.116737 -1.326871,-0.139388 -0.574311,5.461757 -1.283356,-0.13473 0.574543,-5.461763 -1.327104,-0.139388 z m 7.472091,0.381632 0.11565,6.613641 -1.290104,0.0228 -0.115418,-6.614108 z" />
    <path
       id="path20-2"
       style="color:#000000;font-style:normal;font-variant:normal;font-weight:normal;font-stretch:normal;font-size:medium;line-height:normal;font-family:'Bitstream Vera Sans';-inkscape-font-specification:'Bitstream Vera Sans';text-indent:0;text-align:start;text-decoration:none;text-decoration-line:none;letter-spacing:normal;word-spacing:normal;text-transform:none;writing-mode:lr-tb;direction:ltr;text-anchor:start;display:inline;overflow:visible;visibility:visible;fill:#000000;fill-opacity:1;stroke:#000000;stroke-width:0.0898848;stroke-miterlimit:4;stroke-dasharray:none;stroke-opacity:1;marker:none;enable-background:accumulate"
       d="m 49.999414,5.0449424 c -24.767123,0 -44.9544716,20.1769116 -44.9544716,44.9306396 0,24.753609 20.1873646,44.929475 44.9544716,44.929475 24.767469,0 44.955645,-20.175868 44.955645,-44.929475 0,-24.753721 -20.188155,-44.9306396 -44.955645,-44.9306396 z m 0.248296,1.785991 1.287079,0.08982 -0.181743,2.599051 2.381719,0.166616 0.18197,-2.599054 1.287084,0.08982 -0.461685,6.5985086 -1.287312,-0.08982 0.206174,-2.949271 -2.38125,-0.166614 -0.206639,2.949269 -1.287312,-0.08982 z m -3.856353,0.0512 c 0.09652,9.92e-4 0.192837,0.0066 0.288552,0.01675 0.09572,0.01016 0.190868,0.02501 0.28506,0.04398 0.09419,0.01898 0.187306,0.04218 0.279244,0.06958 0.09194,0.0274 0.18262,0.05901 0.271565,0.09447 l 0.18849,1.532812 c -0.05135,-0.04897 -0.105225,-0.09483 -0.161264,-0.137528 -0.05604,-0.04269 -0.114287,-0.08207 -0.174294,-0.118208 -0.06002,-0.03615 -0.121743,-0.06907 -0.185,-0.09843 -0.06325,-0.02937 -0.128068,-0.05518 -0.193841,-0.07749 -0.06576,-0.02231 -0.13257,-0.04107 -0.200126,-0.05608 -0.06755,-0.01502 -0.135694,-0.02651 -0.204311,-0.03397 -0.06862,-0.0075 -0.137689,-0.01106 -0.20664,-0.01067 -0.06895,3.7e-4 -0.137848,0.0049 -0.206406,0.01327 -0.0768,0.0094 -0.151093,0.023 -0.2227,0.04049 -0.07161,0.01749 -0.140467,0.03878 -0.206873,0.06376 -0.06641,0.02498 -0.130336,0.05349 -0.191513,0.0854 -0.06117,0.03191 -0.119764,0.06713 -0.175691,0.105414 -0.05593,0.03829 -0.109196,0.07972 -0.159867,0.123802 -0.05066,0.04409 -0.09866,0.09099 -0.144042,0.14032 -0.04537,0.04933 -0.08792,0.101199 -0.127981,0.155213 -0.04006,0.05401 -0.07766,0.11012 -0.112398,0.168244 -0.03473,0.05813 -0.06673,0.118208 -0.09611,0.179879 -0.02938,0.06168 -0.05604,0.124984 -0.08005,0.189652 -0.024,0.06466 -0.04538,0.130707 -0.06399,0.197797 -0.01863,0.06709 -0.03451,0.135131 -0.0477,0.204079 -0.0132,0.06895 -0.02365,0.138721 -0.03141,0.208968 -0.0077,0.07025 -0.01286,0.1410106 -0.01511,0.2119896 -0.0024,0.07099 -0.0019,0.142239 0.0013,0.213388 0.0032,0.07115 0.009,0.142167 0.01767,0.212924 0.0085,0.06911 0.01984,0.138026 0.03398,0.206174 0.01413,0.06814 0.03095,0.135558 0.05049,0.202217 0.01955,0.06667 0.04178,0.132452 0.06655,0.1971 0.02477,0.06465 0.05212,0.128238 0.08191,0.190352 0.02979,0.06211 0.06196,0.122683 0.09657,0.18174 0.03461,0.05905 0.07154,0.116498 0.110765,0.171966 0.03924,0.05548 0.08083,0.108965 0.124497,0.160333 0.04366,0.05136 0.08941,0.100567 0.137292,0.147298 0.04789,0.04674 0.09793,0.09106 0.149863,0.132642 0.05192,0.04158 0.105736,0.08045 0.161494,0.116357 0.05575,0.03591 0.113503,0.06897 0.1729,0.09867 0.05939,0.0297 0.120536,0.05615 0.183369,0.07912 0.06283,0.02297 0.12731,0.04245 0.193376,0.05818 0.06607,0.01572 0.133573,0.02766 0.202684,0.0356 0.06911,0.008 0.139804,0.0117 0.21176,0.01144 0.07196,-3.71e-4 0.145298,-0.0048 0.219903,-0.01396 0.06861,-0.0084 0.136681,-0.02138 0.203848,-0.03839 0.06717,-0.01702 0.133437,-0.03817 0.198496,-0.06306 0.06506,-0.02489 0.128767,-0.05361 0.191047,-0.08563 0.06228,-0.03203 0.123148,-0.06723 0.181975,-0.105647 0.05883,-0.03842 0.115843,-0.07995 0.170572,-0.124033 0.05472,-0.04407 0.107138,-0.09085 0.157075,-0.139853 0.04994,-0.049 0.09723,-0.10017 0.141716,-0.153351 0.04449,-0.05319 0.08612,-0.108359 0.124495,-0.164987 l 0.187325,1.523969 c -0.112858,0.07126 -0.226097,0.138683 -0.340908,0.200822 -0.114816,0.06214 -0.231201,0.118773 -0.349985,0.16871 -0.05939,0.02497 -0.119354,0.04824 -0.180113,0.06958 -0.06076,0.02134 -0.122142,0.04086 -0.184534,0.05818 -0.0624,0.01732 -0.125859,0.03245 -0.190119,0.04537 -0.06427,0.01292 -0.129537,0.02352 -0.195934,0.03164 -0.11547,0.01417 -0.22978,0.02193 -0.34277,0.0235 -0.112991,0.0015 -0.224629,-0.0028 -0.33463,-0.01326 -0.109992,-0.01042 -0.218363,-0.02686 -0.324852,-0.04864 -0.106482,-0.02178 -0.210987,-0.04892 -0.31345,-0.08145 -0.10243,-0.03252 -0.202702,-0.07021 -0.300625,-0.11286 -0.09792,-0.04265 -0.193593,-0.09026 -0.286456,-0.142415 -0.09287,-0.05215 -0.18311,-0.109066 -0.270402,-0.170105 -0.08729,-0.06105 -0.171513,-0.126154 -0.252714,-0.19547 -0.08121,-0.06931 -0.159274,-0.14271 -0.233865,-0.219671 -0.0746,-0.07696 -0.145685,-0.157551 -0.213156,-0.241546 -0.06748,-0.084 -0.13145,-0.171381 -0.191283,-0.261789 -0.05984,-0.09041 -0.115636,-0.183972 -0.167312,-0.280174 -0.05167,-0.0962 -0.09918,-0.195083 -0.142182,-0.296463 -0.04301,-0.101379 -0.08137,-0.205185 -0.115189,-0.311123 -0.03381,-0.10593 -0.06292,-0.214047 -0.08703,-0.323921 -0.02413,-0.109876 -0.04334,-0.22143 -0.05724,-0.334627 -0.01431,-0.11646 -0.0235,-0.232703 -0.02746,-0.348354 -0.004,-0.11565 -0.0026,-0.230764 0.0035,-0.344865 0.0062,-0.114107 0.01728,-0.2272346 0.03328,-0.3390476 0.01598,-0.111818 0.0368,-0.222351 0.06237,-0.331135 0.02556,-0.108784 0.05586,-0.215879 0.09076,-0.320896 0.0349,-0.105018 0.07426,-0.207821 0.118208,-0.308332 0.04395,-0.100517 0.09246,-0.198639 0.145206,-0.293902 0.05275,-0.09527 0.109736,-0.187871 0.171037,-0.277149 0.0613,-0.08928 0.12681,-0.17528 0.1964,-0.257835 0.06958,-0.08256 0.143222,-0.161567 0.220835,-0.236658 0.07762,-0.07509 0.159189,-0.146268 0.24457,-0.213156 0.08538,-0.06688 0.174723,-0.12938 0.26761,-0.187325 0.09289,-0.05795 0.189341,-0.111368 0.289481,-0.159633 0.100145,-0.04827 0.203993,-0.09154 0.311126,-0.129384 0.107138,-0.03784 0.217739,-0.07012 0.3316,-0.0968 0.113863,-0.02668 0.231044,-0.04758 0.351382,-0.06237 0.06428,-0.0078 0.128715,-0.01368 0.193146,-0.01722 0.06443,-0.0035 0.128799,-0.0049 0.19314,-0.0042 z m 11.053853,0.681585 1.270328,0.224093 -1.149318,6.5142686 -1.270331,-0.224091 z m -17.936506,0.563373 c 0.109066,9.79e-4 0.21945,0.0077 0.328811,0.02025 0.109362,0.01247 0.217691,0.0309 0.322291,0.05539 0.104606,0.02448 0.205632,0.05498 0.300421,0.09192 0.04739,0.01848 0.09331,0.0386 0.137293,0.06028 0.044,0.02168 0.08592,0.04487 0.125896,0.06981 l -0.329041,1.026218 c -0.04104,-0.03159 -0.08257,-0.06106 -0.124724,-0.0882 -0.04216,-0.02713 -0.0851,-0.05193 -0.128458,-0.07424 -0.04334,-0.02229 -0.08712,-0.04203 -0.13171,-0.0591 -0.04459,-0.01707 -0.08978,-0.03158 -0.135668,-0.04304 -0.04589,-0.01144 -0.09261,-0.02012 -0.13985,-0.0256 -0.04725,-0.0055 -0.09514,-0.0076 -0.143812,-0.0068 -0.04866,9e-4 -0.0981,0.0049 -0.148233,0.0126 -0.05013,0.0077 -0.100991,0.01894 -0.152651,0.03374 -0.04957,0.01425 -0.09759,0.03309 -0.143346,0.05608 -0.04576,0.02299 -0.08934,0.04994 -0.130083,0.08051 -0.04074,0.03057 -0.07858,0.0647 -0.11309,0.101687 -0.03451,0.037 -0.06555,0.07689 -0.09261,0.119147 -0.02708,0.04226 -0.05023,0.08698 -0.06864,0.133339 -0.01842,0.04636 -0.03217,0.0945 -0.04072,0.14381 -0.0085,0.04931 -0.01183,0.09971 -0.0093,0.150791 0.0026,0.05108 0.0108,0.1028186 0.02561,0.1545146 0.0095,0.03347 0.02135,0.06475 0.03491,0.09401 0.01355,0.02926 0.02902,0.05652 0.04631,0.08191 0.0173,0.02539 0.03646,0.04887 0.05724,0.07074 0.02077,0.02187 0.04322,0.04206 0.06725,0.06074 0.04806,0.03735 0.102317,0.06877 0.161962,0.09541 0.05964,0.02663 0.124727,0.04864 0.194075,0.06726 0.06935,0.0186 0.14298,0.03371 0.220136,0.04701 0.07715,0.01329 0.157781,0.0247 0.240847,0.03537 0.166145,0.02135 0.342085,0.0401 0.520557,0.06725 0.08922,0.01358 0.179057,0.02933 0.268539,0.04841 0.08949,0.01908 0.178843,0.04159 0.266676,0.06887 0.08784,0.02728 0.174236,0.0593 0.258535,0.09751 0.08429,0.0382 0.166397,0.08244 0.245266,0.13427 0.03943,0.02591 0.07817,0.05372 0.115883,0.08355 0.03772,0.02983 0.07452,0.0618 0.110302,0.09588 0.03578,0.03407 0.07043,0.07024 0.104013,0.1089 0.0336,0.03866 0.0661,0.07974 0.09727,0.123339 0.03118,0.04359 0.06107,0.08983 0.08959,0.138689 0.02852,0.04886 0.0556,0.100287 0.08122,0.154748 0.02561,0.05446 0.04964,0.111806 0.07214,0.1722 0.02249,0.0604 0.04347,0.123903 0.0626,0.190584 0.0231,0.08046 0.04267,0.160397 0.05864,0.23945 0.01598,0.07906 0.02832,0.157191 0.03723,0.234564 0.0089,0.07737 0.01418,0.153795 0.01606,0.229212 0.0019,0.07542 2.65e-4,0.149975 -0.0046,0.22316 -0.005,0.07318 -0.01365,0.145036 -0.02561,0.215717 -0.01196,0.07068 -0.0273,0.140132 -0.04608,0.208035 -0.01876,0.0679 -0.04077,0.134345 -0.06632,0.199194 -0.02556,0.06485 -0.05454,0.128132 -0.0868,0.189652 -0.03151,0.06007 -0.06627,0.118311 -0.104245,0.174759 -0.03799,0.05644 -0.0792,0.11106 -0.123558,0.16359 -0.04437,0.05253 -0.09202,0.10292 -0.142648,0.151256 -0.05063,0.04834 -0.104246,0.0946 -0.16103,0.138458 -0.05679,0.04386 -0.116586,0.08542 -0.179412,0.124496 -0.06283,0.03907 -0.128799,0.07559 -0.197567,0.109606 -0.06877,0.03402 -0.140425,0.06558 -0.215019,0.09424 -0.0746,0.02867 -0.152159,0.05446 -0.232468,0.07749 -0.05485,0.01572 -0.109236,0.02921 -0.163356,0.04049 -0.05412,0.01131 -0.107897,0.02047 -0.161264,0.02746 -0.05337,0.0069 -0.106341,0.01183 -0.158938,0.01466 -0.05259,0.0028 -0.104812,0.0037 -0.156607,0.0026 -0.103589,-0.0023 -0.205501,-0.0126 -0.305773,-0.03002 -0.100272,-0.01747 -0.198975,-0.0423 -0.295765,-0.07376 -0.09679,-0.03146 -0.191711,-0.06948 -0.284829,-0.113786 -0.09314,-0.04432 -0.184346,-0.09478 -0.273658,-0.15079 -0.08931,-0.05602 -0.176702,-0.117745 -0.262023,-0.1843 -0.08532,-0.06656 -0.168537,-0.137905 -0.24969,-0.213854 l 0.203613,-0.352545 0.376283,-0.658081 c 0.03861,0.05508 0.08133,0.108206 0.127516,0.158469 0.0462,0.05027 0.09586,0.09777 0.148463,0.141949 0.0526,0.04418 0.108077,0.08488 0.165917,0.121706 0.05783,0.03682 0.117978,0.06978 0.179882,0.09797 0.06191,0.0282 0.125551,0.05175 0.19035,0.07005 0.0648,0.0183 0.13081,0.03127 0.197331,0.0384 0.06652,0.0071 0.133514,0.0084 0.200591,0.003 0.06708,-0.0053 0.134128,-0.01703 0.200589,-0.03606 0.06328,-0.01814 0.121835,-0.04221 0.175226,-0.0712 0.05338,-0.02899 0.101777,-0.06294 0.145206,-0.101223 0.04343,-0.03829 0.08177,-0.08082 0.115189,-0.126824 0.03341,-0.046 0.06183,-0.09561 0.08517,-0.147766 0.02336,-0.05216 0.04171,-0.107073 0.05491,-0.163822 0.01323,-0.05674 0.02117,-0.115226 0.02421,-0.174993 0.003,-0.05976 0.0011,-0.120755 -0.0063,-0.181972 -0.0072,-0.06121 -0.01945,-0.122734 -0.037,-0.183834 -0.01183,-0.04112 -0.02561,-0.07965 -0.04095,-0.115882 -0.01535,-0.03623 -0.03236,-0.07001 -0.05097,-0.101687 -0.0186,-0.03169 -0.03869,-0.06142 -0.06027,-0.08889 -0.02159,-0.02748 -0.0446,-0.05273 -0.06887,-0.07632 -0.02429,-0.02359 -0.04986,-0.04533 -0.07657,-0.06539 -0.02669,-0.02006 -0.05449,-0.03855 -0.08331,-0.05539 -0.05765,-0.03368 -0.119354,-0.06114 -0.183835,-0.08401 -0.06448,-0.02287 -0.131774,-0.04112 -0.200825,-0.05585 -0.06904,-0.01473 -0.139951,-0.02609 -0.211293,-0.03537 -0.142719,-0.01856 -0.287682,-0.02877 -0.42608,-0.04166 -0.114403,-0.01286 -0.225562,-0.02793 -0.333229,-0.04631 -0.107665,-0.01839 -0.211789,-0.04027 -0.311822,-0.06655 -0.100029,-0.02629 -0.19612,-0.05698 -0.287621,-0.09355 -0.04574,-0.01828 -0.09036,-0.03806 -0.133805,-0.05934 -0.04346,-0.02129 -0.08578,-0.04405 -0.126823,-0.06864 -0.04104,-0.0246 -0.08087,-0.05093 -0.119377,-0.07912 -0.03851,-0.0282 -0.07559,-0.05844 -0.111472,-0.09053 -0.03587,-0.03209 -0.07043,-0.06611 -0.10355,-0.102395 -0.03312,-0.03628 -0.06492,-0.07465 -0.09517,-0.115418 -0.03026,-0.04077 -0.05904,-0.08383 -0.08633,-0.129383 -0.0273,-0.04555 -0.05305,-0.09365 -0.07726,-0.144274 -0.02421,-0.05062 -0.04671,-0.103873 -0.06772,-0.159867 -0.02101,-0.05599 -0.04047,-0.114724 -0.05818,-0.176389 -0.01889,-0.06589 -0.03461,-0.131936 -0.04701,-0.197797 -0.01233,-0.06585 -0.02141,-0.131425 -0.02746,-0.196867 -0.006,-0.06544 -0.009,-0.130597 -0.0089,-0.195236 2.38e-4,-0.06463 0.0033,-0.1287606 0.0095,-0.1922116 0.0062,-0.06345 0.01537,-0.126372 0.02746,-0.188256 0.01209,-0.06188 0.02706,-0.122747 0.04491,-0.182672 0.01786,-0.05993 0.03846,-0.1188 0.06189,-0.176388 0.02344,-0.05757 0.04977,-0.113849 0.07865,-0.168708 0.02888,-0.05486 0.06053,-0.10836 0.09471,-0.1601 0.03417,-0.05175 0.07075,-0.101841 0.110069,-0.150093 0.03932,-0.04825 0.08136,-0.09455 0.125667,-0.138923 0.04431,-0.04437 0.09095,-0.08672 0.140086,-0.126822 0.04914,-0.0401 0.100698,-0.07811 0.154514,-0.113555 0.05382,-0.03546 0.109889,-0.06848 0.168243,-0.0989 0.05836,-0.03042 0.119007,-0.05808 0.181743,-0.08307 0.06274,-0.02501 0.127568,-0.04735 0.19454,-0.06655 0.053,-0.01522 0.108373,-0.02843 0.165452,-0.03956 0.05709,-0.01119 0.116101,-0.02011 0.176622,-0.02723 0.06052,-0.0071 0.122399,-0.01222 0.185695,-0.01536 0.06331,-0.0032 0.127942,-0.0046 0.193376,-0.004 z m 22.994305,0.544756 c 0.05215,1.79e-4 0.104772,0.0024 0.157538,0.0069 0.05277,0.0045 0.105738,0.01119 0.158938,0.02025 0.0532,0.009 0.106648,0.02031 0.160102,0.03398 0.05346,0.01367 0.107034,0.02975 0.16056,0.04816 0.05215,0.01791 0.104862,0.03876 0.158009,0.06237 0.05315,0.02361 0.106664,0.05003 0.160332,0.07889 0.05367,0.02886 0.107564,0.06011 0.161258,0.09378 0.05369,0.03366 0.10732,0.06971 0.160568,0.107743 0.08875,0.06335 0.175429,0.132071 0.257836,0.20501 0.0824,0.07294 0.160372,0.15012 0.232003,0.230142 0.07164,0.08002 0.13693,0.162992 0.193376,0.247596 0.02824,0.0423 0.05412,0.08501 0.07772,0.12798 0.0236,0.04298 0.04485,0.08604 0.0633,0.1293826 l -0.858673,0.651798 c -0.01548,-0.0494 -0.03246,-0.09719 -0.05143,-0.143576 -0.01894,-0.0464 -0.0399,-0.09139 -0.0626,-0.134502 -0.0227,-0.04311 -0.04727,-0.08449 -0.074,-0.124033 -0.02671,-0.03955 -0.05556,-0.07716 -0.08657,-0.112859 -0.03102,-0.0357 -0.06427,-0.06942 -0.09983,-0.100993 -0.03558,-0.03158 -0.07342,-0.06103 -0.1138,-0.0882 -0.0404,-0.02717 -0.08322,-0.05199 -0.128682,-0.07447 -0.04546,-0.02247 -0.0937,-0.04254 -0.144511,-0.06004 -0.04878,-0.01674 -0.09873,-0.0289 -0.149391,-0.0363 -0.05068,-0.0075 -0.101971,-0.01003 -0.15289,-0.0084 -0.05091,0.0017 -0.10152,0.0078 -0.151024,0.01838 -0.0495,0.01054 -0.09784,0.02534 -0.144274,0.04445 -0.04643,0.0191 -0.09096,0.04262 -0.132644,0.07005 -0.0417,0.02743 -0.08058,0.05876 -0.115882,0.09424 -0.03531,0.03549 -0.067,0.07492 -0.09424,0.118209 -0.02724,0.04329 -0.05017,0.09041 -0.06772,0.141249 -0.0113,0.03291 -0.01969,0.0653 -0.02535,0.09703 -0.0057,0.03175 -0.0087,0.06283 -0.0091,0.09355 -2.65e-4,0.03072 0.0019,0.06093 0.0063,0.09076 0.0045,0.02983 0.0113,0.05935 0.02027,0.08843 0.01791,0.05815 0.0444,0.114801 0.07795,0.170805 0.0336,0.056 0.07418,0.111381 0.120306,0.166381 0.04612,0.05499 0.09778,0.109632 0.153352,0.164753 0.05558,0.05512 0.115173,0.110713 0.177086,0.167081 0.123841,0.112732 0.257299,0.229163 0.387913,0.353707 0.0653,0.06227 0.129866,0.12645 0.192215,0.193377 0.06235,0.06692 0.122425,0.136494 0.178713,0.209199 0.05629,0.07271 0.108786,0.148662 0.155916,0.228281 0.04713,0.07962 0.08893,0.162955 0.123788,0.25062 0.01741,0.04383 0.03324,0.08868 0.047,0.134736 0.01378,0.04605 0.02566,0.09329 0.0354,0.141715 0.0098,0.04842 0.01725,0.098 0.02257,0.148928 0.0053,0.05093 0.0084,0.103269 0.0089,0.156843 5.29e-4,0.05358 -0.0013,0.108386 -0.006,0.164753 -0.0046,0.05637 -0.01209,0.114299 -0.02233,0.173596 -0.01029,0.0593 -0.02336,0.120073 -0.03959,0.182439 -0.01625,0.06237 -0.03558,0.126167 -0.05818,0.191745 -0.02724,0.07915 -0.05707,0.155767 -0.08936,0.229678 -0.03228,0.07392 -0.06714,0.145138 -0.104246,0.21362 -0.0371,0.06849 -0.07649,0.134234 -0.118208,0.1971 -0.04175,0.06287 -0.0858,0.122825 -0.131942,0.179879 -0.04614,0.05706 -0.0944,0.111137 -0.14474,0.162194 -0.05035,0.05106 -0.10273,0.09918 -0.157078,0.144043 -0.05435,0.04486 -0.110802,0.08672 -0.168942,0.12519 -0.05814,0.03848 -0.118144,0.07352 -0.17988,0.105415 -0.06029,0.03114 -0.122179,0.05909 -0.185692,0.08355 -0.06351,0.02445 -0.128519,0.04546 -0.195006,0.06306 -0.0665,0.0176 -0.134403,0.03178 -0.203615,0.04235 -0.06921,0.01054 -0.139843,0.01758 -0.211529,0.02094 -0.07168,0.0033 -0.144381,0.0031 -0.218276,-9.53e-4 -0.07389,-0.004 -0.148942,-0.0117 -0.22479,-0.02327 -0.07586,-0.01157 -0.152591,-0.02703 -0.230143,-0.04631 -0.07755,-0.01927 -0.156027,-0.0424 -0.235029,-0.06958 -0.05395,-0.01856 -0.106265,-0.03872 -0.157078,-0.0605 -0.05081,-0.02178 -0.100039,-0.04518 -0.147762,-0.07005 -0.04773,-0.02487 -0.09397,-0.0513 -0.138692,-0.07912 -0.04472,-0.02781 -0.08785,-0.05709 -0.129614,-0.08772 -0.08352,-0.06128 -0.161287,-0.128109 -0.233405,-0.199893 -0.07212,-0.07179 -0.138663,-0.148414 -0.199893,-0.229676 -0.06123,-0.08126 -0.117141,-0.167212 -0.168007,-0.256904 -0.05086,-0.08969 -0.09652,-0.183092 -0.137528,-0.280173 -0.04103,-0.09708 -0.07721,-0.197687 -0.1089,-0.301117 -0.03171,-0.103423 -0.05901,-0.209832 -0.08191,-0.31857 l 0.369271,-0.171968 0.685776,-0.323225 c 1.9e-5,0.06726 0.0045,0.135028 0.01352,0.202684 0.009,0.06765 0.02257,0.135176 0.04026,0.201522 0.01773,0.06634 0.03959,0.131683 0.06585,0.195003 0.02625,0.06332 0.05669,0.12456 0.09122,0.183137 0.03453,0.05858 0.07331,0.11448 0.115883,0.166615 0.0426,0.05213 0.08898,0.100543 0.139387,0.144508 0.0504,0.04397 0.104659,0.08342 0.162661,0.117514 0.05799,0.0341 0.119869,0.0629 0.185235,0.0854 0.06225,0.02142 0.123698,0.03527 0.184068,0.04212 0.06038,0.0068 0.119531,0.0067 0.177083,2.38e-4 0.05755,-0.0064 0.11354,-0.0194 0.167317,-0.03793 0.05377,-0.01853 0.105465,-0.0428 0.154511,-0.07214 0.04905,-0.02934 0.09554,-0.06371 0.138928,-0.102626 0.04341,-0.03891 0.08353,-0.08216 0.120303,-0.129383 0.03674,-0.04722 0.07016,-0.09836 0.09936,-0.152651 0.02922,-0.0543 0.05423,-0.111858 0.07493,-0.171967 0.01392,-0.04045 0.02503,-0.07997 0.03327,-0.11844 0.0082,-0.03848 0.0136,-0.076 0.01651,-0.112628 0.0032,-0.03663 0.0032,-0.07217 0.0013,-0.107048 -0.0019,-0.03488 -0.0062,-0.06892 -0.01259,-0.102163 -0.0063,-0.03325 -0.01476,-0.06578 -0.02511,-0.0975 -0.0104,-0.03173 -0.02257,-0.06276 -0.03651,-0.09309 -0.02787,-0.06065 -0.06246,-0.118593 -0.10215,-0.174294 -0.03968,-0.0557 -0.08454,-0.109144 -0.132643,-0.160798 -0.04811,-0.05165 -0.09953,-0.101584 -0.152657,-0.150093 -0.106236,-0.09702 -0.219115,-0.188659 -0.325086,-0.278544 -0.08635,-0.07609 -0.169021,-0.151974 -0.246663,-0.228747 -0.07764,-0.07677 -0.150262,-0.154292 -0.217112,-0.233168 -0.06686,-0.07888 -0.127772,-0.159147 -0.181739,-0.241543 -0.02697,-0.0412 -0.05225,-0.08308 -0.07563,-0.125422 -0.02339,-0.04235 -0.04494,-0.08524 -0.06445,-0.128917 -0.0195,-0.04368 -0.03702,-0.08793 -0.05235,-0.133105 -0.01535,-0.04517 -0.02854,-0.09114 -0.03954,-0.137992 -0.01093,-0.04685 -0.01976,-0.09464 -0.02609,-0.143346 -0.0063,-0.04872 -0.01027,-0.09842 -0.01156,-0.149162 -0.0013,-0.05075 -1.22e-4,-0.102483 0.0036,-0.155444 0.0036,-0.05296 0.01016,-0.107087 0.01931,-0.162427 0.0093,-0.05535 0.02135,-0.11196 0.0363,-0.169873 0.0149,-0.05791 0.03264,-0.117128 0.05352,-0.177784 0.01778,-0.05165 0.03743,-0.1022146 0.05864,-0.1514896 0.02117,-0.04928 0.04404,-0.09725 0.06841,-0.144042 0.04881,-0.09359 0.103883,-0.182103 0.16452,-0.265049 0.06063,-0.08294 0.12673,-0.160384 0.197797,-0.231771 0.07107,-0.07138 0.147016,-0.1368 0.227116,-0.195702 0.0801,-0.0589 0.164507,-0.111343 0.252254,-0.156842 0.08774,-0.0455 0.178969,-0.08402 0.272957,-0.115186 0.04699,-0.01558 0.09459,-0.02937 0.142881,-0.04119 0.04829,-0.01183 0.09721,-0.0216 0.146605,-0.02956 0.04941,-0.008 0.09949,-0.01395 0.149858,-0.01792 0.05036,-0.004 0.101044,-0.0059 0.152191,-0.0058 z m 3.807251,1.4399616 3.616436,1.609137 -0.457031,1.025753 -1.218896,-0.542198 -2.23511,5.017064 -1.178642,-0.524977 2.23511,-5.016598 -1.218895,-0.542662 z m -33.368896,0.216879 5.057101,5.182514 -1.259391,0.560348 -1.032504,-1.067406 -0.898232,0.399782 -0.42468,-0.963388 0.565465,-0.251783 -1.28475,-1.380158 -1.032272,-2.342381 z m -0.637839,0.283897 0.971767,2.204622 0.238522,2.010548 0.541264,-0.241078 0.424685,0.963387 -0.874265,0.389078 0.07051,1.495345 -1.242864,0.553366 -0.406067,-7.252402 z m -3.499386,1.81787 0.612009,0.942213 -1.671273,1.084392 0.793517,1.221688 1.568184,-1.017841 0.611778,0.941747 -1.567953,1.017375 1.587033,2.442908 -1.082068,0.702295 -3.6048,-5.54739 z m 42.657696,0.229445 1.117438,0.644818 -3.309265,5.728435 -1.117672,-0.64482 z m -21.462421,2.599053 c 13.852189,0 25.759072,8.022014 31.344615,19.690343 h -1.33827 l -1.04205,-0.612703 c -3.997095,-3.603099 -5.721641,-5.874829 -9.953861,-7.519779 -6.510096,-2.530403 -11.912674,2.428308 -17.477385,3.916846 -8.550219,2.28676 -16.420745,1.688937 -23.631212,-3.089123 -0.774741,-0.5136 -1.040674,-1.017898 -1.645674,-1.723628 -1.434737,1.588453 -2.777553,3.305392 -3.983408,5.139931 H 20.837555 C 27.01769,21.536306 37.746999,15.25895 49.999414,15.25895 Z m 25.115856,0.01396 h 2.41e-4 c 0.05091,-4.3e-5 0.101955,0.0021 0.152887,0.0063 0.05102,0.0042 0.102073,0.01054 0.152884,0.01908 0.05081,0.0085 0.101328,0.01922 0.151723,0.03212 0.0504,0.0129 0.100568,0.02811 0.150325,0.04537 0.04977,0.01728 0.09909,0.03671 0.147998,0.05841 0.04891,0.02169 0.09737,0.04551 0.145206,0.07168 0.04784,0.02615 0.09517,0.05453 0.141716,0.08517 0.04654,0.03065 0.09226,0.06372 0.1373,0.0989 0.05662,0.04418 0.113194,0.09379 0.168709,0.148233 0.05552,0.05444 0.110236,0.113695 0.163356,0.176388 0.05311,0.06269 0.104646,0.128842 0.154051,0.197796 0.04941,0.06895 0.09662,0.14063 0.141013,0.213854 0.04656,0.07708 0.09003,0.15618 0.129389,0.236192 0.03936,0.08001 0.07461,0.161052 0.104709,0.242012 0.03009,0.08096 0.05496,0.161857 0.07376,0.241776 0.01881,0.07992 0.03156,0.158838 0.03702,0.235729 l -1.034595,0.33672 c 0.0013,-0.05175 7.94e-4,-0.102818 -0.0019,-0.152885 -0.0027,-0.05007 -0.0077,-0.0991 -0.01513,-0.1473 -0.0075,-0.0482 -0.01738,-0.09534 -0.02976,-0.141484 -0.01233,-0.04614 -0.02721,-0.0913 -0.0449,-0.1352 -0.0177,-0.04391 -0.03809,-0.08674 -0.06143,-0.128225 -0.02336,-0.04148 -0.04978,-0.08167 -0.07912,-0.120534 -0.02937,-0.03887 -0.06159,-0.07632 -0.09728,-0.112397 -0.03567,-0.03608 -0.07467,-0.0707 -0.117052,-0.103783 -0.04067,-0.03172 -0.08407,-0.05948 -0.129383,-0.08307 -0.04531,-0.02359 -0.09267,-0.04303 -0.141018,-0.05818 -0.04834,-0.01515 -0.09774,-0.02598 -0.147534,-0.03235 -0.0498,-0.0063 -0.09975,-0.0084 -0.149395,-0.0055 -0.04964,0.0027 -0.09893,0.01016 -0.146835,0.02235 -0.04789,0.01208 -0.09459,0.02907 -0.139155,0.05096 -0.04454,0.0219 -0.08697,0.04879 -0.126593,0.08074 -0.03963,0.03196 -0.0765,0.06889 -0.109606,0.111227 -0.02143,0.02744 -0.0399,0.05538 -0.05562,0.08353 -0.01572,0.02817 -0.02868,0.05673 -0.03909,0.08564 -0.0104,0.0289 -0.01823,0.05808 -0.02373,0.08772 -0.0055,0.02965 -0.0085,0.05966 -0.0095,0.09005 -0.0019,0.06082 0.0045,0.12321 0.01791,0.187094 0.01347,0.06387 0.0339,0.129398 0.05957,0.196401 0.02567,0.067 0.05646,0.135519 0.09099,0.205709 0.03453,0.07019 0.07275,0.14181 0.112858,0.215249 0.08024,0.146876 0.168296,0.300508 0.251087,0.46075 0.04139,0.08013 0.08137,0.161948 0.118454,0.245501 0.03711,0.08356 0.07128,0.168691 0.100761,0.25574 0.02949,0.08706 0.05427,0.175842 0.07284,0.266444 0.01855,0.0906 0.03099,0.183154 0.0354,0.277382 0.0024,0.04711 0.0024,0.09462 2.36e-4,0.142647 -0.0019,0.04803 -0.0062,0.09648 -0.01273,0.145439 -0.0066,0.04896 -0.01545,0.09834 -0.02701,0.14823 -0.01156,0.04989 -0.02585,0.100427 -0.04283,0.151258 -0.01696,0.05082 -0.03675,0.102047 -0.05957,0.153816 -0.02278,0.05178 -0.04846,0.104117 -0.07749,0.156841 -0.02904,0.05273 -0.06137,0.105712 -0.09703,0.1594 -0.03567,0.05369 -0.07478,0.108 -0.117515,0.16266 -0.05099,0.06524 -0.103679,0.127312 -0.157773,0.186163 -0.05409,0.05885 -0.10948,0.114505 -0.166381,0.166847 -0.05691,0.05234 -0.115329,0.101365 -0.17476,0.147067 -0.05943,0.04571 -0.12006,0.08811 -0.181742,0.127054 -0.06168,0.03894 -0.124381,0.07452 -0.188021,0.106573 -0.06364,0.03207 -0.128289,0.06058 -0.193612,0.08563 -0.06533,0.02505 -0.131304,0.04656 -0.19803,0.06445 -0.06673,0.01791 -0.134149,0.03217 -0.201985,0.04281 -0.06783,0.01067 -0.136107,0.01769 -0.204777,0.02095 -0.06867,0.0032 -0.137652,0.0027 -0.206878,-0.0017 -0.06922,-0.0042 -0.138546,-0.01234 -0.208031,-0.0242 -0.06949,-0.01196 -0.139028,-0.02757 -0.208502,-0.04724 -0.06948,-0.01967 -0.139102,-0.04317 -0.208272,-0.07074 -0.06918,-0.02757 -0.138041,-0.05912 -0.206637,-0.09471 -0.06859,-0.03559 -0.136814,-0.07518 -0.20455,-0.118915 -0.06773,-0.04373 -0.134937,-0.09157 -0.20152,-0.143579 -0.04494,-0.0351 -0.08798,-0.0713 -0.12892,-0.108435 -0.04094,-0.03713 -0.07979,-0.07543 -0.116806,-0.114494 -0.03702,-0.03906 -0.07219,-0.07897 -0.105415,-0.119841 -0.03324,-0.04087 -0.0645,-0.08261 -0.09401,-0.12519 -0.05903,-0.08518 -0.110636,-0.173623 -0.155445,-0.265048 -0.04481,-0.09143 -0.08282,-0.185886 -0.114261,-0.282733 -0.03144,-0.09684 -0.0563,-0.196179 -0.07516,-0.297626 -0.01887,-0.101442 -0.03171,-0.20497 -0.03887,-0.310193 -0.0072,-0.105223 -0.0087,-0.212022 -0.0049,-0.320198 0.0036,-0.10818 0.01273,-0.217571 0.02652,-0.327878 l 1.159791,-0.12542 c -0.02193,0.06359 -0.03968,0.129354 -0.05329,0.196399 -0.0136,0.06705 -0.02297,0.135318 -0.02793,0.204082 -0.005,0.06876 -0.0055,0.137899 -0.0013,0.206639 0.0041,0.06873 0.01259,0.137101 0.02606,0.20408 0.01342,0.06697 0.0318,0.132692 0.05492,0.196168 0.02315,0.06348 0.05125,0.124674 0.08447,0.182904 0.03324,0.05823 0.07152,0.113503 0.115186,0.164754 0.04368,0.05125 0.09262,0.09849 0.147071,0.141015 0.05187,0.04051 0.105416,0.07369 0.160333,0.09961 0.05491,0.02592 0.111148,0.04475 0.167777,0.05701 0.05664,0.01221 0.113774,0.0177 0.170805,0.01722 0.05703,-5.02e-4 0.114003,-0.0071 0.170106,-0.01931 0.05611,-0.01234 0.111355,-0.03015 0.165219,-0.05329 0.05386,-0.02314 0.106328,-0.05162 0.156606,-0.0847 0.05028,-0.03308 0.09842,-0.07078 0.143812,-0.112859 0.04539,-0.04208 0.08789,-0.08855 0.127056,-0.13869 0.02635,-0.0337 0.04953,-0.06729 0.0698,-0.100993 0.02032,-0.0337 0.0377,-0.06732 0.05237,-0.100993 0.01469,-0.03367 0.02674,-0.06738 0.0363,-0.100992 0.0095,-0.03361 0.01656,-0.06724 0.02138,-0.100761 0.0048,-0.03352 0.0072,-0.06691 0.0077,-0.100299 5.29e-4,-0.03339 -7.94e-4,-0.06683 -0.0045,-0.100067 -0.0067,-0.06647 -0.02077,-0.132622 -0.04026,-0.198263 -0.0195,-0.06564 -0.04458,-0.130683 -0.0733,-0.195237 -0.02872,-0.06456 -0.06114,-0.128545 -0.09564,-0.191746 -0.06899,-0.126412 -0.145962,-0.249829 -0.216876,-0.3693 -0.04829,-0.08497 -0.09411,-0.168974 -0.136599,-0.252248 -0.04247,-0.08328 -0.08168,-0.16582 -0.116819,-0.247828 -0.03513,-0.082 -0.06612,-0.163631 -0.09238,-0.244804 -0.02625,-0.08117 -0.04768,-0.16194 -0.06353,-0.242709 -0.01585,-0.08077 -0.02611,-0.161445 -0.03003,-0.242242 -0.0041,-0.08079 -0.0013,-0.161686 0.0081,-0.242941 0.0096,-0.08126 0.02617,-0.162889 0.05074,-0.245037 0.02458,-0.08214 0.05705,-0.164822 0.0982,-0.248292 0.02935,-0.05922 0.06429,-0.11889 0.103783,-0.178949 0.0395,-0.06005 0.0837,-0.1206 0.131477,-0.181507 0.04751,-0.06075 0.09756,-0.118221 0.149863,-0.172433 0.0523,-0.05422 0.10683,-0.105159 0.163359,-0.152653 0.05653,-0.04749 0.115043,-0.09161 0.175223,-0.132174 0.06018,-0.04058 0.121975,-0.07753 0.185226,-0.110996 0.06326,-0.03347 0.127852,-0.06341 0.193612,-0.08959 0.06575,-0.02618 0.132683,-0.04856 0.200358,-0.06725 0.06765,-0.0187 0.136224,-0.03366 0.205243,-0.04468 0.06902,-0.01106 0.138483,-0.01803 0.208267,-0.02118 0.02706,-0.0012 0.05436,-0.0018 0.08145,-0.0018 z m -50.81556,0.174759 4.074859,5.212766 -1.016912,0.793749 -4.074627,-5.212534 z m -2.434772,1.899085 0.780485,0.808175 -0.959664,0.925923 3.817023,3.950588 -0.928251,0.895903 -3.817025,-3.950354 -0.959667,0.925922 -0.780718,-0.807477 z m 57.523921,2.300261 c 0.10485,-2.39e-4 0.20931,0.0044 0.31345,0.01419 0.10415,0.0098 0.2079,0.02465 0.31066,0.04468 0.10277,0.02004 0.20461,0.04536 0.30531,0.07586 0.10068,0.0305 0.20015,0.06611 0.29809,0.10728 0.0979,0.04117 0.19428,0.08783 0.28879,0.139854 0.0945,0.05203 0.18722,0.109555 0.27761,0.172665 0.0904,0.0631 0.17852,0.131789 0.26412,0.206174 0.0856,0.07439 0.16865,0.154514 0.24875,0.240382 0.0442,0.04733 0.0865,0.09591 0.12729,0.145905 0.0408,0.04999 0.0798,0.101404 0.11705,0.153817 0.0373,0.05242 0.0728,0.105968 0.10657,0.160562 0.0338,0.05459 0.0659,0.110083 0.0961,0.166616 0.0605,0.113066 0.11375,0.229937 0.15987,0.349287 0.0461,0.119352 0.0852,0.241176 0.11658,0.364877 l -1.13024,1.053211 c 0.01,-0.07026 0.0149,-0.140918 0.0165,-0.211293 0.002,-0.07038 -2.6e-4,-0.14038 -0.007,-0.210132 -0.006,-0.06975 -0.0159,-0.139179 -0.0293,-0.207569 -0.0134,-0.06839 -0.0304,-0.135926 -0.051,-0.20222 -0.0206,-0.06629 -0.0448,-0.131315 -0.0724,-0.194771 -0.0275,-0.06345 -0.0583,-0.125343 -0.0926,-0.185231 -0.0343,-0.05987 -0.0721,-0.117797 -0.11285,-0.173363 -0.0408,-0.05557 -0.0848,-0.108643 -0.13195,-0.159169 -0.0528,-0.05653 -0.10734,-0.108759 -0.16359,-0.156376 -0.0562,-0.04761 -0.11412,-0.09085 -0.17336,-0.129847 -0.0593,-0.03901 -0.11996,-0.07379 -0.18175,-0.10449 -0.0618,-0.0307 -0.12462,-0.05733 -0.18848,-0.08005 -0.0639,-0.02272 -0.12861,-0.0415 -0.19408,-0.05654 -0.0655,-0.01504 -0.13166,-0.02628 -0.19826,-0.03398 -0.0666,-0.0077 -0.13356,-0.0117 -0.20082,-0.01234 -0.0673,-5.82e-4 -0.13475,0.0021 -0.20222,0.0081 -0.0675,0.006 -0.13502,0.01543 -0.20222,0.02793 -0.0672,0.01247 -0.13414,0.02817 -0.20059,0.04677 -0.0665,0.01861 -0.13232,0.04008 -0.19757,0.06445 -0.0652,0.02439 -0.1298,0.05158 -0.19337,0.08145 -0.0636,0.02985 -0.12614,0.06249 -0.18756,0.09751 -0.06142,0.03502 -0.121769,0.07253 -0.180578,0.112397 -0.05881,0.03987 -0.11601,0.08218 -0.171731,0.126591 -0.05572,0.0444 -0.109789,0.09077 -0.161964,0.139387 -0.05095,0.04749 -0.09996,0.09723 -0.146836,0.148698 -0.04686,0.05147 -0.09179,0.104658 -0.134268,0.159635 -0.04247,0.05498 -0.08253,0.111624 -0.120304,0.16964 -0.03777,0.05801 -0.07311,0.117436 -0.105881,0.178017 -0.03279,0.06058 -0.06305,0.12231 -0.09053,0.184998 -0.02746,0.06269 -0.05217,0.126489 -0.07399,0.190815 -0.02183,0.06433 -0.04085,0.12928 -0.05678,0.194773 -0.01587,0.06549 -0.02877,0.131372 -0.03842,0.197565 -0.0096,0.06619 -0.01622,0.132772 -0.01932,0.199193 -0.0032,0.06642 -0.0027,0.132772 7.94e-4,0.198959 0.0036,0.06619 0.0108,0.13208 0.02167,0.197566 0.0108,0.06548 0.0254,0.130461 0.04373,0.19477 0.01831,0.06431 0.04044,0.128146 0.06655,0.190816 0.02612,0.06268 0.05635,0.1242 0.09053,0.184767 0.03417,0.06056 0.0724,0.120033 0.114956,0.178017 0.04256,0.05799 0.08929,0.114467 0.140547,0.169407 0.04712,0.05053 0.09776,0.09811 0.151024,0.142413 0.05325,0.04431 0.109159,0.08536 0.167548,0.123326 0.05838,0.03797 0.119197,0.07272 0.181745,0.104259 0.06254,0.03154 0.126756,0.05994 0.192442,0.08493 0.0657,0.02499 0.132738,0.04658 0.200586,0.06493 0.0679,0.01834 0.13669,0.03333 0.20571,0.04491 0.069,0.01157 0.13838,0.01972 0.20757,0.02443 0.0692,0.0048 0.13804,0.006 0.20641,0.0037 l -1.123256,1.046929 c -0.124047,-0.04935 -0.245242,-0.101519 -0.363016,-0.157772 -0.117772,-0.05626 -0.23208,-0.116703 -0.342305,-0.183371 -0.05512,-0.03333 -0.109209,-0.06813 -0.162192,-0.104708 -0.053,-0.03659 -0.104979,-0.07491 -0.155681,-0.115188 -0.05071,-0.04028 -0.100208,-0.08264 -0.14846,-0.127052 -0.04827,-0.04441 -0.09513,-0.09089 -0.14079,-0.139854 -0.07933,-0.08503 -0.152924,-0.172997 -0.220602,-0.263419 -0.06768,-0.09042 -0.129477,-0.1835 -0.185698,-0.278545 -0.05621,-0.09504 -0.106765,-0.191991 -0.151723,-0.290879 -0.04499,-0.09888 -0.08432,-0.199635 -0.118221,-0.301581 -0.0339,-0.101943 -0.06237,-0.205267 -0.0854,-0.309495 -0.02305,-0.10422 -0.04071,-0.209352 -0.05306,-0.31508 -0.01233,-0.105724 -0.0195,-0.211887 -0.02138,-0.318335 -0.0019,-0.106444 0.0013,-0.213115 0.0098,-0.319501 0.0084,-0.106391 0.02201,-0.212558 0.04049,-0.318103 0.01847,-0.105546 0.0417,-0.210458 0.07005,-0.314383 0.02832,-0.103924 0.06159,-0.206808 0.09959,-0.30833 0.03801,-0.101519 0.08073,-0.201845 0.128225,-0.300186 0.04749,-0.09835 0.09983,-0.194873 0.156607,-0.289248 0.05678,-0.09437 0.118208,-0.186351 0.184068,-0.275986 0.06587,-0.08963 0.136072,-0.17675 0.210828,-0.260858 0.07475,-0.08411 0.153913,-0.165369 0.237357,-0.243177 0.08855,-0.08252 0.180277,-0.160296 0.27459,-0.233399 0.09431,-0.07311 0.191156,-0.141576 0.290412,-0.20501 0.09926,-0.06344 0.200774,-0.121924 0.304147,-0.175458 0.103372,-0.05354 0.20864,-0.102059 0.315309,-0.145439 0.106677,-0.04338 0.214789,-0.08151 0.323921,-0.114493 0.10915,-0.03297 0.21943,-0.06075 0.33021,-0.08307 0.11079,-0.02232 0.22208,-0.0393 0.3337,-0.05073 0.11161,-0.01144 0.22347,-0.01718 0.33509,-0.01746 z m -61.761207,1.910951 5.319122,4.153505 -0.572914,0.73278 -5.790578,-0.101918 -0.01093,0.01396 3.541505,2.765202 -0.794448,1.041576 -5.353795,-4.20563 0.572915,-0.73278 5.790812,0.101687 0.01067,-0.01373 -3.507066,-2.738442 z m 66.769907,2.359602 0.68345,1.093934 -2.21091,1.380624 1.2652,2.023812 2.21114,-1.38109 0.68392,1.093934 -5.61326,3.505195 -0.68345,-1.0937 2.4976,-1.583539 -1.25427,-2.006826 -2.50877,1.566786 -0.68368,-1.093702 z m -72.764799,6.28692 7.193312,0.846803 -0.625738,1.227507 -1.474639,-0.180113 -0.469129,0.920338 -0.92988,-0.494959 0.296928,-0.582687 -1.895363,-0.268538 -2.23674,-1.190969 z m 76.647909,0.09284 1.3925,3.125661 -1.02669,0.456559 -0.86728,-1.947254 -1.33106,0.591998 0.83517,1.875581 -1.02622,0.456792 -0.83564,-1.875345 -1.63567,0.727892 0.86752,1.947484 -1.02669,0.456563 -1.39226,-3.125658 z m -76.952516,0.504964 2.15064,1.145129 1.431822,1.39319 0.252946,-0.496121 0.929648,0.494956 -0.411419,0.807247 0.996434,1.117901 -0.617593,1.211914 -4.882105,-5.380778 z m 8.810828,1.382253 h 1.422048 c -2.698907,4.420116 -4.592474,9.476643 -5.09503,15.029781 -0.02219,0.245144 0.0382,0.383548 0.07818,0.626435 1.724339,1.409957 14.141941,13.059093 31.462592,6.871005 1.681983,-0.600888 3.229192,-0.894464 4.693386,-0.942676 v 1.226804 c -2.984688,0.160859 -5.685095,1.683305 -9.317191,2.300959 -10.921352,1.857449 -18.924531,-1.457303 -26.838787,-8.005892 -5.82e-4,0.762125 0.03781,1.195226 0.156842,1.947953 0.111073,0.702127 0.250807,1.256231 0.428872,1.775055 h -1.732706 c -0.08609,-1.001234 -0.132641,-2.014112 -0.132641,-3.038398 0,-6.512687 1.777975,-12.593947 4.874427,-17.791026 z m 59.812088,3.888457 h 1.90444 c 1.85177,4.252892 2.87994,8.95291 2.87994,13.902569 0,14.783226 -9.152398,27.348489 -22.125863,32.372622 v -1.026448 l 1.229137,-0.682519 z M 53.823884,53.780263 c 4.138451,0.219009 7.68577,2.381772 11.895778,5.004732 0.981871,0.611843 0.921761,0.602234 1.489064,1.018304 l -7.445795,22.559333 1.722935,-0.481928 v 0.879383 c -3.592783,1.249896 -7.456784,1.930963 -11.486452,1.930963 -0.792744,0 -1.578798,-0.02761 -2.357977,-0.07936 v -0.988285 c 0.328544,0.0204 0.585174,0.01624 0.969208,5.29e-4 L 58.430709,56.513179 C 57.755058,56.125162 57.352891,55.93807 56.62796,55.651944 55.637066,55.261076 54.712617,55.064964 53.823884,55.003866 Z m -38.312199,0.357431 h 2.076174 c 0.210609,0.460579 0.453895,0.952638 0.743719,1.558409 4.024411,8.409808 14.784303,12.253746 23.013617,10.76551 3.863099,-0.698664 5.172504,0.23499 8.072231,1.331521 l 0.783976,0.548248 -5.002879,14.791722 c 0.510688,0.177445 0.893575,0.285827 1.319192,0.361389 v 1.024356 C 30.294364,82.919278 17.422168,70.25673 15.511685,54.137694 Z m 52.608539,27.841906 3.064465,6.011169 -0.829119,0.422125 -5.205101,-2.538323 -0.01558,0.008 2.040104,4.002244 -1.149551,0.585481 -3.084478,-6.050257 0.82912,-0.421888 5.2051,2.538082 0.0158,-0.008 -2.020562,-3.963387 z m -33.771472,0.579197 0.28948,0.122632 -0.958736,2.185072 -1.311047,1.569579 0.524512,0.222462 -0.423288,0.964322 -0.852157,-0.361625 -1.046232,1.071367 -1.252407,-0.531262 z m 0.620617,0.263189 0.300651,0.127516 -0.343701,7.230755 -1.268463,-0.538011 0.07656,-1.482773 -0.933606,-0.396293 0.423055,-0.964086 0.590833,0.250619 0.135433,-1.905363 z m 4.257299,1.887215 1.257295,0.290176 -0.627832,2.718202 0.01699,0.0041 2.620698,-2.258605 1.548172,0.357196 -3.133111,2.410333 1.781342,4.066717 -1.616589,-0.373261 -1.392028,-3.37326 -0.01699,-0.0041 -0.669489,2.89761 -1.257292,-0.290179 z m 19.789987,0.886362 c 0.02742,0 0.05489,5.29e-4 0.08214,0.0013 0.109043,0.0032 0.216633,0.01183 0.322757,0.02606 0.106125,0.01418 0.210728,0.03373 0.313452,0.05841 0.102727,0.02466 0.20365,0.05448 0.302517,0.08913 0.09887,0.03468 0.195654,0.07412 0.290179,0.11821 0.09453,0.04409 0.186727,0.09289 0.27645,0.145902 0.08972,0.05301 0.176887,0.110342 0.261323,0.171733 0.08445,0.06141 0.166106,0.126915 0.244803,0.196173 0.0787,0.06926 0.154401,0.142372 0.226886,0.218972 0.07248,0.0766 0.141774,0.156747 0.207574,0.240146 0.06579,0.0834 0.128211,0.170013 0.186859,0.259696 0.05864,0.08968 0.113503,0.18242 0.16452,0.27785 0.051,0.09544 0.0981,0.193482 0.141018,0.294135 0.04292,0.100658 0.08177,0.203909 0.116126,0.309263 0.03435,0.105349 0.06429,0.212773 0.08959,0.322292 0.0258,0.111768 0.04657,0.223586 0.06237,0.335092 0.0158,0.111509 0.02656,0.222851 0.03261,0.33346 0.006,0.110611 0.0073,0.220429 0.0036,0.329512 -0.0036,0.109058 -0.01209,0.217238 -0.02511,0.324149 -0.01302,0.10691 -0.03063,0.21259 -0.05283,0.316711 -0.0222,0.104119 -0.04906,0.206709 -0.08028,0.307398 -0.0312,0.100682 -0.06678,0.199382 -0.106817,0.296 -0.04004,0.0966 -0.08447,0.191262 -0.133107,0.283202 -0.04864,0.0919 -0.101428,0.18124 -0.158467,0.267838 -0.05703,0.0866 -0.11835,0.170442 -0.183605,0.251092 -0.06525,0.0806 -0.134538,0.158179 -0.207803,0.23223 -0.07326,0.0741 -0.150464,0.14469 -0.23154,0.21153 -0.08108,0.0668 -0.166126,0.129741 -0.254809,0.188719 -0.08869,0.059 -0.18105,0.1138 -0.277151,0.16429 -0.09611,0.0505 -0.195938,0.0966 -0.299257,0.137991 -0.103307,0.0414 -0.210101,0.078 -0.320429,0.109609 l -0.289949,-1.2417 c 0.05974,-0.02191 0.117488,-0.0476 0.173365,-0.0768 0.05588,-0.0292 0.1098,-0.0617 0.161727,-0.0975 0.05193,-0.0358 0.101751,-0.0749 0.149627,-0.116588 0.04788,-0.0418 0.09379,-0.0861 0.13753,-0.133112 0.04373,-0.047 0.08547,-0.0966 0.124958,-0.14823 0.0395,-0.0516 0.07676,-0.105289 0.111934,-0.160801 0.03516,-0.0555 0.06815,-0.112739 0.0989,-0.171498 0.03075,-0.0588 0.05918,-0.11902 0.0854,-0.18034 0.02619,-0.0613 0.0503,-0.12387 0.07191,-0.187092 0.02162,-0.0632 0.0408,-0.127069 0.05772,-0.191518 0.01688,-0.0645 0.03165,-0.12931 0.04373,-0.19431 0.01209,-0.065 0.02167,-0.130141 0.02886,-0.195001 0.0072,-0.0649 0.01196,-0.129551 0.01418,-0.193611 0.0024,-0.06407 0.0019,-0.127543 -7.93e-4,-0.190117 -0.0027,-0.06259 -0.0082,-0.124328 -0.0163,-0.184764 -0.008,-0.06043 -0.01855,-0.119483 -0.03189,-0.177088 -0.01431,-0.06196 -0.03147,-0.123312 -0.0512,-0.183832 -0.01971,-0.06052 -0.04215,-0.120267 -0.06702,-0.178954 -0.02484,-0.05869 -0.05223,-0.116433 -0.08191,-0.172895 -0.02968,-0.05646 -0.06168,-0.111625 -0.09588,-0.165449 -0.03417,-0.05383 -0.0705,-0.106278 -0.108913,-0.157078 -0.0384,-0.05081 -0.0789,-0.09993 -0.121229,-0.147299 -0.04233,-0.04739 -0.08645,-0.09303 -0.132408,-0.136596 -0.04595,-0.04355 -0.09361,-0.08514 -0.142883,-0.124497 -0.04927,-0.03936 -0.100132,-0.07649 -0.152421,-0.111226 -0.05229,-0.03472 -0.106019,-0.06708 -0.161028,-0.0968 -0.055,-0.02973 -0.111292,-0.05689 -0.168709,-0.08122 -0.05742,-0.02432 -0.115919,-0.04594 -0.175459,-0.06445 -0.05954,-0.01852 -0.12015,-0.03396 -0.181509,-0.04631 -0.06135,-0.01233 -0.123518,-0.02151 -0.186396,-0.02724 -0.06287,-0.0057 -0.126487,-0.008 -0.190582,-0.0068 -0.06409,0.0013 -0.128829,0.0063 -0.193839,0.0149 l -0.289486,-1.240073 c 0.11349,-0.02048 0.226155,-0.03486 0.337656,-0.04328 0.08362,-0.0063 0.166475,-0.0094 0.248758,-0.0091 z m -0.936397,0.134969 0.289485,1.239837 c -0.06105,0.02148 -0.120049,0.04623 -0.177088,0.07376 -0.05703,0.02751 -0.112064,0.05787 -0.164989,0.09099 -0.05293,0.03309 -0.103912,0.06904 -0.152651,0.107281 -0.04874,0.03824 -0.0954,0.07884 -0.139856,0.121692 -0.04445,0.04286 -0.08675,0.08795 -0.126823,0.134972 -0.04008,0.04702 -0.07795,0.0959 -0.113554,0.1466 -0.03561,0.05071 -0.06879,0.103167 -0.09982,0.15707 -0.03102,0.05391 -0.05994,0.109273 -0.08633,0.165923 -0.02638,0.05665 -0.05049,0.114467 -0.07214,0.173363 -0.02167,0.05891 -0.04067,0.118965 -0.05748,0.179644 -0.0168,0.06069 -0.0312,0.122079 -0.04305,0.184068 -0.01183,0.06198 -0.0213,0.124508 -0.02814,0.187323 -0.0068,0.06282 -0.01106,0.126026 -0.01273,0.189187 -0.0019,0.06317 -7.93e-4,0.126373 0.0027,0.189421 0.0036,0.06305 0.0096,0.125809 0.01836,0.188253 0.0087,0.0624 0.02032,0.124561 0.03444,0.185931 0.01328,0.0574 0.02967,0.11521 0.04887,0.1729 0.01924,0.0577 0.0413,0.1153 0.06609,0.172659 0.02476,0.0574 0.05216,0.11434 0.08214,0.17081 0.03,0.0565 0.06249,0.11253 0.09728,0.16755 0.03477,0.055 0.07201,0.10895 0.111241,0.161959 0.03923,0.053 0.08051,0.104992 0.123788,0.15544 0.04328,0.0504 0.08848,0.0995 0.135435,0.146841 0.04695,0.0473 0.09564,0.0928 0.145902,0.136359 0.05026,0.0436 0.102034,0.0854 0.155218,0.12473 0.05318,0.0394 0.107857,0.0764 0.163587,0.111 0.05574,0.0345 0.112667,0.0665 0.170571,0.0956 0.05791,0.0292 0.116692,0.0556 0.176387,0.0789 0.0597,0.0232 0.120163,0.0433 0.18128,0.06 0.06111,0.0168 0.122835,0.0301 0.184996,0.0398 0.06216,0.01 0.124741,0.01561 0.187558,0.0177 0.06282,0.0021 0.126077,2.65e-4 0.189188,-0.006 l 0.289946,1.242169 c -0.112974,0.01979 -0.225076,0.0336 -0.336023,0.0417 -0.110946,0.008 -0.220814,0.01029 -0.329274,0.007 -0.108464,-0.003 -0.215369,-0.01241 -0.320898,-0.0265 -0.105518,-0.01421 -0.20946,-0.0336 -0.311586,-0.0582 -0.102124,-0.02461 -0.202377,-0.0542 -0.300652,-0.0887 -0.09827,-0.0345 -0.194587,-0.0741 -0.288551,-0.11798 -0.09396,-0.0439 -0.185622,-0.0923 -0.274823,-0.145201 -0.0892,-0.0529 -0.175951,-0.109961 -0.25993,-0.17127 -0.08398,-0.0613 -0.165338,-0.12686 -0.243644,-0.19617 -0.0783,-0.0693 -0.153551,-0.142399 -0.225721,-0.219199 -0.07218,-0.0768 -0.141285,-0.157261 -0.20687,-0.241081 -0.06558,-0.0838 -0.127622,-0.170971 -0.186161,-0.261329 -0.05855,-0.0904 -0.113477,-0.18398 -0.164526,-0.28041 -0.05104,-0.0964 -0.09815,-0.19585 -0.141247,-0.29786 -0.0431,-0.10201 -0.08214,-0.206571 -0.116822,-0.31368 -0.03467,-0.107111 -0.06517,-0.216611 -0.09099,-0.32834 -0.02511,-0.10881 -0.0452,-0.217932 -0.0605,-0.326951 -0.01532,-0.109019 -0.0258,-0.217921 -0.03144,-0.32648 -0.0057,-0.108566 -0.0064,-0.216937 -0.0027,-0.324387 0.0036,-0.107434 0.01209,-0.214077 0.02511,-0.319738 0.01307,-0.105659 0.03072,-0.210246 0.05282,-0.313447 0.02212,-0.103206 0.04882,-0.204996 0.07982,-0.305075 0.03099,-0.100078 0.06642,-0.19854 0.106109,-0.294833 0.03972,-0.0963 0.08351,-0.190439 0.131712,-0.282265 0.0482,-0.09184 0.100772,-0.181367 0.157305,-0.268071 0.05653,-0.08672 0.117076,-0.170635 0.18174,-0.251555 0.06466,-0.08092 0.133326,-0.1587 0.205944,-0.233167 0.07262,-0.07447 0.149299,-0.145582 0.229674,-0.212921 0.08038,-0.06735 0.164534,-0.13104 0.252484,-0.190584 0.08796,-0.05954 0.179721,-0.11506 0.275058,-0.166148 0.09534,-0.05109 0.19417,-0.09766 0.296693,-0.139623 0.102537,-0.04197 0.208568,-0.0793 0.318106,-0.111459 z m -12.277405,0.403272 3.937098,0.413748 -0.117512,1.116735 -1.326873,-0.139388 -0.57431,5.461757 -1.283356,-0.134729 0.574543,-5.461762 -1.327105,-0.13939 z m 7.47209,0.381633 0.115649,6.613641 -1.290103,0.02281 -0.115419,-6.614109 z" />
  </g>
</svg>
