<?xml version="1.0" encoding="UTF-8" standalone="no"?>
<svg
   xmlns:dc="http://purl.org/dc/elements/1.1/"
   xmlns:cc="http://creativecommons.org/ns#"
   xmlns:rdf="http://www.w3.org/1999/02/22-rdf-syntax-ns#"
   xmlns:svg="http://www.w3.org/2000/svg"
   xmlns="http://www.w3.org/2000/svg"
   xmlns:sodipodi="http://sodipodi.sourceforge.net/DTD/sodipodi-0.dtd"
   xmlns:inkscape="http://www.inkscape.org/namespaces/inkscape"
   version="1.1"
   width="367.35001"
   height="367.35001"
   id="svg2"
   xml:space="preserve"
   sodipodi:docname="antifa.svg"
   inkscape:version="1.0.1 (3bc2e813f5, 2020-09-07)"
   inkscape:export-filename="/home/olel/server/antifalampe/web_app/static/antifa.png"
   inkscape:export-xdpi="400.07132"
   inkscape:export-ydpi="400.07132"><metadata
     id="metadata34"><rdf:RDF><cc:Work
         rdf:about=""><dc:format>image/svg+xml</dc:format><dc:type
           rdf:resource="http://purl.org/dc/dcmitype/StillImage" /></cc:Work></rdf:RDF></metadata><sodipodi:namedview
     pagecolor="#ffffff"
     bordercolor="#666666"
     borderopacity="1"
     objecttolerance="10"
     gridtolerance="10"
     guidetolerance="10"
     inkscape:pageopacity="0"
     inkscape:pageshadow="2"
     inkscape:window-width="1920"
     inkscape:window-height="1004"
     id="namedview32"
     showgrid="false"
     inkscape:zoom="3.5688035"
     inkscape:cx="170.22512"
     inkscape:cy="405.81323"
     inkscape:window-x="0"
     inkscape:window-y="0"
     inkscape:window-maximized="1"
     inkscape:current-layer="svg2"
     inkscape:document-rotation="0" /><defs
     id="defs6" /><path
     id="path20"
     style="color:#000000;font-style:normal;font-variant:normal;font-weight:normal;font-stretch:normal;font-size:medium;line-height:normal;font-family:'Bitstream Vera Sans';-inkscape-font-specification:'Bitstream Vera Sans';text-indent:0;text-align:start;text-decoration:none;text-decoration-line:none;letter-spacing:normal;word-spacing:normal;text-transform:none;writing-mode:lr-tb;direction:ltr;text-anchor:start;display:inline;overflow:visible;visibility:visible;fill:#000000;fill-opacity:1;stroke:none;stroke-width:40.748;marker:none;enable-background:accumulate"
     d="M 184.04492 3.9042969 C 85.291776 3.9042969 4.8007812 84.399664 4.8007812 183.1543 C 4.8007813 281.90853 85.291845 362.40039 184.04492 362.40039 C 282.79943 362.40039 363.29492 281.90851 363.29492 183.1543 C 363.29492 84.399694 282.7995 3.9042969 184.04492 3.9042969 z M 185.03516 9.0292969 L 190.16797 9.3886719 L 189.44336 19.757812 L 198.93945 20.421875 L 199.66406 10.052734 L 204.79688 10.410156 L 202.95508 36.736328 L 197.82227 36.376953 L 198.64453 24.611328 L 189.15039 23.947266 L 188.32617 35.712891 L 183.19336 35.355469 L 185.03516 9.0292969 z M 169.6582 9.234375 C 171.19748 9.2505469 172.72395 9.5649852 174.14258 10.130859 L 174.89453 16.246094 C 173.25653 14.683094 170.97216 13.905328 168.78516 14.173828 C 163.88616 14.775328 161.62814 19.637797 162.18164 24.154297 C 162.72464 28.565797 166.18386 32.618203 170.94336 32.033203 C 173.13186 31.764703 175.17834 30.350469 176.40234 28.542969 L 177.15039 34.623047 C 175.35039 35.760047 173.52034 36.654562 171.40234 36.914062 C 164.03584 37.818563 157.80056 32.13175 156.91406 24.90625 C 156.00056 17.47225 160.44214 10.261859 168.11914 9.3183594 C 168.63177 9.2557344 169.14511 9.2289844 169.6582 9.234375 z M 213.73438 11.953125 L 218.79883 12.847656 L 214.2168 38.835938 L 209.15039 37.941406 L 213.73438 11.953125 z M 142.2168 14.201172 C 143.95628 14.217302 145.78574 14.592732 147.06055 15.388672 L 145.74805 19.482422 C 144.43915 18.474422 142.99 18.009922 141.3418 18.482422 C 139.7608 18.936922 138.5882 20.582422 139.06055 22.232422 C 140.28575 26.504422 149.83865 21.844922 152.2793 30.357422 C 153.0158 32.925422 152.83955 35.331422 151.81055 37.294922 C 150.80555 39.211922 148.966 40.684922 146.4043 41.419922 C 142.9051 42.423422 139.77425 41.125172 137.18555 38.701172 L 137.99805 37.294922 L 139.49805 34.669922 C 140.7297 36.427922 143.0031 37.652422 145.12305 37.044922 C 147.1416 36.465922 147.90145 34.401172 147.3418 32.451172 C 146.58895 29.826172 143.9553 29.781672 141.74805 29.576172 C 138.09885 29.166672 135.2521 28.199672 134.12305 24.263672 C 132.91705 20.057672 135.0692 15.770422 139.3418 14.544922 C 140.18707 14.301922 141.17311 14.191172 142.2168 14.201172 z M 234.09375 16.376953 C 234.86456 16.398655 235.65338 16.539273 236.44141 16.810547 C 237.2732 17.096359 238.14295 17.570905 238.99219 18.177734 C 240.4078 19.188666 241.69158 20.546484 242.2793 21.929688 L 238.85742 24.529297 C 238.36339 22.952845 237.44142 21.741904 235.82031 21.183594 C 234.26448 20.649056 232.36028 21.322785 231.80078 22.945312 C 230.35405 27.14746 240.85211 28.810687 237.96875 37.183594 C 237.09914 39.70963 235.5746 41.579466 233.60547 42.597656 C 231.68267 43.591523 229.33052 43.742247 226.81055 42.875 C 223.36857 41.689962 221.54857 38.831771 220.81836 35.361328 L 222.29102 34.675781 L 225.02539 33.384766 C 225.02596 35.531281 226.18649 37.838322 228.27148 38.556641 C 230.25707 39.240147 232.06264 37.984762 232.72266 36.066406 C 233.61156 33.4843 231.48121 31.93827 229.79102 30.503906 C 227.03666 28.075369 225.25913 25.649143 226.5918 21.777344 C 227.74924 18.415958 230.75357 16.282913 234.09375 16.376953 z M 249.08008 22.119141 L 263.5 28.539062 L 261.67773 32.630859 L 256.81836 30.466797 L 247.90625 50.482422 L 243.20703 48.388672 L 252.11914 28.375 L 247.25781 26.210938 L 249.08008 22.119141 z M 116.0293 22.984375 L 136.19336 43.660156 L 131.17383 45.894531 L 127.05664 41.636719 L 118.67773 45.367188 L 118.95898 51.332031 L 114.00391 53.539062 L 112.38477 24.607422 L 116.0293 22.984375 z M 117.13086 30.960938 L 118.3125 40.931641 L 124.03516 38.382812 L 117.13086 30.960938 z M 99.533203 31.369141 L 101.97461 35.128906 L 95.310547 39.453125 L 98.474609 44.328125 L 104.72656 40.267578 L 107.16602 44.025391 L 100.91406 48.082031 L 107.24219 57.828125 L 102.92773 60.630859 L 88.554688 38.5 L 99.533203 31.369141 z M 269.62109 32.283203 L 274.07617 34.857422 L 260.88281 57.710938 L 256.42578 55.138672 L 269.62109 32.283203 z M 284.51367 42.714844 C 286.03286 42.781522 287.55373 43.325094 288.89453 44.373047 C 289.79753 45.078047 290.68653 46.142047 291.39453 47.310547 C 292.13703 48.540544 292.68253 49.896047 292.76953 51.123047 L 288.64453 52.466797 C 288.69103 50.815297 288.21478 49.366547 286.86328 48.310547 C 285.56578 47.29805 283.57553 47.3028 282.51953 48.654297 C 279.78353 52.156797 289.15953 57.145047 283.70703 64.123047 C 280.45353 68.287047 275.54878 69.223797 271.30078 65.904297 C 268.43278 63.663297 267.64103 60.362297 268.08203 56.841797 L 272.70703 56.341797 C 272.00803 58.371297 272.34503 60.953047 274.08203 62.310547 C 275.73653 63.603547 277.86378 62.973547 279.11328 61.373047 C 280.79328 59.222047 279.27553 57.060797 278.14453 55.154297 C 276.60403 52.442297 275.70703 49.974544 277.01953 47.310547 C 277.25353 46.838047 277.57603 46.359047 277.95703 45.873047 C 279.4724 43.934107 281.63715 42.817487 283.86328 42.716797 C 284.07971 42.707008 284.29665 42.705318 284.51367 42.714844 z M 81.574219 43.40625 L 97.820312 64.203125 L 93.767578 67.369141 L 77.519531 46.574219 L 81.574219 43.40625 z M 184.04492 44.652344 C 260.77832 44.652344 322.54682 106.4209 322.54688 183.1543 C 322.54688 259.88721 260.77839 321.65234 184.04492 321.65234 C 107.31329 321.65234 45.548828 259.88718 45.548828 183.1543 C 45.548828 106.42093 107.31336 44.652344 184.04492 44.652344 z M 71.865234 50.982422 L 74.978516 54.207031 L 71.150391 57.900391 L 86.371094 73.662109 L 82.669922 77.236328 L 67.451172 61.474609 L 63.623047 65.169922 L 60.511719 61.947266 L 71.865234 50.982422 z M 300.9043 60.164062 C 304.35898 60.07125 307.78803 61.323344 310.42578 64.152344 C 311.83428 65.662844 312.80955 67.529906 313.31055 69.503906 L 308.80469 73.705078 C 309.10619 71.462578 308.39366 69.159375 306.89062 67.546875 C 303.52463 63.937875 298.26405 64.966817 294.93555 68.070312 C 291.68505 71.101816 290.44094 76.282062 293.71094 79.789062 C 295.21394 81.401563 297.56314 82.226297 299.74414 82.154297 L 295.26367 86.330078 C 293.28517 85.542578 291.48775 84.590344 290.03125 83.027344 C 284.97025 77.600344 285.90697 69.214547 291.23047 64.248047 C 293.96947 61.694297 297.44961 60.256878 300.9043 60.164062 z M 54.970703 67.783203 L 76.179688 84.353516 L 73.894531 87.277344 L 50.806641 86.871094 L 50.763672 86.925781 L 64.884766 97.957031 L 61.716797 102.11328 L 40.369141 85.333984 L 42.652344 82.410156 L 65.742188 82.818359 L 65.785156 82.761719 L 51.802734 71.837891 L 54.970703 67.783203 z M 321.19922 77.197266 L 323.92578 81.560547 L 315.10938 87.068359 L 320.1543 95.142578 L 328.9707 89.632812 L 331.69727 93.996094 L 309.31641 107.98047 L 306.5918 103.61719 L 316.54883 97.300781 L 311.54883 89.294922 L 301.54492 95.544922 L 298.82031 91.181641 L 321.19922 77.197266 z M 31.068359 102.2793 L 59.75 105.65625 L 57.253906 110.55469 L 51.375 109.83594 L 47.210938 118.00586 L 51.183594 122.46484 L 48.722656 127.30078 L 29.255859 105.83398 L 31.068359 102.2793 z M 336.68164 102.64844 L 342.23633 115.11914 L 338.14258 116.93945 L 334.68359 109.17188 L 329.37695 111.5332 L 332.70508 119.01562 L 328.61328 120.83789 L 325.2832 113.35547 L 318.75977 116.25977 L 322.21875 124.0293 L 318.12695 125.85156 L 312.57422 113.38086 L 336.68164 102.64844 z M 36.941406 107.78516 L 44.136719 114.78906 L 46.980469 109.20898 L 36.941406 107.78516 z M 256.29688 310.83398 L 268.51562 334.81445 L 265.21094 336.5 L 244.45703 326.37305 L 244.39453 326.4043 L 252.5293 342.37109 L 247.94531 344.70703 L 235.64648 320.57031 L 238.95312 318.88672 L 259.70703 329.01367 L 259.76953 328.98047 L 251.71289 313.16992 L 256.29688 310.83398 z M 121.64258 313.14453 L 125.31641 314.70312 L 123.94531 343.55078 L 118.88672 341.4043 L 119.19336 335.48828 L 110.75195 331.9043 L 106.58008 336.17969 L 101.58594 334.06055 L 121.64258 313.14453 z M 120.16602 320.92188 L 113.74609 328.61328 L 119.51172 331.0625 L 120.23242 320.94922 L 120.16602 320.92188 z M 141.0918 321.72266 L 146.10547 322.88086 L 143.60156 333.72656 L 143.66992 333.74219 L 154.11914 324.73047 L 160.29102 326.15625 L 147.79883 335.77344 L 154.90234 351.99609 L 148.45508 350.50781 L 142.90625 337.05078 L 142.83789 337.03516 L 140.16797 348.59375 L 135.15625 347.4375 L 141.0918 321.72266 z M 219.79102 325.24219 C 226.11751 325.15721 231.40903 329.85211 232.86328 336.14844 C 234.56278 343.51494 230.77839 350.92618 223.27539 352.6582 C 215.77239 354.39023 209.12287 349.38798 207.42188 342.02148 C 205.76136 334.82568 209.52239 327.31213 217.02539 325.58008 C 217.96327 325.36357 218.88723 325.25433 219.79102 325.24219 z M 167.3125 327.4082 L 183.00977 329.05859 L 182.54297 333.51367 L 177.25195 332.95703 L 174.96094 354.74609 L 169.8457 354.20898 L 172.13477 332.41992 L 166.84375 331.86328 L 167.3125 327.4082 z M 197.10547 328.92969 L 197.56641 355.31641 L 192.42383 355.40625 L 191.96289 329.01953 L 197.10547 328.92969 z M 219.79688 330.34766 C 219.26168 330.34183 218.71595 330.39845 218.16602 330.52539 C 213.76652 331.54074 211.59664 336.46024 212.55664 340.62109 C 213.45514 344.50879 217.86981 348.69659 222.13281 347.71289 C 226.39581 346.72844 228.52981 341.02832 227.63281 337.14062 C 226.7915 333.50001 223.54316 330.38841 219.79688 330.34766 z " /><path
     d="m 239.226,305.4873 65.619,-181.5993 -5.3115,-3.1245 C 283.596,106.389 276.72,97.326 259.845,90.7635 c -25.9575,-10.095 -47.499,9.687 -69.687,15.6255 -34.092,9.123 -65.4735,6.738 -94.22355,-12.324 -3.0891,-2.049 -4.1502,-4.0605 -6.5625,-6.876 -20.3127,22.5015 -36.0048,51.465 -39.03345,84.9495 -0.0885,0.978 0.15285,1.53 0.3123,2.499 6.8754,5.625 56.3871,52.0998 125.4492,27.4125 27.9315,-9.984 46.563,1.2495 70.626,16.2498 3.915,2.44095 3.675,2.4024 5.937,4.0623 l -29.688,90 7.8135,-2.1873 8.4375,-4.6875"
     id="path22"
     style="fill:#000000;fill-opacity:1;fill-rule:nonzero;stroke:none;stroke-width:0.15" /><path
     d="m 217.6635,209.2365 -39.156,108.15765 c -1.9335,0.0796 -3.033,0.0931 -4.959,-0.0833 -3.435,-0.31515 -5.388,-0.74235 -8.646,-1.875 l 19.9485,-59.0109 -3.126,-2.1879 c -11.562,-4.3746 -16.7835,-8.0994 -32.1867,-5.3121 -32.8125,5.9373 -75.7149,-9.3972 -91.7613,-42.948 -3.4371,-7.188 -5.34795,-10.4895 -6.501,-17.7825 -0.4746,-3.003 -0.6276,-4.731 -0.6252,-7.7715 31.55625,26.1255 63.46635,39.3498 107.0127,31.9395 20.4615,-3.4815 33.5055,-14.1825 52.812,-6.5625 2.8905,1.1415 4.494,1.8885 7.188,3.4365"
     id="path24"
     style="fill:#000000;fill-opacity:1;fill-rule:nonzero;stroke:none;stroke-width:0.15" /></svg>
